<svg style="display: block; color: rgba(0, 0, 0, 0.87); fill: rgba(0, 0, 0, 0.87); height: 21px; width: 25px; user-select: none; transition: 450ms cubic-bezier(0.23, 1, 0.32, 1);" width="25" height="21" viewBox="0 0 25 21" fill="none" xmlns="http://www.w3.org/2000/svg" xmlns:xlink="http://www.w3.org/1999/xlink"><path fill-rule="evenodd" clip-rule="evenodd" d="M19.4036 6.84273C19.4 6.472 19.3276 6.09245 19.1761 5.71977L17.609 1.86605C17.1498 0.736805 16.0644 0 14.8601 0H4.52083C3.26299 0 2.14121 0.802725 1.71942 2.00463L0.367038 5.85836C0.303073 6.04063 0.257415 6.22376 0.228861 6.40603C0.076287 6.96927 0 7.74649 0 8.60108V16.5319C0 18.1976 1.33131 19.5479 2.97357 19.5479H12.7489C12.2837 18.9426 11.9044 18.2661 11.6295 17.5372H2.97357C2.42615 17.5372 1.98238 17.0871 1.98238 16.5319V8.71277C1.98238 8.15754 2.42615 7.70745 2.97357 7.70745H15.4682C16.4849 7.20651 17.6264 6.92553 18.8326 6.92553C19.0526 6.92553 19.2705 6.93488 19.4858 6.9532C19.4592 6.91573 19.4318 6.87889 19.4036 6.84273ZM14.8601 2.01064H10.793V5.69681C13.2257 5.69681 14.5896 5.69681 17.0224 5.69681L15.7764 2.63265C15.6233 2.25624 15.2615 2.01064 14.8601 2.01064ZM4.52083 2.01064H8.81057V5.69681C6.53108 5.69681 5.25306 5.69681 2.97357 5.69681C2.81777 5.69681 2.66478 5.70896 2.51545 5.73238L3.58703 2.67885C3.72762 2.27821 4.10155 2.01064 4.52083 2.01064Z" fill="#185BAA"></path><path fill-rule="evenodd" clip-rule="evenodd" d="M18.8326 21C22.2388 21 25 18.1994 25 14.7447C25 11.5137 22.5849 8.85492 19.4858 8.52403C19.2712 8.50111 19.0532 8.48936 18.8326 8.48936C15.4264 8.48936 12.6652 11.29 12.6652 14.7447C12.6652 16.6746 13.5269 18.4004 14.8814 19.5479C15.9515 20.4544 17.3292 21 18.8326 21ZM16.2654 14.3459C16.1012 14.3459 15.9692 14.2125 15.9692 14.0467V12.4512C15.9692 12.3303 16.0407 12.2206 16.1518 12.1745C16.2629 12.1284 16.39 12.1533 16.4752 12.2393L16.9886 12.7579C18.0697 11.6796 19.8111 11.6834 20.8861 12.7703C21.966 13.861 21.966 15.6285 20.8861 16.7192C19.8062 17.8099 18.0562 17.8099 16.9762 16.7192C16.822 16.5634 16.822 16.3104 16.9762 16.1546C17.1305 15.9987 17.3811 15.9987 17.5353 16.1546C18.3067 16.9336 19.5569 16.9336 20.3283 16.1546C21.0996 15.3755 21.0996 14.1128 20.3283 13.3337C19.5606 12.5584 18.3203 12.5547 17.5477 13.3213L18.0549 13.8348C18.1401 13.9208 18.1648 14.0492 18.1191 14.1614C18.0734 14.2736 17.9648 14.3459 17.8451 14.3459H16.2654Z" fill="#019BF0"></path><path d="M11.6295 17.5372C11.9044 18.2661 12.2837 18.9426 12.7489 19.5479H14.8814C13.5269 18.4004 12.6652 16.6746 12.6652 14.7447C12.6652 11.29 15.4264 8.48936 18.8326 8.48936C19.0532 8.48936 19.2712 8.50111 19.4858 8.52403V6.9532C19.2705 6.93488 19.0526 6.92553 18.8326 6.92553C17.6264 6.92553 16.4849 7.20651 15.4682 7.70745H2.97357C2.42615 7.70745 1.98238 8.15754 1.98238 8.71277V16.5319C1.98238 17.0871 2.42615 17.5372 2.97357 17.5372H11.6295Z" fill="#D2EDFF"></path><path d="M10.793 2.01064H14.8601C15.2615 2.01064 15.6233 2.25624 15.7764 2.63265L17.0224 5.69681H10.793V2.01064Z" fill="#D2EDFF"></path><path d="M8.81057 2.01064H4.52083C4.10155 2.01064 3.72762 2.27821 3.58703 2.67885L2.51545 5.73238C2.66478 5.70896 2.81777 5.69681 2.97357 5.69681H8.81057V2.01064Z" fill="#D2EDFF"></path><path d="M15.9692 14.0467C15.9692 14.2125 16.1012 14.3459 16.2654 14.3459H17.8451C17.9648 14.3459 18.0734 14.2736 18.1191 14.1614C18.1648 14.0492 18.1401 13.9208 18.0549 13.8348L17.5477 13.3213C18.3203 12.5547 19.5606 12.5584 20.3283 13.3337C21.0996 14.1128 21.0996 15.3755 20.3283 16.1546C19.5569 16.9336 18.3067 16.9336 17.5353 16.1546C17.3811 15.9987 17.1305 15.9987 16.9762 16.1546C16.822 16.3104 16.822 16.5634 16.9762 16.7192C18.0562 17.8099 19.8062 17.8099 20.8861 16.7192C21.966 15.6285 21.966 13.861 20.8861 12.7703C19.8111 11.6834 18.0697 11.6796 16.9886 12.7579L16.4752 12.2393C16.39 12.1533 16.2629 12.1284 16.1518 12.1745C16.0407 12.2206 15.9692 12.3303 15.9692 12.4512V14.0467Z" fill="#D2EDFF"></path></svg>
