<svg style="display: block; color: rgba(0, 0, 0, 0.87); fill: rgba(0, 0, 0, 0.87); height: 20px; width: 23px; user-select: none; transition: 450ms cubic-bezier(0.23, 1, 0.32, 1);" xmlns="http://www.w3.org/2000/svg" width="24" height="20" viewBox="0 0 24 20" fill="none"><path d="M11.3936 1.63641C11.6092 1.82393 11.8113 2.02518 12 2.24472V4.99811C11.717 4.99811 11.443 4.88377 11.2408 4.67795C11.2341 4.6688 11.2262 4.6608 11.2184 4.6528C11.2105 4.64479 11.2026 4.63679 11.1959 4.62764L10.3963 3.71289L10.3918 3.70832L10.3873 3.70374C9.3541 2.52372 7.78184 1.97944 6.25449 2.27673C4.16562 2.6838 2.65625 4.54531 2.65625 6.70869V6.85963C2.65625 8.16315 3.19082 9.41178 4.12969 10.2991L12 17.7406V20C11.4969 20 11.0117 19.8033 10.6434 19.4557L10.5311 19.3505L2.66074 11.909C1.28164 10.6055 0.5 8.77603 0.5 6.85963V6.70869C0.5 3.48878 2.74609 0.721661 5.85469 0.117927C7.62461 -0.225104 9.43496 0.191106 10.877 1.22477C11.0566 1.35284 11.2273 1.49005 11.3936 1.63641Z" fill="#185BAA"></path><path d="M13.4689 19.3505L13.3566 19.4557C12.9883 19.8079 12.5031 20 12 20V17.7406L19.8703 10.2991C20.8092 9.41178 21.3438 8.16315 21.3438 6.85963V6.70869C21.3438 4.54074 19.8344 2.6838 17.741 2.27673C16.2137 1.97944 14.6459 2.51914 13.6082 3.70374L13.6037 3.70832L12.8041 4.62307C12.7906 4.64136 12.7771 4.65966 12.7592 4.67338V4.67795C12.557 4.88377 12.283 4.99811 12 4.99811V2.24472C12.3414 1.85595 12.7188 1.51749 13.123 1.22477C14.565 0.191106 16.3754 -0.225105 18.1453 0.1225C21.2539 0.726235 23.5 3.48878 23.5 6.70869V6.85963C23.5 8.77603 22.7184 10.6055 21.3393 11.909L13.4689 19.3505Z" fill="#019BF0"></path><path d="M12.7592 4.67338C12.7771 4.65966 12.7906 4.64136 12.8041 4.62307L13.6037 3.70832L13.6082 3.70374C14.6459 2.51914 16.2137 1.97944 17.741 2.27673C19.8344 2.6838 21.3438 4.54074 21.3438 6.70869V6.85963C21.3438 8.16315 20.8092 9.41178 19.8703 10.2991L12 17.7406L4.12969 10.2991C3.19082 9.41178 2.65625 8.16315 2.65625 6.85963V6.70869C2.65625 4.54531 4.16562 2.6838 6.25449 2.27673C7.78184 1.97944 9.3541 2.52372 10.3873 3.70374L10.3918 3.70832L10.3963 3.71289L11.1959 4.62764C11.2026 4.63679 11.2105 4.64479 11.2184 4.6528C11.2262 4.6608 11.2341 4.6688 11.2408 4.67795C11.443 4.88377 11.717 4.99811 12 4.99811C12.283 4.99811 12.557 4.88377 12.7592 4.67795V4.67338Z" fill="#D2EDFF"></path></svg>
