<svg style="display: block; color: rgba(0, 0, 0, 0.87); fill: rgba(0, 0, 0, 0.87); height: 20px; width: 23px; user-select: none; transition: 450ms cubic-bezier(0.23, 1, 0.32, 1);" xmlns="http://www.w3.org/2000/svg" width="24" height="20" viewBox="0 0 24 20" fill="none"><path fill-rule="evenodd" clip-rule="evenodd" d="M5.50889 3.78109V6.36816H2.85111C1.55263 6.36816 0.5 7.39278 0.5 8.65672V16.5174C0.5 17.7813 1.55263 18.806 2.85111 18.806H6.83778V17.0149H2.85111C2.56883 17.0149 2.34 16.7922 2.34 16.5174V8.65672C2.34 8.38195 2.56883 8.1592 2.85111 8.1592H16.0378C16.3201 8.1592 16.5489 8.38195 16.5489 8.65672V8.75622H18.3889V8.65672C18.3889 7.39278 17.3363 6.36816 16.0378 6.36816H13.2778V3.78109C13.2778 1.69285 11.5387 0 9.39333 0C7.24801 0 5.50889 1.69285 5.50889 3.78109ZM11.4378 6.36816V3.78109C11.4378 2.68202 10.5224 1.79104 9.39333 1.79104C8.26422 1.79104 7.34889 2.68202 7.34889 3.78109V6.36816H11.4378Z" fill="#185BAA"></path><path fill-rule="evenodd" clip-rule="evenodd" d="M10.7222 10.0498C9.31083 10.0498 8.16667 11.1635 8.16667 12.5373V17.5124C8.16667 17.9862 8.30274 18.4291 8.53892 18.806C8.9876 19.522 9.79756 20 10.7222 20H20.9444C22.3558 20 23.5 18.8863 23.5 17.5124V12.5373C23.5 11.1635 22.3558 10.0498 20.9444 10.0498H18.3889H10.7222ZM12.5329 12.3383C12.141 12.3383 11.7928 12.6014 11.7605 12.9816C11.7499 13.1065 11.7444 13.233 11.7444 13.3607C11.7444 15.7086 13.5751 17.6119 15.8333 17.6119C18.0916 17.6119 19.9222 15.7086 19.9222 13.3607C19.9222 13.233 19.9168 13.1065 19.9062 12.9816C19.8739 12.6014 19.5257 12.3383 19.1338 12.3383H18.9585C18.4446 12.3383 18.0822 12.8605 18.0822 13.3607C18.0822 14.8324 16.963 15.8209 15.8333 15.8209C14.7036 15.8209 13.5844 14.8324 13.5844 13.3607C13.5844 12.8605 13.2221 12.3383 12.7082 12.3383H12.5329Z" fill="#019BF0"></path><path d="M6.83778 17.0149V18.806H8.53892C8.30274 18.4291 8.16667 17.9862 8.16667 17.5124V12.5373C8.16667 11.1635 9.31083 10.0498 10.7222 10.0498H18.3889V8.75622H16.5489V8.65672C16.5489 8.38195 16.3201 8.1592 16.0378 8.1592H2.85111C2.56883 8.1592 2.34 8.38195 2.34 8.65672V16.5174C2.34 16.7922 2.56883 17.0149 2.85111 17.0149H6.83778Z" fill="#D2EDFF"></path><path d="M11.7605 12.9816C11.7928 12.6014 12.141 12.3383 12.5329 12.3383H12.7082C13.2221 12.3383 13.5844 12.8605 13.5844 13.3607C13.5844 14.8324 14.7036 15.8209 15.8333 15.8209C16.963 15.8209 18.0822 14.8324 18.0822 13.3607C18.0822 12.8605 18.4446 12.3383 18.9585 12.3383H19.1338C19.5257 12.3383 19.8739 12.6014 19.9062 12.9816C19.9168 13.1065 19.9222 13.233 19.9222 13.3607C19.9222 15.7086 18.0916 17.6119 15.8333 17.6119C13.5751 17.6119 11.7444 15.7086 11.7444 13.3607C11.7444 13.233 11.7499 13.1065 11.7605 12.9816Z" fill="#D2EDFF"></path></svg>
