<svg style="display: block; color: rgba(0, 0, 0, 0.87); fill: rgba(0, 0, 0, 0.87); height: 22px; width: 20px; user-select: none; transition: 450ms cubic-bezier(0.23, 1, 0.32, 1);" xmlns="http://www.w3.org/2000/svg" width="20" height="22" viewBox="0 0 20 22" fill="none"><path fill-rule="evenodd" clip-rule="evenodd" d="M4.28571 5.5C4.28571 4.04131 4.88775 2.64236 5.95939 1.61091C7.03103 0.579463 8.48448 0 10 0C11.5155 0 12.969 0.579463 14.0406 1.61091C15.1122 2.64236 15.7143 4.04131 15.7143 5.5C15.7143 6.95869 15.1122 8.35764 14.0406 9.38909C12.969 10.4205 11.5155 11 10 11C8.48448 11 7.03103 10.4205 5.95939 9.38909C4.88775 8.35764 4.28571 6.95869 4.28571 5.5ZM12.5254 3.06932C13.1952 3.71398 13.5714 4.58832 13.5714 5.5C13.5714 6.41168 13.1952 7.28602 12.5254 7.93068C11.8556 8.57534 10.9472 8.9375 10 8.9375C9.0528 8.9375 8.14439 8.57534 7.47462 7.93068C6.80485 7.28602 6.42857 6.41168 6.42857 5.5C6.42857 4.58832 6.80485 3.71398 7.47462 3.06932C8.14439 2.42466 9.0528 2.0625 10 2.0625C10.9472 2.0625 11.8556 2.42466 12.5254 3.06932Z" fill="#019BF0"></path><path fill-rule="evenodd" clip-rule="evenodd" d="M0 20.7238C0 16.4914 3.5625 13.0625 7.95982 13.0625H12.0402C16.4375 13.0625 20 16.4914 20 20.7238C20 21.4285 19.4062 22 18.6741 22H1.32589C0.59375 22 0 21.4285 0 20.7238ZM17.7991 19.9375H2.20089C2.59821 17.2176 5.02679 15.125 7.95982 15.125H12.0402C14.9732 15.125 17.4018 17.2176 17.7991 19.9375Z" fill="#185BAA"></path><path d="M13.5714 5.5C13.5714 4.58832 13.1952 3.71398 12.5254 3.06932C11.8556 2.42466 10.9472 2.0625 10 2.0625C9.0528 2.0625 8.14439 2.42466 7.47462 3.06932C6.80485 3.71398 6.42857 4.58832 6.42857 5.5C6.42857 6.41168 6.80485 7.28602 7.47462 7.93068C8.14439 8.57534 9.0528 8.9375 10 8.9375C10.9472 8.9375 11.8556 8.57534 12.5254 7.93068C13.1952 7.28602 13.5714 6.41168 13.5714 5.5Z" fill="#D2EDFF"></path><path d="M2.20089 19.9375H17.7991C17.4018 17.2176 14.9732 15.125 12.0402 15.125H7.95982C5.02679 15.125 2.59821 17.2176 2.20089 19.9375Z" fill="#D2EDFF"></path></svg>
