<svg style="display: block; color: rgba(0, 0, 0, 0.87); fill: rgba(0, 0, 0, 0.87); height: 17.405px; width: 22.026px; user-select: none; transition: 450ms cubic-bezier(0.23, 1, 0.32, 1);" xmlns="http://www.w3.org/2000/svg" width="24" height="18" viewBox="0 0 24 18" fill="none"><path d="M13.013 15.9016C14.0381 16.5948 15.2755 17 16.6076 17C20.1439 17 23.013 14.1445 23.013 10.625C23.013 7.59687 18.6694 1.91582 17.455 0.388477C17.2549 0.139453 16.9579 0 16.6377 0H16.5776C16.2573 0 15.9604 0.139453 15.7603 0.388477C15.2099 1.08065 14.0169 2.6259 12.8767 4.39071C12.9268 4.46992 12.9768 4.54948 13.0264 4.62935C13.6539 5.63796 14.251 6.70698 14.6931 7.7259C15.1299 8.73266 15.44 9.74534 15.44 10.625C15.44 12.7328 14.4993 14.6228 13.013 15.9016Z" fill="#019BF0"></path><path fill-rule="evenodd" clip-rule="evenodd" d="M7.59194 1.77663C8.26332 2.6367 9.43337 4.19478 10.4838 5.88345C11.0827 6.84611 11.6255 7.82402 12.0144 8.72053C12.4159 9.64581 12.5968 10.358 12.5968 10.8273C12.5968 13.5714 10.3583 15.8047 7.59193 15.8047C4.82552 15.8047 2.58706 13.5714 2.58706 10.8273C2.58706 10.358 2.76797 9.64581 3.16943 8.72053C3.5584 7.82402 4.10121 6.84611 4.70004 5.88345C5.75049 4.19478 6.92055 2.6367 7.59194 1.77663ZM4.10456 10.3125C4.39132 10.3125 4.62593 10.5516 4.62593 10.8438C4.62593 12.3113 5.79249 13.5 7.23277 13.5C7.51952 13.5 7.75414 13.7391 7.75414 14.0312C7.75414 14.3234 7.51952 14.5625 7.23277 14.5625C5.21573 14.5625 3.58319 12.899 3.58319 10.8438C3.58319 10.5516 3.81781 10.3125 4.10456 10.3125Z" fill="#D2EDFF"></path><path d="M4.62593 10.8438C4.62593 10.5516 4.39132 10.3125 4.10456 10.3125C3.81781 10.3125 3.58319 10.5516 3.58319 10.8438C3.58319 12.899 5.21573 14.5625 7.23277 14.5625C7.51952 14.5625 7.75414 14.3234 7.75414 14.0312C7.75414 13.7391 7.51952 13.5 7.23277 13.5C5.79249 13.5 4.62593 12.3113 4.62593 10.8438Z" fill="#019BF0"></path><path fill-rule="evenodd" clip-rule="evenodd" d="M7.56191 0C7.18441 0 6.83115 0.164578 6.59213 0.460246L6.58805 0.465334C5.97822 1.23242 4.58429 3.04038 3.34145 5.03833C2.7197 6.03783 2.13325 7.08888 1.70163 8.08369C1.27193 9.07407 0.987061 10.0279 0.987061 10.8273C0.987061 14.4622 3.94904 17.4047 7.59193 17.4047C11.2348 17.4047 14.1968 14.4622 14.1968 10.8273C14.1968 10.0279 13.9119 9.07407 13.4822 8.08369C13.0506 7.08888 12.4642 6.03783 11.8424 5.03833C10.5996 3.04038 9.20567 1.2324 8.59584 0.465317L8.59174 0.460246C8.35272 0.164577 7.99946 0 7.62196 0H7.56191ZM10.4838 5.88345C9.43337 4.19478 8.26332 2.6367 7.59194 1.77663C6.92055 2.6367 5.75049 4.19478 4.70004 5.88345C4.10121 6.84611 3.5584 7.82402 3.16943 8.72053C2.76797 9.64581 2.58706 10.358 2.58706 10.8273C2.58706 13.5714 4.82552 15.8047 7.59193 15.8047C10.3583 15.8047 12.5968 13.5714 12.5968 10.8273C12.5968 10.358 12.4159 9.64581 12.0144 8.72053C11.6255 7.82402 11.0827 6.84611 10.4838 5.88345Z" fill="#185BAA"></path></svg>
