<svg style="display: block; color: rgba(0, 0, 0, 0.87); fill: rgba(0, 0, 0, 0.87); height: 22.79px; width: 24.841px; user-select: none; transition: 450ms cubic-bezier(0.23, 1, 0.32, 1);" xmlns="http://www.w3.org/2000/svg" width="26" height="24" viewBox="0 0 26 24" fill="none"><path d="M9.75121 6.97805C9.77676 6.93648 9.82982 6.93648 9.85537 6.97805L12.2408 10.8596C12.4458 11.1933 12.7731 11.435 13.1547 11.5304L17.5407 12.6262C17.5555 12.6299 17.5629 12.6352 17.5682 12.6403C17.5748 12.6468 17.5823 12.6576 17.5871 12.6725C17.5919 12.6874 17.5924 12.7016 17.5904 12.713C17.5887 12.7225 17.5848 12.7337 17.5733 12.7474L14.6617 16.2421C14.4109 16.5431 14.2874 16.9296 14.3152 17.3193L14.6404 21.8781C14.6419 21.8979 14.6381 21.9098 14.6343 21.9179C14.6296 21.9276 14.6218 21.9374 14.6112 21.9452C14.6006 21.953 14.5905 21.9563 14.5834 21.9573C14.5783 21.9581 14.5702 21.9584 14.5557 21.9525L10.3708 20.2308C10.0071 20.0811 9.5995 20.0811 9.23576 20.2308L5.05083 21.9525C5.03643 21.9584 5.02828 21.9581 5.02313 21.9573C5.01604 21.9563 5.00601 21.953 4.99538 21.9452C4.98475 21.9374 4.97696 21.9276 4.97232 21.9179C4.96845 21.9098 4.96472 21.8979 4.96614 21.8781L5.29139 17.3193C5.3192 16.9296 5.19564 16.5431 4.94492 16.2421L2.03324 12.7474C2.02179 12.7337 2.01784 12.7225 2.01615 12.713C2.01414 12.7016 2.01469 12.6874 2.01948 12.6725C2.02426 12.6576 2.03173 12.6468 2.03843 12.6403C2.04373 12.6352 2.05112 12.6299 2.0659 12.6262L6.45185 11.5304C6.83344 11.435 7.16074 11.1933 7.3658 10.8596L9.75121 6.97805Z" fill="#D2EDFF"></path><path fill-rule="evenodd" clip-rule="evenodd" d="M11.0786 6.22631C10.4926 5.27269 9.11401 5.27269 8.52796 6.22631L6.14255 10.1079C6.13243 10.1244 6.11788 10.1339 6.10383 10.1374L1.71788 11.2332C0.633508 11.5041 0.223739 12.8186 0.930155 13.6665L3.84184 17.1612C3.85377 17.1755 3.8608 17.1956 3.85926 17.2171L3.534 21.7759C3.45542 22.8774 4.55426 23.7093 5.5971 23.2803L9.78203 21.5586C9.79581 21.5529 9.81077 21.5529 9.82455 21.5586L14.0095 23.2803C15.0523 23.7093 16.1512 22.8774 16.0726 21.7759L15.7473 17.2171C15.7458 17.1956 15.7528 17.1755 15.7647 17.1612L18.6764 13.6665C19.3828 12.8186 18.9731 11.5041 17.8887 11.2332L13.5028 10.1374C13.4887 10.1339 13.4742 10.1244 13.464 10.1079L11.0786 6.22631ZM9.85537 6.97805C9.82982 6.93648 9.77676 6.93648 9.75121 6.97805L7.3658 10.8596C7.16074 11.1933 6.83344 11.435 6.45185 11.5304L2.0659 12.6262C2.05112 12.6299 2.04373 12.6352 2.03843 12.6403C2.03173 12.6468 2.02426 12.6576 2.01948 12.6725C2.01469 12.6874 2.01414 12.7016 2.01615 12.713C2.01784 12.7225 2.02179 12.7337 2.03324 12.7474L4.94492 16.2421C5.19564 16.5431 5.3192 16.9296 5.29139 17.3193L4.96614 21.8781C4.96472 21.8979 4.96845 21.9098 4.97232 21.9179C4.97696 21.9276 4.98475 21.9374 4.99538 21.9452C5.00601 21.953 5.01604 21.9563 5.02313 21.9573C5.02828 21.9581 5.03643 21.9584 5.05083 21.9525L9.23576 20.2308C9.5995 20.0811 10.0071 20.0811 10.3708 20.2308L14.5557 21.9525C14.5702 21.9584 14.5783 21.9581 14.5834 21.9573C14.5905 21.9563 14.6006 21.953 14.6112 21.9452C14.6218 21.9374 14.6296 21.9276 14.6343 21.9179C14.6381 21.9098 14.6419 21.8979 14.6404 21.8781L14.3152 17.3193C14.2874 16.9296 14.4109 16.5431 14.6617 16.2421L17.5733 12.7474C17.5848 12.7337 17.5887 12.7225 17.5904 12.713C17.5924 12.7016 17.5919 12.6874 17.5871 12.6725C17.5823 12.6576 17.5748 12.6468 17.5682 12.6403C17.5629 12.6352 17.5555 12.6299 17.5407 12.6262L13.1547 11.5304C12.7731 11.435 12.4458 11.1933 12.2408 10.8596L9.85537 6.97805Z" fill="#185BAA"></path><path d="M17.9367 0.829059C17.8214 0.530003 17.4031 0.530003 17.2877 0.829059L16.5432 2.75902C16.5078 2.85079 16.4361 2.92338 16.3454 2.95919L14.4378 3.71242C14.1422 3.82914 14.1422 4.25232 14.4378 4.36904L16.3454 5.12226C16.4361 5.15808 16.5078 5.23067 16.5432 5.32244L17.2877 7.2524C17.4031 7.55146 17.8214 7.55146 17.9367 7.2524L18.6812 5.32244C18.7166 5.23067 18.7884 5.15808 18.8791 5.12226L20.7867 4.36904C21.0823 4.25232 21.0823 3.82914 20.7867 3.71242L18.8791 2.95919C18.7884 2.92338 18.7166 2.85079 18.6812 2.75902L17.9367 0.829059Z" fill="#019BF0"></path><path d="M22.3967 8.22996C22.5121 7.9309 22.9303 7.9309 23.0457 8.22996L23.5946 9.65294C23.63 9.74471 23.7018 9.8173 23.7925 9.85311L25.199 10.4085C25.4946 10.5252 25.4946 10.9484 25.199 11.0651L23.7925 11.6204C23.7018 11.6563 23.63 11.7289 23.5946 11.8206L23.0457 13.2436C22.9303 13.5427 22.5121 13.5427 22.3967 13.2436L21.8478 11.8206C21.8124 11.7289 21.7406 11.6563 21.6499 11.6204L20.2434 11.0651C19.9478 10.9484 19.9478 10.5252 20.2434 10.4085L21.6499 9.85311C21.7406 9.8173 21.8124 9.74471 21.8478 9.65294L22.3967 8.22996Z" fill="#019BF0"></path></svg>
