<svg style="display: block; color: rgba(0, 0, 0, 0.87); fill: rgba(0, 0, 0, 0.87); height: 18px; width: 21.789px; user-select: none; transition: 450ms cubic-bezier(0.23, 1, 0.32, 1);" xmlns="http://www.w3.org/2000/svg" width="22" height="18" viewBox="0 0 22 18" fill="none"><path fill-rule="evenodd" clip-rule="evenodd" d="M3.41862 4.5C3.41862 3.30653 3.88408 2.16193 4.71259 1.31802C5.5411 0.474106 6.6648 0 7.83649 0C9.00818 0 10.1319 0.474106 10.9604 1.31802C11.7889 2.16193 12.2544 3.30653 12.2544 4.5C12.2544 5.69347 11.7889 6.83807 10.9604 7.68198C10.1319 8.52589 9.00818 9 7.83649 9C6.6648 9 5.5411 8.52589 4.71259 7.68198C3.88408 6.83807 3.41862 5.69347 3.41862 4.5ZM9.78893 2.51126C10.3067 3.03871 10.5977 3.75408 10.5977 4.5C10.5977 5.24592 10.3067 5.96129 9.78893 6.48874C9.27111 7.01618 8.5688 7.3125 7.83649 7.3125C7.10418 7.3125 6.40187 7.01618 5.88405 6.48874C5.36623 5.96129 5.07532 5.24592 5.07532 4.5C5.07532 3.75408 5.36623 3.03871 5.88405 2.51126C6.40187 1.98382 7.10418 1.6875 7.83649 1.6875C8.5688 1.6875 9.27111 1.98382 9.78893 2.51126Z" fill="#185BAA"></path><path fill-rule="evenodd" clip-rule="evenodd" d="M0.105225 16.9559C0.105225 13.493 2.85949 10.6875 6.25917 10.6875H9.41381C12.8135 10.6875 15.5678 13.493 15.5678 16.9559C15.5678 17.5324 15.1087 18 14.5427 18H1.13031C0.564269 18 0.105225 17.5324 0.105225 16.9559ZM13.8662 16.3125H1.80679C2.11397 14.0871 3.99157 12.375 6.25917 12.375H9.41381C11.6814 12.375 13.559 14.0871 13.8662 16.3125Z" fill="#185BAA"></path><path d="M10.5977 4.5C10.5977 3.75408 10.3067 3.03871 9.78893 2.51126C9.27111 1.98382 8.5688 1.6875 7.83649 1.6875C7.10418 1.6875 6.40187 1.98382 5.88405 2.51126C5.36623 3.03871 5.07532 3.75408 5.07532 4.5C5.07532 5.24592 5.36623 5.96129 5.88405 6.48874C6.40187 7.01618 7.10418 7.3125 7.83649 7.3125C8.5688 7.3125 9.27111 7.01618 9.78893 6.48874C10.3067 5.96129 10.5977 5.24592 10.5977 4.5Z" fill="#D2EDFF"></path><path d="M1.80679 16.3125H13.8662C13.559 14.0871 11.6814 12.375 9.41381 12.375H6.25917C3.99157 12.375 2.11397 14.0871 1.80679 16.3125Z" fill="#D2EDFF"></path><path d="M16.6794 18H20.8987C21.4487 18 21.8947 17.5464 21.8947 16.9872C21.8947 13.6282 19.2187 10.9069 15.9156 10.9069H14.1175C15.8094 12.3523 16.8869 14.523 16.8869 16.9559C16.8869 17.3272 16.8129 17.6799 16.6794 18Z" fill="#019BF0"></path><path d="M12.0535 8.57125C12.7424 9.02388 13.5503 9.27 14.3831 9.27C15.5215 9.27 16.6133 8.81012 17.4182 7.99152C18.2232 7.17292 18.6754 6.06267 18.6754 4.905C18.6754 3.74733 18.2232 2.63708 17.4182 1.81848C16.6133 0.999883 15.5215 0.54 14.3831 0.54C13.7196 0.54 13.072 0.696188 12.4878 0.98854C13.1892 2.00995 13.5735 3.23423 13.5735 4.5C13.5735 6.00657 13.0291 7.45435 12.0535 8.57125Z" fill="#019BF0"></path></svg>
