<svg width="24" height="24" viewBox="0 0 24 24" fill="none" xmlns="http://www.w3.org/2000/svg">
<path d="M4.27023 0.5C1.90471 0.5 0 2.40471 0 4.77023V19.6163C0 21.9818 1.90471 23.8865 4.27023 23.8865H12.3166V14.7438H9.89907V11.4522H12.3166V8.63997C12.3166 6.43053 13.7451 4.40189 17.0356 4.40189C18.3679 4.40189 19.3531 4.52979 19.3531 4.52979L19.2756 7.60366C19.2756 7.60366 18.2708 7.59417 17.1744 7.59417C15.9878 7.59417 15.7976 8.1409 15.7976 9.04853V11.4522H19.3698L19.2142 14.7439H15.7976V23.8865H19.1162C21.4818 23.8865 23.3865 21.9818 23.3865 19.6163V4.77025C23.3865 2.40473 21.4818 0.500023 19.1162 0.500023H4.27021L4.27023 0.5Z" fill="white"/>
</svg>
