<svg width="24" height="24" viewBox="0 0 24 24" fill="none" xmlns="http://www.w3.org/2000/svg">
<path d="M12.0219 15.9955C9.82191 15.9955 8.02655 14.2001 8.02655 12C8.02655 9.8 9.82191 8.0046 12.0219 8.0046C14.2219 8.0046 16.0172 9.8 16.0172 12C16.0172 14.2001 14.2219 15.9955 12.0219 15.9955ZM24.005 12C24.005 13.6545 24.0199 15.2941 23.927 16.9456C23.8341 18.8639 23.3965 20.5664 21.9938 21.9691C20.5881 23.3749 18.8886 23.8095 16.9704 23.9024C15.3159 23.9953 13.6764 23.9803 12.0249 23.9803C10.3704 23.9803 8.7309 23.9953 7.07941 23.9024C5.16116 23.8095 3.45872 23.3719 2.056 21.9691C0.650284 20.5634 0.215681 18.8639 0.122766 16.9456C0.0298505 15.2911 0.0448368 13.6516 0.0448368 12C0.0448368 10.3485 0.0298505 8.70598 0.122766 7.05445C0.215681 5.13617 0.653281 3.43369 2.056 2.03095C3.46172 0.625206 5.16116 0.190596 7.07941 0.0976791C8.7339 0.00476074 10.3734 0.0197468 12.0249 0.0197468C13.6794 0.0197468 15.3189 0.00476074 16.9704 0.0976791C18.8886 0.190596 20.5911 0.628204 21.9938 2.03095C23.3995 3.43669 23.8341 5.13617 23.927 7.05445C24.0229 8.70598 24.005 10.3455 24.005 12ZM12.0219 5.85253C8.62 5.85253 5.87451 8.59807 5.87451 12C5.87451 15.402 8.62 18.1475 12.0219 18.1475C15.4238 18.1475 18.1693 15.402 18.1693 12C18.1693 8.59807 15.4238 5.85253 12.0219 5.85253ZM18.4211 16.9636C17.6268 16.9636 16.9854 17.605 16.9854 18.3993C16.9854 19.1936 17.6268 19.835 18.4211 19.835C19.2153 19.835 19.8567 19.1936 19.8567 18.3993C19.857 18.2107 19.82 18.0239 19.7479 17.8496C19.6759 17.6753 19.5701 17.5169 19.4368 17.3836C19.3034 17.2502 19.145 17.1445 18.9707 17.0724C18.7965 17.0003 18.6097 16.9634 18.4211 16.9636Z" fill="white"/>
</svg>
