<svg width="29" height="20" viewBox="0 0 29 20" fill="none" xmlns="http://www.w3.org/2000/svg">
<path fill-rule="evenodd" clip-rule="evenodd" d="M27.2168 1.6777C27.6525 2.11348 27.9665 2.6558 28.1275 3.25067C29.0544 6.98162 28.8403 12.8742 28.1455 16.7492C27.9845 17.3441 27.6705 17.8864 27.2347 18.3222C26.7989 18.758 26.2566 19.072 25.6617 19.233C23.484 19.8269 14.7191 19.8269 14.7191 19.8269C14.7191 19.8269 5.95395 19.8269 3.77616 19.233C3.1813 19.072 2.63899 18.758 2.20323 18.3222C1.76748 17.8864 1.45348 17.3441 1.29252 16.7492C0.360163 13.0345 0.615697 7.13827 1.27443 3.26876C1.43538 2.67387 1.74937 2.13152 2.18512 1.69573C2.62088 1.25994 3.1632 0.9459 3.75807 0.784895C5.93586 0.190952 14.7012 0.172974 14.7012 0.172974C14.7012 0.172974 23.4661 0.172974 25.6439 0.766917C26.2387 0.927912 26.781 1.24193 27.2168 1.6777ZM19.1827 9.99986L11.9115 14.2114V5.78832L19.1827 9.99986Z" fill="white"/>
</svg>
