<svg width="24" height="28" viewBox="0 0 24 28" fill="none" xmlns="http://www.w3.org/2000/svg">
<g clip-path="url(#clip0_15_4680)">
<path d="M17.6348 10.2928C19.3411 11.5119 21.4315 12.2293 23.6891 12.2293V7.88722C23.2618 7.88731 22.8357 7.84273 22.4176 7.75421V11.172C20.1602 11.172 18.0701 10.4548 16.3635 9.23578V18.0967C16.3635 22.5294 12.7682 26.1225 8.33351 26.1225C6.67882 26.1225 5.1408 25.6226 3.86322 24.765C5.3214 26.2553 7.35493 27.1797 9.6046 27.1797C14.0396 27.1797 17.635 23.5866 17.635 19.1537V10.2928H17.6348ZM19.2034 5.91225C18.3313 4.96008 17.7587 3.72955 17.6348 2.36911V1.81067H16.43C16.7333 3.53971 17.7678 5.0169 19.2033 5.91225H19.2034ZM6.66813 21.3636C6.18094 20.7252 5.91758 19.944 5.91876 19.141C5.91876 17.1136 7.56322 15.4698 9.59208 15.4698C9.97012 15.4696 10.3459 15.5277 10.7063 15.6418V11.2027C10.2852 11.1451 9.86021 11.1205 9.43541 11.1295V14.5847C9.07486 14.4704 8.69885 14.4124 8.32063 14.4128C6.29185 14.4128 4.64749 16.0564 4.64749 18.084C4.64749 19.5177 5.4694 20.7589 6.66813 21.3636Z" fill="white"/>
<path d="M16.3635 9.23569C18.0703 10.4547 20.1602 11.1719 22.4177 11.1719V7.75412C21.1576 7.48582 20.0421 6.82771 19.2034 5.91225C17.7677 5.01681 16.7333 3.53962 16.43 1.81067H13.2653V19.1535C13.2581 21.1753 11.6165 22.8124 9.59197 22.8124C8.39908 22.8124 7.3392 22.2441 6.66802 21.3635C5.46947 20.7589 4.64747 19.5176 4.64747 18.0841C4.64747 16.0567 6.29183 14.4129 8.32061 14.4129C8.70932 14.4129 9.08396 14.4733 9.43539 14.5848V11.1296C5.07857 11.2196 1.57471 14.7776 1.57471 19.1536C1.57471 21.338 2.44722 23.3183 3.86338 24.7652C5.14096 25.6226 6.6789 26.1227 8.33367 26.1227C12.7684 26.1227 16.3636 22.5293 16.3636 18.0967V9.23578H16.3635V9.23569Z" fill="white"/>
<path d="M22.4177 7.7542V6.83025C21.2814 6.83197 20.1675 6.51391 19.2034 5.91242C20.0568 6.84625 21.1806 7.49021 22.4177 7.75438V7.7542ZM16.43 1.81074C16.4011 1.64554 16.3789 1.47923 16.3635 1.31223V0.753784H11.9937V18.0968C11.9867 20.1184 10.3451 21.7555 8.32052 21.7555C7.74657 21.7563 7.18047 21.6222 6.66794 21.3638C7.33911 22.2442 8.39899 22.8124 9.59189 22.8124C11.6163 22.8124 13.2581 21.1756 13.2652 19.1537V1.81083H16.43V1.81074ZM9.43558 11.1297V10.1459C9.07043 10.096 8.70231 10.071 8.33377 10.0712C3.89856 10.0712 0.303345 13.6645 0.303345 18.0968C0.303345 20.8757 1.71631 23.3247 3.86348 24.7652C2.44732 23.3184 1.5748 21.338 1.5748 19.1536C1.5748 14.7778 5.07857 11.2198 9.43558 11.1298V11.1297Z" fill="white"/>
</g>
<defs>
<clipPath id="clip0_15_4680">
<rect width="23.3865" height="26.4925" fill="white" transform="translate(0.303345 0.753784)"/>
</clipPath>
</defs>
</svg>
