<svg width="241" height="142" viewBox="0 0 241 142" fill="none" xmlns="http://www.w3.org/2000/svg">
<path d="M123.554 108.625L123.368 98.5199L97.9195 98.8241L47.1574 86.9615C45.89 86.6743 44.572 86.9953 43.5919 87.8571L30.124 99.6521L24.0069 99.7197V105.938C23.483 107.932 24.5645 110.213 26.812 110.822L103.766 131.944C105.372 132.384 107.095 131.792 108.075 130.441L122.76 110.366C123.165 109.825 123.385 109.216 123.486 108.608H123.537L123.554 108.625Z" fill="#1781FF"/>
<path d="M120.446 95.8164L47.1588 78.6816C45.8915 78.3944 44.5734 78.7154 43.5933 79.5772L25.2419 95.6643C22.8254 97.7766 23.7379 101.714 26.8303 102.559L103.785 123.681C105.39 124.121 107.114 123.529 108.094 122.178L122.778 102.103C124.485 99.7706 123.251 96.4754 120.446 95.8164Z" fill="#559AFF"/>
<path d="M116.541 96.9993L48.5769 81.0812L27.0486 100.041L99.9135 120.2L116.541 96.9993Z" fill="#D7F6FF"/>
<path d="M104.477 101.325H96.2646C94.879 101.325 93.6961 100.379 93.3582 99.0608L89.9109 85.2888C89.3533 83.092 88.4408 80.9798 87.2072 79.0703L85.078 75.7582L83.4051 73.1559L82.8813 72.3448L82.2729 71.3985L85.0612 69.4383L86.3285 68.5427L92.057 64.504L93.5947 68.5427L93.7975 69.1003L94.5241 70.9929L95.9436 74.7781C96.6533 76.6538 97.0927 78.614 97.2447 80.608L98.0728 91.7946C98.1741 93.1802 98.9008 94.4476 100.05 95.2249L105.254 98.7566C106.404 99.534 105.846 101.325 104.477 101.325Z" fill="#FF6B20"/>
<path d="M72.9954 71.0607L71.8801 72.8857L70.6297 74.9304L69.4806 76.8061L68.2301 78.8339C67.0304 80.7772 66.1685 82.8894 65.6616 85.12L62.5016 98.9427C62.1975 100.278 61.0315 101.241 59.6628 101.275L51.4502 101.444C50.0646 101.477 49.4731 99.7031 50.6053 98.9089L55.7255 95.2589C56.8576 94.4478 57.5674 93.1804 57.635 91.7948L58.2264 80.5913C58.3278 78.5973 58.7334 76.6202 59.3924 74.7276L59.5952 74.17L60.1359 72.6153L61.7581 68.0866L63.0762 64.369L68.1118 67.7656L71.2887 69.9116L72.9954 71.0607Z" fill="#FF6B20"/>
<path d="M41.6662 39.5792L41.2438 39.6805L39.9764 40.0016C39.7905 40.0523 39.5878 40.0861 39.4019 40.1368C39.0808 40.2044 38.7598 40.272 38.4387 40.3058C37.6614 40.441 36.8841 40.5423 36.1067 40.593C31.7132 40.9141 27.2859 39.9171 23.3993 37.6866L20.6956 36.1319C19.1579 35.2532 16.1331 35.4222 15.0685 36.8078L11.4861 40.4917C9.99905 42.4687 7.26154 42.9926 5.11547 41.7252L2.0569 39.8833C0.181204 38.768 -0.528519 36.3854 0.417779 34.4252L7.6671 25.0467L5.16617 19.6393C4.72682 18.7099 5.7914 17.8143 6.65321 18.355L20.0028 27.0069C24.0076 29.6092 28.9419 30.2852 33.4537 28.8995C33.5889 28.8657 33.7241 28.8319 33.8593 28.7812C34.1803 28.6798 34.5014 28.5615 34.8056 28.4432H34.8732L38.2697 27.0576L38.3373 27.2942L39.9933 33.3944L40.0271 33.5465L40.6355 35.7771L41.6662 39.5792Z" fill="#FF6B20"/>
<path d="M5.21631 30.9951C5.21631 30.9951 9.20428 35.7266 12.1615 36.8926" stroke="black" stroke-width="1.65863" stroke-linecap="round" stroke-linejoin="round"/>
<path d="M8.27604 34.1548C8.27604 34.1548 4.06839 37.4668 4.50775 38.9877" stroke="black" stroke-width="1.65863" stroke-linecap="round" stroke-linejoin="round"/>
<path d="M10.4047 35.8955C10.4047 35.8955 6.80535 39.0386 7.2447 40.5256" stroke="black" stroke-width="1.65863" stroke-linecap="round" stroke-linejoin="round"/>
<path d="M6.46707 32.3806C6.46707 32.3806 1.70178 34.8815 1.98905 37.467" stroke="black" stroke-width="1.65863" stroke-linecap="round" stroke-linejoin="round"/>
<path d="M7.91971 25.3171C6.46647 26.0438 7.27758 29.9134 10.5727 28.7475" stroke="black" stroke-width="1.65863" stroke-linecap="round" stroke-linejoin="round"/>
<path d="M156.303 25.5196L154.258 28.4599C152.822 30.4877 150.118 31.1467 147.938 29.947L143.156 28.0544C141.618 27.2264 138.796 28.3247 137.749 29.7442L135.924 32.2789C133.997 34.9319 131.53 37.1118 128.708 38.6833C127.002 39.6296 125.177 40.3562 123.284 40.8463C123.183 40.8801 123.081 40.897 122.98 40.9139C122.777 40.9815 122.557 41.0153 122.338 41.066C122.152 41.0998 121.949 41.1505 121.763 41.1842L120.04 41.4884L119.161 35.9627L119.059 35.3206L118.586 32.3465L118.012 28.6796L119.026 28.6458L120.073 28.5951L121.729 28.5275C122.202 28.4937 122.676 28.4599 123.166 28.3923C123.622 28.3416 124.061 28.2571 124.501 28.1558C126.545 27.7164 128.472 26.8884 130.178 25.7055C131.936 24.5226 133.457 22.9849 134.64 21.143L143.275 7.75965C143.832 6.91474 145.167 7.3034 145.15 8.33418L145.1 14.2992L155.559 19.8756C157.215 21.2782 157.537 23.7284 156.303 25.5196Z" fill="#FF6B20"/>
<path d="M149.746 18.7101C149.746 18.7101 148.056 24.6582 145.826 26.9395" stroke="black" stroke-width="1.65863" stroke-linecap="round" stroke-linejoin="round"/>
<path d="M148.26 22.85C148.26 22.85 153.448 24.1511 153.685 25.7227" stroke="black" stroke-width="1.65863" stroke-linecap="round" stroke-linejoin="round"/>
<path d="M147.025 25.3002C147.025 25.3002 151.605 26.7027 151.808 28.2236" stroke="black" stroke-width="1.65863" stroke-linecap="round" stroke-linejoin="round"/>
<path d="M149.173 20.467C149.173 20.467 154.546 20.7881 155.341 23.2721" stroke="black" stroke-width="1.65863" stroke-linecap="round" stroke-linejoin="round"/>
<path d="M144.947 14.6375C146.569 14.705 147.431 18.5747 143.933 18.862" stroke="black" stroke-width="1.65863" stroke-linecap="round" stroke-linejoin="round"/>
<path d="M34.6017 97.5569L36.0211 98.047C36.7646 98.3004 37.5927 98.1314 38.1672 97.6076L48.0526 88.6178C49.2693 87.5194 48.8468 85.5085 47.2922 84.9847L45.8728 84.4946C45.1292 84.2411 44.3012 84.4101 43.7267 84.934L33.8413 93.9238C32.6246 95.0222 33.047 97.0331 34.6017 97.5569Z" fill="#1781FF"/>
<path d="M112.3 111.971C114.13 111.971 115.612 110.859 115.612 109.487C115.612 108.115 114.13 107.003 112.3 107.003C110.471 107.003 108.988 108.115 108.988 109.487C108.988 110.859 110.471 111.971 112.3 111.971Z" fill="#1781FF"/>
<path d="M24.5824 96.408C24.5824 96.408 22.504 100.649 26.2047 102.339C29.9054 104.029 101.976 123.682 105.102 123.834C108.228 123.986 123.555 100.954 123.555 100.954" stroke="black" stroke-width="1.65863" stroke-linecap="round" stroke-linejoin="round"/>
<path d="M141.179 120.15L140.334 110.078L165.682 107.78L214.957 90.7805C216.19 90.3581 217.542 90.544 218.59 91.3044L233.207 101.663L239.29 101.105L239.932 107.29C240.659 109.233 239.814 111.599 237.634 112.444L163.248 141.34C161.694 141.948 159.919 141.526 158.804 140.292L142.126 121.822C141.669 121.316 141.382 120.741 141.23 120.15H141.179Z" fill="#1781FF"/>
<path d="M142.953 107.104L214.095 82.5513C215.328 82.1288 216.68 82.3147 217.728 83.0751L237.634 97.1851C240.253 99.0439 239.746 103.049 236.772 104.215L162.386 133.111C160.832 133.719 159.057 133.297 157.942 132.063L141.264 113.593C139.337 111.447 140.216 108.034 142.937 107.104H142.953Z" fill="#559AFF"/>
<path d="M146.958 107.865L212.929 85.0692L236.299 101.714L165.884 129.241L146.958 107.865Z" fill="#D7F6FF"/>
<path d="M228.526 100.024L227.157 100.649C226.447 100.987 225.602 100.886 224.977 100.43L214.23 92.4874C212.912 91.5073 213.115 89.4796 214.602 88.7867L215.97 88.1615C216.68 87.8235 217.525 87.9249 218.15 88.3812L228.897 96.3233C230.216 97.3034 230.013 99.3312 228.526 100.024Z" fill="#1781FF"/>
<path d="M152.725 122.339C154.545 122.151 155.906 120.893 155.765 119.528C155.625 118.164 154.036 117.209 152.216 117.397C150.397 117.584 149.036 118.842 149.176 120.207C149.317 121.572 150.906 122.526 152.725 122.339Z" fill="#1781FF"/>
<path d="M238.378 97.8608C238.378 97.8608 240.879 101.866 237.364 103.927C233.849 105.989 164.178 132.925 161.086 133.398C157.993 133.871 140.385 112.528 140.385 112.528" stroke="black" stroke-width="1.65863" stroke-linecap="round" stroke-linejoin="round"/>
<path d="M207.877 97.5907C208.063 98.1653 207.421 98.6553 206.914 98.3005L204.734 96.8134C203.011 95.6136 201 94.887 198.905 94.7011L194.511 94.2956C193.142 94.1604 192.044 93.1127 191.858 91.7778L191.047 86.2183L190.962 85.593L190.692 83.768L190.32 81.0643L190.27 80.7432L190.608 80.6588L197.84 78.9858L197.519 81.3009L197.35 82.5345V82.5683L196.606 88.0095C196.454 89.2261 197.468 90.3076 198.702 90.2062L204.075 89.75C204.903 89.6824 205.647 90.2062 205.9 90.9835L207.877 97.5907Z" fill="#19B6EB"/>
<path d="M190.251 100.734C190.336 101.663 189.795 102.508 188.933 102.88L181.633 105.955C181.042 106.209 180.484 105.533 180.839 104.992L182.833 102.018C184.354 99.7874 184.878 97.0161 184.303 94.38L181.616 81.9767L181.363 80.8783L181.278 80.4559L180.687 77.7184V77.6846L188.764 79.1209L188.815 79.932L188.883 81.0135L189.001 82.8047L189.187 85.5591H189.204L189.237 86.1844L190.251 100.734Z" fill="#19B6EB"/>
<path d="M197.517 81.3008L197.348 82.5343V82.5681L190.961 85.5929L190.691 83.7679L190.319 81.0642L197.517 81.3008Z" fill="black"/>
<path d="M189.204 85.559H189.187L181.617 81.9765L181.363 80.8782L182.174 80.1346L188.883 81.0133L189.001 82.8046L189.204 85.559Z" fill="black"/>
<path d="M197.062 16.4453C218.489 16.5467 243.11 51.7794 223.238 69.9281C203.365 88.0767 175.483 87.2318 158.518 66.4302C141.552 45.6285 172.898 16.3439 197.062 16.4453Z" fill="#FFEAA9"/>
<path d="M196.335 42.6882C201.016 43.6345 203.55 48.3829 201.151 49.6165C198.751 50.85 199.039 46.9635 195.98 46.7269C192.921 46.4903 191.992 50.1741 189.305 47.0817C187.463 44.9695 193.107 42.0292 196.318 42.6882H196.335Z" fill="black"/>
<path d="M177.443 40.1028C172.678 40.2718 169.4 44.5301 171.546 46.1354C173.692 47.7407 174.063 43.8711 177.122 44.1414C180.181 44.3949 180.485 48.197 183.645 45.5947C185.808 43.8204 180.738 39.9845 177.443 40.1028Z" fill="black"/>
<path d="M188.309 55.2944C188.309 55.2944 187.633 61.9016 182.006 61.006C176.379 60.1273 177.815 53.6046 177.815 53.6046" stroke="black" stroke-width="1.65863" stroke-linecap="round" stroke-linejoin="round"/>
<path d="M40.6349 35.777L41.2432 39.6804L39.9759 40.0015C39.79 40.0522 39.5872 40.086 39.4013 40.1367C39.0803 40.2043 38.7592 40.2719 38.4381 40.3057C37.6608 40.4409 36.8835 40.5422 36.1062 40.5929L38.3368 27.2941L40.6349 35.777Z" fill="black"/>
<path d="M122.98 40.9142C122.777 40.9818 122.557 41.0156 122.338 41.0663C122.152 41.1001 121.949 41.1508 121.763 41.1845L120.039 41.4887L119.161 35.963L119.059 35.3209L118.586 32.3468L119.026 28.6461L119.38 25.7058L120.073 28.5954L122.98 40.9142Z" fill="black"/>
<path d="M94.5241 70.9931L85.078 75.7584L83.4051 73.156L82.8813 72.3449L82.2729 71.3986L85.0612 69.4384L86.3285 68.5428H93.5947L93.7975 69.1005L94.5241 70.9931Z" fill="black"/>
<path d="M72.995 71.0603L71.8798 72.8853L70.6293 74.93L69.4802 76.8057L59.5948 74.1696L56.8235 73.4261L60.1355 72.615L71.2883 69.9113L72.995 71.0603Z" fill="black"/>
<path d="M142.937 77.6002L132.088 78.9183L136.38 68.8639L142.937 77.6002Z" fill="#FF6B20"/>
<path d="M178.391 9.19627C180.929 9.19627 182.987 7.13844 182.987 4.59997C182.987 2.0615 180.929 0.00366211 178.391 0.00366211C175.852 0.00366211 173.794 2.0615 173.794 4.59997C173.794 7.13844 175.852 9.19627 178.391 9.19627Z" fill="#4AFFA5"/>
<path d="M22.1544 65.5722L15.6704 62.0736L12.1719 68.5576L18.6558 72.0561L22.1544 65.5722Z" fill="#735FF2"/>
<path d="M51.8227 1.03446L101.47 0.00367198C112.403 -0.216004 121.291 9.44976 121.021 21.2447L120.193 56.4436C120.041 63.2367 115.191 68.8469 108.922 69.4721L53.2422 75.0485C45.638 75.8089 39.0139 69.4721 38.7942 61.2258L37.6113 17.1384C37.3748 8.43587 43.7623 1.20344 51.8227 1.03446Z" fill="#1781FF"/>
<path d="M101.249 38.751C101.13 38.8355 101.029 38.9031 100.911 38.9876C100.877 38.9876 100.877 38.9876 100.86 39.0214C91.4307 45.4258 82.9141 38.3286 81.4946 32.0593C80.0583 25.6887 85.3981 16.192 95.5877 18.1352C96.1791 18.2366 96.7368 18.3887 97.2775 18.5915C105.963 21.4135 110.289 32.2959 101.265 38.7679L101.249 38.751Z" fill="white"/>
<path d="M75.4111 35.9632C75.1914 36.1322 74.9379 36.3181 74.7013 36.487C65.1032 43.3646 56.3668 36.1491 54.9136 29.7785C53.4772 23.4078 58.817 13.9111 69.0066 15.8544C69.277 15.9051 69.5305 15.9557 69.784 16.0402C78.8076 18.3215 83.7587 29.2039 75.3941 35.9463L75.4111 35.9632Z" fill="white"/>
<path d="M84.9421 55.9874C82.796 56.6296 80.5655 56.8999 78.6898 56.6296C77.2196 56.4268 75.5805 55.8861 73.9414 55.1594C68.5171 52.6585 63.4476 47.7411 66.9286 44.0066C71.4574 39.1569 73.3837 45.2064 80.1599 46.6766C86.953 48.1467 90.0116 41.3705 93.0701 46.6766C95.25 50.4786 90.3157 54.399 84.9421 56.0043V55.9874Z" fill="black"/>
<path d="M101.249 38.7512C101.131 38.8357 101.029 38.9033 100.911 38.9878C100.877 38.9878 100.877 38.9878 100.86 39.0216C99.3732 39.6975 97.7172 40.0862 95.9429 40.0862C89.6905 40.0862 84.6211 35.2533 84.6211 29.2882C84.6211 23.3232 89.7074 18.5072 95.9429 18.5072C96.3991 18.5072 96.8385 18.541 97.2778 18.5917C105.963 21.4137 110.289 32.2961 101.266 38.7681L101.249 38.7512Z" fill="black"/>
<path d="M75.4118 35.963C73.6713 37.0107 71.5928 37.619 69.3792 37.619C63.1268 37.619 58.0574 32.7861 58.0574 26.8211C58.0574 20.856 63.1437 16.04 69.3792 16.04C69.5312 16.04 69.6664 16.04 69.8016 16.04C78.8252 18.3213 83.7764 29.2037 75.4118 35.9461V35.963Z" fill="black"/>
<path d="M84.9416 55.9874C82.7956 56.6295 80.565 56.8999 78.6893 56.6295C77.2192 56.4267 75.58 55.886 73.9409 55.1593C75.09 54.1286 77.0502 53.1992 79.6863 53.1485C82.6435 53.064 84.1981 54.7369 84.9416 56.0043V55.9874Z" fill="#FF2222"/>
</svg>
