<svg width="241" height="144" viewBox="0 0 241 144" fill="none" xmlns="http://www.w3.org/2000/svg">
<path d="M191.137 76.8327L165.145 75.5741V23.0745H191.137V76.8327Z" fill="#4D84FF"/>
<path d="M112.705 102.139L150.463 86.635C199.397 60.6426 171.478 1.888 120.733 35.4321C79.4083 -9.21073 38.3316 41.2294 79.6944 78.1107L112.685 102.12" fill="#FF6E5F"/>
<path d="M144.874 65.2191C143.272 67.0689 141.575 68.3275 139.801 69.0712C130.838 72.9424 120.846 63.6935 121.265 55.1692C121.78 45.043 131.849 43.0788 136.331 44.0895H136.35C144.359 45.9012 154.581 53.8152 144.874 65.2191Z" fill="white"/>
<path d="M114.038 61.4244C112.093 63.7128 109.938 65.0859 107.783 65.7342C99.1251 68.3659 89.9906 59.5556 90.4102 51.4127C90.9632 41.2293 101.051 39.3032 105.514 40.333C105.933 40.4284 106.372 40.5428 106.791 40.6953C114.553 43.0028 123.211 50.6689 114.019 61.4435L114.038 61.4244Z" fill="white"/>
<path d="M123.287 84.6896C120.617 85.2617 117.737 85.4715 114.991 85.2045C114.991 85.2045 111.044 84.6324 106.829 83.2594C101.242 81.4477 95.1776 78.2249 96.9702 72.9806C99.3539 66.1727 107.84 72.9044 115.678 74.5062C123.477 76.1081 128.874 68.8234 133.527 74.5062C136.96 78.7207 130.953 83.0877 123.306 84.6896H123.287Z" fill="black"/>
<path d="M123.286 84.6896C120.617 85.2617 117.737 85.4715 114.991 85.2045C114.991 85.2045 111.043 84.6324 106.829 83.2593C108.336 82.4584 111.12 81.3142 114.991 81.3142C118.862 81.3142 121.837 83.3356 123.286 84.6896Z" fill="#FF2222"/>
<path d="M141.442 143.158L132.498 133.128C131.659 132.174 131.354 130.858 131.717 129.657L134.215 120.751C135.359 116.727 133.833 112.418 130.439 109.996L121.61 103.722L116.937 100.385L131.24 94.53L131.335 94.6445L138.315 102.063C143.96 108.051 145.867 116.67 143.292 124.508L142.32 127.483C141.843 128.894 141.824 130.382 142.224 131.793L144.818 140.946C145.39 142.949 143.063 144.474 141.461 143.158H141.442Z" fill="#4ABAFF"/>
<path d="M105.973 97.2186L103.189 101.242L96.0186 111.559C94.3023 114.038 91.4991 115.507 88.5051 115.526L72.7723 115.621C70.7318 115.64 68.7104 116.174 66.8988 117.147L58.0503 121.933C56.6391 123.459 54.1219 122.257 54.4079 120.217L60.2434 111.273C61.6736 109.099 64.0573 107.745 66.6699 107.65L79.2561 107.23C83.032 107.116 86.3883 104.808 87.8758 101.3L93.3298 88.4846L93.5014 88.1031L105.992 97.2186H105.973Z" fill="#4ABAFF"/>
<path d="M198.881 77.4051L194.648 82.573C191.387 86.5396 187.191 89.6861 182.443 91.6694L166.996 98.1723C162.229 99.6788 157.137 97.1425 155.44 92.4703L153.819 87.9507L152.865 85.3382L163.258 77.672L163.678 81.6195L163.869 83.2405C164.155 85.9103 166.634 87.7791 169.265 87.3596L177.809 85.9865C179.945 85.6242 181.375 83.6028 180.955 81.486L180.059 76.8711L198.881 77.4432V77.4051Z" fill="#4ABAFF"/>
<path d="M191.14 23.0745V76.8327L234.276 76.8709C237.537 76.8518 240.188 74.2011 240.188 70.921V28.3187C240.188 25.4201 237.842 23.0745 234.943 23.0745H191.14Z" fill="#C2EEFF"/>
<path d="M224.398 23.0743V36.3661C224.398 38.0824 223.006 39.4745 221.29 39.4745H211.411C209.695 39.4745 208.303 38.0824 208.303 36.3661V23.0743H224.398Z" fill="#FF6B20"/>
<path d="M82.6116 80.2082L78.7595 81.6575L67.451 85.8911C65.1435 86.7492 63.1221 88.1985 61.5584 90.1055L57.916 94.5488C57.1532 95.4833 56.8481 96.6847 57.0769 97.8479L57.3439 99.2972C57.8588 101.891 56.9435 104.58 54.9602 106.334L51.5848 109.309C50.8792 109.919 49.8304 109.996 49.0103 109.481L46.6266 107.917C44.3382 106.41 43.2321 103.683 43.7661 101.014L44.7577 96.1507C45.2154 93.8814 46.7029 91.9553 48.8006 90.9827C49.5443 90.6204 50.2118 90.1055 50.7266 89.4571L54.7885 84.4036C56.4858 82.325 58.45 80.5324 60.6621 79.0449L72.4664 71.15L72.7906 70.9402L82.5735 80.1701L82.6116 80.2082Z" fill="#4ABAFF"/>
<path d="M144.873 65.2193C143.271 67.069 141.574 68.3277 139.801 69.0714C139.496 69.1095 139.21 69.1095 138.904 69.1095C131.296 69.1095 125.098 63.4648 125.098 56.4852C125.098 50.3256 129.922 45.1767 136.33 44.0897H136.349C144.358 45.9014 154.58 53.8154 144.873 65.2193Z" fill="black"/>
<path d="M114.038 61.4245C112.093 63.7129 109.938 65.086 107.783 65.7344C100.651 65.2385 95.0254 59.7845 95.0254 53.1482C95.0254 46.5118 100.136 41.5536 106.811 40.6764C114.572 42.9839 123.23 50.65 114.038 61.4245Z" fill="black"/>
<path d="M191.14 76.8327V23.0745" stroke="black" stroke-width="1.83086" stroke-miterlimit="10" stroke-linecap="round"/>
<path d="M236.238 76.8331C231.528 76.8713 190.222 76.8331 190.222 76.8331L163.944 75.4601" stroke="black" stroke-width="1.83086" stroke-miterlimit="10" stroke-linecap="round"/>
<path d="M41.2296 40.5427H31.9616C30.4134 40.5427 29.1583 41.7978 29.1583 43.346V43.3651C29.1583 44.9133 30.4134 46.1684 31.9616 46.1684H41.2296C42.7778 46.1684 44.0329 44.9133 44.0329 43.3651V43.346C44.0329 41.7978 42.7778 40.5427 41.2296 40.5427Z" fill="#FF6B20"/>
<path d="M39.4176 62.6829H2.80329C1.25507 62.6829 0 63.9379 0 65.4862V65.5052C0 67.0534 1.25507 68.3085 2.80329 68.3085H39.4176C40.9659 68.3085 42.2209 67.0534 42.2209 65.5052V65.4862C42.2209 63.9379 40.9659 62.6829 39.4176 62.6829Z" fill="#FF6B20"/>
<path d="M24.8301 88.9041H14.456C12.9078 88.9041 11.6527 90.1591 11.6527 91.7073V91.7264C11.6527 93.2746 12.9078 94.5297 14.456 94.5297H24.8301C26.3783 94.5297 27.6334 93.2746 27.6334 91.7264V91.7073C27.6334 90.1591 26.3783 88.9041 24.8301 88.9041Z" fill="#FF6B20"/>
<path d="M131.335 94.6445L121.61 103.722L116.937 100.385L131.24 94.53L131.335 94.6445Z" fill="black"/>
<path d="M105.971 97.2187L103.187 101.242L93.3083 88.4847L93.48 88.1033L105.971 97.2187Z" fill="black"/>
<path d="M163.697 81.6003C160.97 83.3357 156.469 86.1962 153.819 87.9316L152.865 85.319L163.258 77.6528L163.678 81.6003H163.697Z" fill="black"/>
<path d="M82.6104 80.2081L78.7582 81.6575L72.5033 71.188L72.8275 70.9783L82.6104 80.2081Z" fill="black"/>
<path d="M57.0009 97.0088C57.0009 97.0088 58.1641 100.88 56.9055 103.626C55.6469 106.372 54.312 106.925 54.312 106.925" stroke="black" stroke-width="1.83086" stroke-miterlimit="10" stroke-linecap="round"/>
<path d="M54.9965 100.671C54.9965 100.671 54.577 104.961 53.1276 106.487C51.6783 108.012 50.4006 109.29 50.4006 109.29" stroke="black" stroke-width="1.83086" stroke-miterlimit="10" stroke-linecap="round"/>
<path d="M50.4016 101.7C50.4016 101.7 47.7508 105.724 47.789 107.517" stroke="black" stroke-width="1.83086" stroke-miterlimit="10" stroke-linecap="round"/>
<path d="M46.3009 100.117C46.3009 100.117 44.4702 102.825 44.7753 105.381" stroke="black" stroke-width="1.83086" stroke-miterlimit="10" stroke-linecap="round"/>
<path d="M206.1 97.8458L199.46 93.6464L195.26 100.287L201.9 104.486L206.1 97.8458Z" fill="#FFD729"/>
<path d="M129.065 0L136.674 8.81033L125.232 11.0034L129.065 0Z" fill="#FF6B20"/>
<path d="M106.83 131.716C109.537 131.716 111.731 129.522 111.731 126.815C111.731 124.109 109.537 121.914 106.83 121.914C104.123 121.914 101.929 124.109 101.929 126.815C101.929 129.522 104.123 131.716 106.83 131.716Z" fill="#4AFFA5"/>
</svg>
