<svg width="242" height="193" viewBox="0 0 242 193" fill="none" xmlns="http://www.w3.org/2000/svg">
<path d="M121.021 192.853H105.038C104.342 192.853 103.762 192.398 103.577 191.762L95.9216 164.731L94.8081 160.802V160.711L105.038 158.78C105.757 158.644 106.453 159.007 106.708 159.643C106.778 159.757 106.801 159.87 106.824 160.007L107.265 162.732L109.191 175.089C109.887 179.519 112.392 183.517 116.127 186.129L121.903 190.15C123.109 190.99 122.506 192.853 121.021 192.853Z" fill="#4ABAFF"/>
<path d="M197.246 111.646C194.486 119.006 188.362 130.818 178.294 133.907C168.226 136.996 161.476 132.839 161.476 132.839V119.574C161.476 119.574 165.071 121.186 169.479 121.436C173.492 121.686 178.201 120.777 181.449 116.462C187.643 108.284 185.323 97.2445 185.253 93.9735C185.23 92.8604 186.158 91.9518 187.295 91.9518C188.431 91.9518 189.313 92.8377 189.313 93.9507L190.635 101.333C190.635 101.333 200.007 104.263 197.246 111.646Z" fill="#4ABAFF"/>
<path d="M169.479 121.436C167.809 124.73 164.723 130.227 161.476 132.748V119.573C161.476 119.573 165.071 121.186 169.479 121.436Z" fill="black"/>
<path d="M106.708 159.643L95.9216 164.731L94.8081 160.802V160.711L105.038 158.78C105.757 158.644 106.453 159.007 106.708 159.643Z" fill="black"/>
<path d="M45.9314 102.787C45.9314 102.787 33.196 77.5501 59.2468 68.2823C85.2976 59.0145 94.4838 84.2284 94.4838 84.2284C94.4838 84.2284 96.85 70.5993 109.585 74.0747C122.321 77.5501 114.619 89.1576 114.619 89.1576C114.619 89.1576 134.453 68.2596 154.589 84.501C174.724 100.742 154.589 118.438 154.589 118.438C154.589 118.438 165.375 116.121 163.543 127.433C161.71 138.745 153.707 133.225 153.707 133.225C153.707 133.225 174.446 142.516 152.222 161.642C129.999 180.768 110.768 156.713 110.768 156.713C110.768 156.713 89.1484 168.888 66.9484 150.92C66.9484 150.92 52.4267 162.232 49.4806 143.084C49.4806 143.084 31.1314 161.642 18.6743 141.062C6.21723 120.482 23.4066 104.241 31.9897 110.033C31.9897 110.033 22.9426 100.424 32.8712 94.6547C42.7997 88.885 45.9082 102.764 45.9082 102.764L45.9314 102.787Z" fill="#FF4DAB"/>
<path d="M95.6187 139.903C95.6187 139.903 90.2832 150.625 87.3372 139.903" stroke="black" stroke-width="1.83086" stroke-miterlimit="10" stroke-linecap="round"/>
<path d="M131.854 124.912C130.88 128.432 128.607 131.408 125.568 133.702C118.052 139.449 108.216 138.859 101.442 132.18C95.1095 125.888 93.3697 114.644 100.074 107.444C100.491 106.989 100.955 106.558 101.442 106.126C105.061 103.059 109.214 101.651 113.134 101.492C116.126 101.674 119.281 102.514 122.343 104.036C123.295 104.513 124.176 105.013 125.034 105.581C125.22 105.74 125.405 105.899 125.591 106.126C131.831 113.236 133.293 119.642 131.878 124.889L131.854 124.912Z" fill="white"/>
<path d="M91.6064 116.688C91.6064 116.961 91.6064 117.234 91.5832 117.461C91.56 117.711 91.56 117.938 91.5136 118.188C91.4904 118.46 91.444 118.733 91.3976 118.983C91.328 119.573 91.212 120.141 91.096 120.709C88.9387 129.84 80.8891 135.406 71.3549 134.361C61.8207 133.316 52.7505 124.73 54.6527 114.144C55.1167 111.646 55.9518 109.442 57.1812 107.511C60.4057 102.264 65.9267 99.3112 70.8214 99.1295C73.8603 99.2885 77.1311 100.106 80.2396 101.674C87.1756 105.172 91.5136 111.191 91.6064 116.666V116.688Z" fill="white"/>
<path d="M131.855 124.912C127.981 130.227 118.749 131.272 110.374 127.092C101.397 122.595 96.7806 113.827 100.075 107.466C100.492 107.012 100.956 106.58 101.443 106.149C105.062 103.082 109.214 101.674 113.135 101.515C116.127 101.697 119.282 102.537 122.344 104.059C123.295 104.536 124.177 105.036 125.035 105.604C125.221 105.763 125.406 105.922 125.592 106.149C131.832 113.259 133.294 119.664 131.878 124.912H131.855Z" fill="black"/>
<path d="M91.6056 116.688C91.6056 116.961 91.6056 117.234 91.5824 117.461C91.5592 117.711 91.5592 117.938 91.5128 118.188C91.4896 118.46 91.4432 118.733 91.3968 118.983C91.2112 119.778 90.9328 120.573 90.5385 121.3C87.2444 127.66 77.2927 129.182 68.292 124.707C60.4049 120.777 55.8582 113.531 57.1804 107.534C60.4049 102.287 65.9259 99.334 70.8206 99.1522C73.8594 99.3112 77.1303 100.129 80.2388 101.696C87.1748 105.194 91.5128 111.214 91.6056 116.688Z" fill="black"/>
<path d="M240.187 10.8127V13.4704H133.293V10.8127C133.293 6.49685 136.842 3.02142 141.227 3.02142H232.254C236.638 3.02142 240.187 6.49685 240.187 10.8127Z" fill="#4ABAFF"/>
<path d="M240.187 13.4706V63.6712C240.187 67.9644 236.638 71.4625 232.254 71.4625H141.227C136.842 71.4625 133.293 67.9644 133.293 63.6712V13.4706H240.187Z" fill="#C2EEFF"/>
<path d="M214.205 24.3967H155.747C152.711 24.3967 150.249 26.807 150.249 29.7802C150.249 32.7535 152.711 35.1637 155.747 35.1637H214.205C217.241 35.1637 219.703 32.7535 219.703 29.7802C219.703 26.807 217.241 24.3967 214.205 24.3967Z" fill="#4ABAFF"/>
<path d="M211.955 30.5295L211.027 32.3467M214.577 28.7577C214.577 29.7572 213.741 30.5749 212.721 30.5749C211.7 30.5749 210.865 29.7572 210.865 28.7577C210.865 27.7582 211.7 26.9405 212.721 26.9405C213.741 26.9405 214.577 27.7582 214.577 28.7577Z" stroke="white" stroke-width="1.83086" stroke-linecap="round" stroke-linejoin="round"/>
<path d="M195.182 60.9906H178.295V44.454H195.182V60.9906ZM178.295 44.454L195.182 60.9906ZM178.295 60.9906L194.811 44.8174Z" fill="#FF6B20"/>
<path d="M195.182 60.9906H178.295M195.182 60.9906V44.454H178.295M195.182 60.9906L178.295 44.454M178.295 60.9906V44.454M178.295 60.9906L194.811 44.8174" stroke="black" stroke-width="1.83086" stroke-linecap="round" stroke-linejoin="round"/>
<path d="M169.921 60.9906H153.033V44.454H169.921V60.9906ZM153.033 44.454L169.921 60.9906ZM153.033 60.9906L169.55 44.8174Z" fill="#4AFFA5"/>
<path d="M169.921 60.9906H153.033M169.921 60.9906V44.454H153.033M169.921 60.9906L153.033 44.454M153.033 60.9906V44.454M153.033 60.9906L169.55 44.8174" stroke="black" stroke-width="1.83086" stroke-linecap="round" stroke-linejoin="round"/>
<path d="M219.309 60.9906H202.422V44.454H219.309V60.9906ZM202.422 44.454L219.309 60.9906ZM202.422 60.9906L218.938 44.8174Z" fill="#FFD729"/>
<path d="M219.309 60.9906H202.422M219.309 60.9906V44.454H202.422M219.309 60.9906L202.422 44.454M202.422 60.9906V44.454M202.422 60.9906L218.938 44.8174" stroke="black" stroke-width="1.83086" stroke-linecap="round" stroke-linejoin="round"/>
<path d="M85.5048 159.688C86.4095 159.984 86.7806 161.074 86.2239 161.824L84.4145 164.345L77.0841 174.544C73.6972 179.224 67.2483 180.632 62.1681 177.77L52.3323 172.205C51.6596 171.841 50.8245 172.023 50.4069 172.659L46.8577 177.997C46.0458 179.224 44.074 178.565 44.2132 177.088L45.4195 164.822C45.6978 161.846 49.0151 160.188 51.6596 161.687L61.5881 167.343C64.7198 169.138 68.733 167.98 70.38 164.822L74.3468 157.235C74.6715 156.622 75.4139 156.327 76.0866 156.531L85.528 159.643L85.5048 159.688Z" fill="#4ABAFF"/>
<path d="M193.033 159.751L184.955 154.749L179.847 162.658L187.925 167.66L193.033 159.751Z" fill="#FFD729"/>
<path d="M5.96177 77.3003C9.25436 77.3003 11.9235 74.6866 11.9235 71.4625C11.9235 68.2383 9.25436 65.6247 5.96177 65.6247C2.66917 65.6247 0 68.2383 0 71.4625C0 74.6866 2.66917 77.3003 5.96177 77.3003Z" fill="#4AFFA5"/>
<path d="M107.519 54.9712L94.552 49.3833L105.988 41.1831L107.519 54.9712Z" fill="#FF6B20"/>
<path d="M76.8064 37.1172L76.7368 37.2308C76.7368 37.2308 76.0408 37.6851 74.8114 38.2302C74.7882 38.253 74.765 38.253 74.7418 38.253C72.3292 39.3433 67.9449 40.8198 62.4703 40.4109C62.3311 40.4109 62.1687 40.3882 62.0295 40.3655C61.7048 40.3428 61.38 40.32 61.032 40.2746C58.5035 40.1383 52.8897 35.7997 54.5135 27.8267C56.1374 19.8309 65.4628 13.4707 74.9506 20.7168C83.8352 27.5087 77.6183 36.095 76.8064 37.1172Z" fill="#FFED71"/>
<path d="M72.8862 38.8206L71.1 33.3235C71.1 33.3235 74.5565 31.0747 73.4662 27.8719C72.3759 24.669 68.8731 24.3964 68.8731 29.4165C68.8731 29.4165 64.8831 23.5105 64.7671 30.575C64.7671 30.575 62.1226 25.7366 59.8492 29.5982C57.5759 33.4598 63.3752 34.4366 64.9527 34.8227L66.9245 40.3425" stroke="black" stroke-width="1.83086" stroke-linecap="round" stroke-linejoin="round"/>
<path d="M85.2968 24.3968L92.2328 20.4216" stroke="black" stroke-width="1.83086" stroke-linecap="round" stroke-linejoin="round"/>
<path d="M76.7382 13.4708L79.6842 6.79254" stroke="black" stroke-width="1.83086" stroke-linecap="round" stroke-linejoin="round"/>
<path d="M74.1838 45.0901L68.9875 46.4075C68.9875 46.4075 70.6578 51.6548 72.7919 50.9506C74.9261 50.2464 74.1838 45.0673 74.1838 45.0673V45.0901Z" fill="black"/>
<path d="M64.278 7.95086L62.515 1" stroke="black" stroke-width="1.83086" stroke-linecap="round" stroke-linejoin="round"/>
<path d="M52.1487 20.4213L43.8672 16.0827" stroke="black" stroke-width="1.83086" stroke-linecap="round" stroke-linejoin="round"/>
<path d="M76.8055 37.1169L76.7823 37.0715C76.7823 37.0715 76.04 37.5939 74.8105 38.23C74.7873 38.2527 74.7641 38.2527 74.7409 38.2527C72.3284 39.343 67.9441 40.8195 62.4694 40.4106C62.3303 40.3879 62.1679 40.3652 62.0287 40.3198V40.3652C62.4926 43.9088 64.1861 44.4539 65.6939 44.4312C66.297 46.68 67.4337 47.2706 68.4776 47.157C70.2174 46.9753 73.2099 46.4983 75.0193 45.3398C76.0864 44.6584 76.0632 42.9775 75.8544 41.7508C77.7334 40.2743 76.9215 37.4577 76.8055 37.1169Z" fill="#4ABAFF"/>
<path d="M47.9957 32.0061L40.5957 32.1196" stroke="black" stroke-width="1.83086" stroke-linecap="round" stroke-linejoin="round"/>
<path d="M87.3383 160.279L84.4154 164.345C81.5853 163.073 75.5539 159.938 74.9044 156.168L87.3383 160.279Z" fill="black"/>
<path d="M184.582 112.236C184.582 112.236 185.672 113.758 187.899 110.692C188.409 109.988 190.984 111.668 192.051 111.146C192.26 111.032 192.446 110.487 192.353 110.283C191.958 109.238 188.618 107.739 188.618 107.739" stroke="black" stroke-width="1.83086" stroke-miterlimit="10" stroke-linecap="round"/>
<path d="M190.243 102.446C190.243 102.446 188.735 104.808 188.804 105.558C188.874 106.308 189.477 106.648 190.104 106.103C190.73 105.558 192.516 103.673 192.516 103.673C192.516 103.673 191.124 105.672 191.031 106.648C190.939 107.625 191.936 108.238 192.586 107.739C193.235 107.239 195.323 105.99 195.323 105.99C195.323 105.99 193.467 107.648 193.142 108.852C192.818 110.056 193.537 110.737 194.325 110.305C195.114 109.874 196.599 108.625 196.599 108.625" stroke="black" stroke-width="1.83086" stroke-linecap="round" stroke-linejoin="round"/>
<path d="M75.8542 41.751C75.8542 41.751 70.9132 44.545 65.6937 44.4314" stroke="black" stroke-width="1.83086" stroke-linecap="round" stroke-linejoin="round"/>
<path d="M240.187 13.4706H133.293" stroke="black" stroke-width="1.83086" stroke-linecap="round" stroke-linejoin="round"/>
<path d="M114.085 154.305C114.085 154.305 104.087 163.187 87.3385 160.279C70.5899 157.372 64.7905 148.104 64.7905 148.104" stroke="black" stroke-width="1.83086" stroke-miterlimit="10" stroke-linecap="round"/>
<path d="M161.478 132.839C161.478 132.839 165.654 125.138 162.963 121.3C160.272 117.461 152.594 116.847 149.532 122.004" stroke="black" stroke-width="1.83086" stroke-miterlimit="10" stroke-linecap="round"/>
</svg>
