<svg width="241" height="203" viewBox="0 0 241 203" fill="none" xmlns="http://www.w3.org/2000/svg">
<path d="M92.4894 16.0718L82.0667 10.448L76.4429 20.8707L86.8656 26.4945L92.4894 16.0718Z" fill="#FFD729"/>
<path d="M238.527 156.596L221.086 158.736L227.978 142.563L238.527 156.596Z" fill="#FF6B20"/>
<path d="M44.6083 172.992C48.7031 172.992 52.0227 169.673 52.0227 165.578C52.0227 161.483 48.7031 158.163 44.6083 158.163C40.5134 158.163 37.1938 161.483 37.1938 165.578C37.1938 169.673 40.5134 172.992 44.6083 172.992Z" fill="#4AFFA5"/>
<path d="M175.903 202.376H154.481C152.938 202.376 151.67 201.157 151.62 199.614L150.55 168.837L150.202 158.984L149.629 142.314C149.58 140.697 150.873 139.354 152.491 139.354H160.303C161.821 139.354 163.09 140.523 163.164 142.041L164.284 160.925L164.458 163.861L165.752 185.432C165.926 188.194 167.27 190.732 169.459 192.399L177.247 198.37C178.963 199.664 178.043 202.376 175.903 202.376Z" fill="#FFED71"/>
<path d="M143.36 142.264L142.986 161.771L142.862 169.384L142.29 199.589C142.24 201.132 140.996 202.376 139.453 202.401L118.031 202.724C115.892 202.774 114.946 200.062 116.613 198.743L124.326 192.648C126.491 190.956 127.784 188.393 127.909 185.631L128.78 166.15L128.954 161.771L129.825 142.215C129.899 140.697 131.118 139.503 132.636 139.478L140.449 139.353C142.066 139.328 143.385 140.647 143.36 142.264Z" fill="#FFED71"/>
<path d="M164.461 163.861L150.553 168.837L150.204 158.984L164.287 160.925L164.461 163.861Z" fill="black"/>
<path d="M142.988 161.771L142.863 169.384L128.781 166.15L128.955 161.771H142.988Z" fill="black"/>
<path d="M237.682 98.7236L224.993 104.123L218.848 108.576C211.582 113.801 201.829 113.826 194.514 108.676L182.771 100.366L181.303 99.3208L179.088 97.7533L180.631 85.8604L181.626 78.222L188.369 84.9896L198.52 95.1408C203.322 99.9179 213.249 100.291 218.947 96.6585L221.982 90.1647C223.625 88.0996 225.914 86.6565 228.476 86.0843L235.368 86.7561C237.135 86.358 238.478 87.3283 239.15 89.0202L239.623 90.1647C240.767 93.026 240.195 96.9073 237.682 98.7236Z" fill="#FFED71"/>
<path d="M106.338 95.3649L104.546 97.0816L104.074 97.5295L84.7415 116.016C79.8152 120.718 71.9032 120.171 67.6735 114.821L54.437 98.0022C53.0686 96.2606 52.0485 94.2701 51.4514 92.1553L48.9882 83.2232C48.192 80.3868 49.66 77.3762 52.3968 76.2566L59.0151 84.1935L57.3232 80.4117C57.4973 78.4212 60.1347 77.8241 61.1299 79.5409C62.4237 81.7801 63.4189 84.2433 63.0955 85.6117L62.1998 89.6672L74.018 103.65C75.9587 105.939 79.4917 105.864 81.3329 103.526L99.4459 80.3122L105.168 72.9475L105.616 81.6059L106.338 95.3649Z" fill="#FFED71"/>
<path d="M105.617 81.6059L104.547 97.0816L104.423 98.7984L104.074 97.5295L99.4465 80.3122L105.169 72.9475L105.617 81.6059Z" fill="black"/>
<path d="M182.771 100.366L188.369 84.9896L181.626 78.222L180.631 85.8604L181.303 99.3207L182.771 100.366Z" fill="black"/>
<path d="M149.531 0.196849C175.904 2.80931 187.349 31.5463 184.737 70.6586C182.124 109.771 181.005 162.07 181.005 162.07L107.557 165.802C107.557 165.802 103.9 92.2798 103.477 72.9973C103.054 53.7149 109.523 -3.78404 149.531 0.196849Z" fill="#4DFFBF"/>
<path d="M146.868 66.0557C145.052 70.36 141.22 72.873 137.016 73.5447C129.875 74.7141 121.739 70.584 120.893 60.9801C119.549 45.7283 128.88 41.9216 135.647 41.6976C136.394 41.6728 137.115 41.6976 137.812 41.822C147.465 43.0909 151.421 55.1829 146.868 66.0557Z" fill="white"/>
<path d="M179.636 68.3942C177.77 72.8229 173.789 75.3359 169.46 75.933C162.393 76.9282 154.481 72.7483 153.66 63.3186C152.317 48.0668 161.647 44.2601 168.415 44.0361C169.111 44.0361 169.783 44.0361 170.43 44.1357C180.208 45.305 184.214 57.4716 179.636 68.3942Z" fill="white"/>
<path d="M133.011 31.5216C147.442 31.845 158.116 56.0787 144.605 75.9831C131.095 95.8876 105.269 74.3659 109.499 54.2126C113.729 34.0594 123.681 31.2976 133.011 31.5216Z" stroke="black" stroke-width="1.83086" stroke-linecap="round" stroke-linejoin="round"/>
<path d="M174.735 32.367C189.166 32.6905 199.839 56.9241 186.329 76.8286C172.819 96.733 146.993 75.2113 151.223 55.0581C155.452 34.9048 165.405 32.1431 174.735 32.367Z" stroke="black" stroke-width="1.83086" stroke-linecap="round" stroke-linejoin="round"/>
<path d="M109.05 56.3027H97.4561" stroke="black" stroke-width="1.83086" stroke-linecap="round" stroke-linejoin="round"/>
<path d="M192.55 56.3027H195.834" stroke="black" stroke-width="1.83086" stroke-linecap="round" stroke-linejoin="round"/>
<path d="M142.242 87.1044C142.242 87.1044 143.113 92.9015 149.557 93.225C156.001 93.5484 156.698 87.1044 156.698 87.1044" stroke="black" stroke-width="1.83086" stroke-linecap="round" stroke-linejoin="round"/>
<path d="M230.02 117.508L228.154 108.477L224.173 89.3188L223.551 86.358C218.177 84.1187 213.002 74.5895 211.135 62.5722C208.896 48.1912 212.255 35.7261 218.625 34.7557C224.994 33.7605 231.96 44.6333 234.175 59.0143C236.041 71.1062 233.951 81.8297 229.448 85.5121L230.119 88.8958L233.578 106.238L235.618 116.414C235.867 117.782 235.12 119.101 233.926 119.623C233.677 119.723 233.379 119.822 233.105 119.847C231.637 119.996 230.293 119.001 229.995 117.558L230.02 117.508Z" fill="#184995"/>
<path d="M225.68 80.2549C230.052 79.578 232.239 70.2557 230.563 59.4329C228.888 48.6101 223.985 40.3853 219.613 41.0622C215.24 41.7391 213.054 51.0614 214.729 61.8842C216.404 72.707 221.307 80.9318 225.68 80.2549Z" fill="#C2EEFF"/>
<path d="M0.17213 60.0595L14.1799 104.745C15.1005 107.83 18.2354 109.646 21.3704 108.95L57.3228 100.864L86.8062 91.1104C88.5727 90.7123 89.6426 88.8961 89.145 87.1544L76.1822 42.3197C75.6348 40.4039 73.719 39.2096 71.7535 39.5331L44.5839 49.4106L3.60565 54.2126C0.993189 54.7848 -0.574286 57.4719 0.197011 60.0346L0.17213 60.0595Z" fill="#184995"/>
<path d="M57.3234 98.6991C57.3234 98.6991 31.9203 99.9183 18.037 106.387L2.56128 56.7505L40.8027 49.4108L57.3234 98.6991Z" fill="#6EDDFF"/>
<path d="M57.3218 98.1268C57.3218 98.1268 35.8748 94.4942 20.0259 102.605L4.99805 54.6356C4.99805 54.6356 24.6786 42.4192 44.2347 48.1417L57.3218 98.1268Z" fill="#6EDDFF"/>
<path d="M57.3233 98.1267C57.3233 98.1267 46.2017 89.3439 22.2666 98.1267L7.46265 50.58C7.46265 50.58 28.0886 38.6125 44.2361 48.1417L57.3233 98.1267Z" fill="#C2EEFF"/>
<path d="M7.46265 50.58L22.2915 98.1267C46.4256 88.9209 57.3482 98.1267 57.3482 98.1267" stroke="black" stroke-width="1.83086" stroke-linecap="round" stroke-linejoin="round"/>
<path d="M57.3228 98.6988C57.3228 98.6988 76.3316 89.493 86.8809 88.7715L72.1019 41.6726L44.5591 49.4105L57.3228 98.6988Z" fill="#6EDDFF"/>
<path d="M57.3233 98.6988C57.3233 98.6988 70.933 88.05 86.4087 86.9055L72.1024 41.6726L44.6094 50.3559L57.2985 98.6988H57.3233Z" fill="#6EDDFF"/>
<path d="M44.0356 48.1414C44.0356 48.1414 55.6549 35.3528 71.9267 37.2686L86.1335 84.7158C86.1335 84.7158 67.7219 87.1292 57.0233 97.1561L44.0356 48.1165V48.1414Z" fill="#C2EEFF"/>
<path d="M57.3247 98.1262C57.3247 98.1262 61.2309 88.7214 86.1115 84.7405L71.9047 37.2933C71.9047 37.2933 57.8472 35.2531 44.0136 48.1661C44.0136 48.1661 31.0259 38.8608 7.68799 50.2809" stroke="black" stroke-width="1.83086" stroke-linecap="round" stroke-linejoin="round"/>
<path d="M44.0356 48.1417L57.0233 97.2062" stroke="black" stroke-width="1.83086" stroke-linecap="round" stroke-linejoin="round"/>
<path d="M179.638 68.3942C177.772 72.8229 173.791 75.3358 169.461 75.933C162.619 75.1866 157.27 68.3693 157.27 60.0592C157.27 51.7491 163.142 44.3098 170.432 44.1356C180.21 45.305 184.216 57.4716 179.638 68.3942Z" fill="black"/>
<path d="M146.867 66.0557C145.051 70.36 141.219 72.8729 137.014 73.5447C130.346 72.5993 125.196 65.8815 125.196 57.7207C125.196 49.5599 130.769 42.3196 137.81 41.822C147.464 43.0909 151.42 55.1829 146.867 66.0557Z" fill="black"/>
<path d="M224.994 95.4145C224.994 95.4145 228.9 93.9714 228.353 91.3092C227.805 88.647 232.806 89.045 232.856 86.9302C232.906 84.8153 230.816 85.7857 227.656 86.5321C227.656 86.5321 220.117 87.3532 219.794 96.0365" fill="#FFED71"/>
<path d="M224.994 95.4145C224.994 95.4145 228.9 93.9714 228.353 91.3092C227.805 88.647 232.806 89.045 232.856 86.9302C232.906 84.8153 230.816 85.7857 227.656 86.5321C227.656 86.5321 220.117 87.3532 219.794 96.0365" stroke="black" stroke-width="1.83086" stroke-linecap="round" stroke-linejoin="round"/>
<path d="M236.936 89.2936C236.936 89.2936 229.546 90.1395 229.82 91.9558C230.093 93.7721 237.732 91.7568 237.732 91.7568C237.732 91.7568 229.347 93.1998 229.869 95.2649C230.392 97.33 238.03 94.0707 238.03 94.0707C238.03 94.0707 230.118 96.285 230.566 98.2008C231.014 100.117 237.981 96.4841 237.981 96.4841" fill="#FFED71"/>
<path d="M236.936 89.2936C236.936 89.2936 229.546 90.1395 229.82 91.9558C230.093 93.7721 237.732 91.7568 237.732 91.7568C237.732 91.7568 229.347 93.1998 229.869 95.2649C230.392 97.33 238.03 94.0707 238.03 94.0707C238.03 94.0707 230.118 96.285 230.566 98.2008C231.014 100.117 237.981 96.4841 237.981 96.4841" stroke="black" stroke-width="1.83086" stroke-linecap="round" stroke-linejoin="round"/>
<path d="M16.4441 65.1349C16.4441 65.1349 18.6585 61.2784 22.7389 62.5224C26.8193 63.7665 27.914 60.2334 31.9944 61.4277C36.0748 62.622 38.9361 59.1884 42.6184 61.7014" stroke="black" stroke-width="1.83086" stroke-miterlimit="10" stroke-linecap="round"/>
<path d="M42.6445 68.7426C42.6445 68.7426 37.6684 66.2545 35.9765 68.7923C34.2846 71.3301 32.12 66.0804 29.3831 68.6182C26.6463 71.156 23.0386 67.7971 19.7046 70.2105" stroke="black" stroke-width="1.83086" stroke-miterlimit="10" stroke-linecap="round"/>
<path d="M75.3864 67.0506C75.3864 67.0506 69.7136 65.085 69.5643 68.3195C69.4151 71.5539 64.7873 65.9061 63.6925 69.3147C62.5978 72.7233 57.7212 69.5386 56.0542 72.9224" stroke="black" stroke-width="1.83086" stroke-miterlimit="10" stroke-linecap="round"/>
<path d="M59.0146 79.8392C59.0146 79.8392 59.8108 76.6793 62.9209 77.2765C66.031 77.8736 66.1056 75.0621 69.1908 75.6095C72.276 76.1568 73.6195 73.2458 76.6798 74.8879" stroke="black" stroke-width="1.83086" stroke-miterlimit="10" stroke-linecap="round"/>
</svg>
