<svg width="241" height="175" viewBox="0 0 241 175" fill="none" xmlns="http://www.w3.org/2000/svg">
<path d="M89.5842 172.201L74.9265 172.482C72.5951 172.546 70.6307 170.755 70.458 168.402L67.6948 128.336L76.9341 127.688L77.0205 129.609L77.0636 130.365L78.1214 152.967C78.2941 156.162 79.6757 159.184 82.0071 161.386L90.5988 169.459C91.6134 170.431 90.9658 172.158 89.5626 172.179L89.5842 172.201Z" fill="#FFD4A1"/>
<path d="M63.2289 172.632L49.8665 170.862C47.0386 170.495 44.9878 167.97 45.2252 165.099L48.4201 125.098V124.687L52.6512 125.033L57.681 125.443L57.5947 126.479L56.9255 133.042L55.0474 152.125C54.7452 155.19 55.6087 158.234 57.5083 160.673L64.8048 169.956C65.733 171.121 64.7616 172.805 63.2721 172.632H63.2289Z" fill="#FFD4A1"/>
<path d="M77.0221 129.653L67.8691 130.883L68.1498 134.92L77.0869 130.387L77.0221 129.653Z" fill="black"/>
<path d="M57.5502 126.501L56.9026 133.063L48.3972 125.119L48.4404 124.709L52.6283 125.054L57.5502 126.501Z" fill="black"/>
<path d="M111.517 88.9395C111.172 90.3427 110.826 91.7242 110.459 93.0411C109.25 97.7255 107.998 101.849 106.681 105.475C98.0897 129.567 87.512 131.812 66.8099 130.905C40.4952 129.2 29.5289 103.122 28.5791 89.5439C28.3632 86.4138 28.2768 82.1395 28.4927 77.2177C28.7302 71.6698 29.3778 65.3016 30.673 58.847C33.1987 46.3912 38.1853 33.59 47.5758 25.8402C66.1191 10.4918 83.2593 18.0473 83.2593 18.0473C106.401 24.7609 121.21 49.2839 111.495 88.9611L111.517 88.9395Z" fill="#DB73FF"/>
<path d="M79.9135 65.0421C77.6685 75.3607 72.3796 82.2902 61.9746 80.7359C61.7156 80.6928 61.4781 80.6496 61.2407 80.5848C51.3969 78.5988 48.1373 66.4452 52.1525 53.8815C56.2325 41.0156 65.5365 41.8359 69.7244 42.1813C74.5815 42.5698 77.5821 45.0092 79.2228 48.5063C81.3167 52.9964 81.1656 59.2351 79.9135 65.0637V65.0421Z" fill="white"/>
<path d="M112.619 65.2579C110.978 75.6845 106.078 82.9377 95.6083 81.9879C94.7017 81.9016 93.8382 81.7289 93.0395 81.4914C84.4478 78.9225 81.1881 67.7188 84.2535 55.7595C87.5995 42.6561 96.9036 42.9368 101.091 43.0231C106.1 43.131 109.251 45.5056 111.065 49.0675C113.288 53.4281 113.504 59.4941 112.619 65.2579Z" fill="white"/>
<path d="M75.5763 83.6069C75.5763 83.6069 74.8855 88.8957 78.7064 88.9605C82.5274 89.0252 82.7001 83.1104 82.7001 83.1104" stroke="black" stroke-width="1.83086" stroke-miterlimit="10" stroke-linecap="round"/>
<path d="M117.197 70.5255C117.197 70.5255 130.214 66.9852 154.262 77.2607L168.51 82.4416L127.667 64.9128C127.667 64.9128 120.09 65.8843 117.197 70.5255Z" fill="black"/>
<path d="M126.307 63.7036C126.307 63.7036 108.109 71.6693 105.972 96.5592C103.857 121.449 131.315 123.565 124.645 137.661C117.241 153.29 127.451 172.827 143.447 172.999C159.443 173.172 159.076 161.904 171.662 168.272C184.247 174.64 197.631 174.143 197.631 174.143C197.631 174.143 231.35 168.833 231.178 169.481C231.178 169.481 208.317 165.53 201.754 160.004C195.192 154.499 188.198 148.8 179.8 150.441C171.403 152.081 151.391 155.384 155.061 146.836C158.731 138.287 167.949 129.76 155.299 116.355C142.649 102.949 158.602 80.9733 166.74 78.4908L126.329 63.682L126.307 63.7036Z" fill="#9FE8FF"/>
<path d="M146.295 102.647C146.295 102.647 140.791 96.9478 138.157 100.337C135.524 103.726 134.099 94.7027 130.148 97.7033C126.198 100.704 122.614 94.163 117.973 96.7535" stroke="black" stroke-width="1.83086" stroke-miterlimit="10" stroke-linecap="round"/>
<path d="M154.454 128.854C154.454 128.854 148.993 124.99 148.108 128.487C147.223 131.984 143.682 124.385 141.761 127.796C139.84 131.207 135.501 126.22 132.997 129.415" stroke="black" stroke-width="1.83086" stroke-miterlimit="10" stroke-linecap="round"/>
<path d="M122.572 108.109C123.112 111.671 116.269 114.628 113.462 112.362L106.684 105.454L106.554 105.303C103.208 101.913 97.8979 101.395 93.9907 104.137L78.9876 114.607C69.0359 120.759 55.9541 117.931 49.4348 108.195L28.5168 77.1746C28.7543 71.6267 29.4019 65.2585 30.6971 58.804L56.7097 97.2723C62.0633 105.216 73.1807 106.641 80.3692 100.359L86.3056 95.1351C91.5297 90.6018 98.7398 89.1339 105.281 91.2926L110.418 92.998L111.325 93.2786C115.621 94.7034 121.385 98.0062 121.709 102.54L122.572 108.066V108.109Z" fill="#FFD4A1"/>
<path d="M118.276 69.2519C118.276 69.2519 129.479 57.6596 135.222 76.0951L173.344 88.2486C173.344 88.2486 175.805 80.7795 167.883 77.196C167.883 77.196 138.265 63.3155 131.401 62.5167C124.536 61.718 118.276 69.2303 118.276 69.2303V69.2519Z" fill="#C2EEFF"/>
<path d="M151.585 99.5386C151.585 99.5386 137.898 104.957 138.244 112.275C138.589 119.593 144.072 118.104 149.124 114.714C154.175 111.325 160.176 101.179 151.585 99.517V99.5386Z" fill="#FFD4A1"/>
<path d="M120.456 50.3848C122.184 50.3848 123.586 48.9834 123.586 47.2546C123.586 45.5259 122.184 44.1245 120.456 44.1245C118.727 44.1245 117.325 45.5259 117.325 47.2546C117.325 48.9834 118.727 50.3848 120.456 50.3848Z" fill="#C2EEFF"/>
<path d="M147.828 47.9885C147.828 47.9885 133.257 32.7264 150.44 13.2116C167.624 -6.30314 210.431 -0.323499 224.053 14.9386C237.674 30.1791 232.925 59.9262 199.033 62.9053C165.141 65.8843 147.828 47.9885 147.828 47.9885Z" fill="#C2EEFF"/>
<path d="M132.998 46.2182C135.478 46.2182 137.489 44.2079 137.489 41.728C137.489 39.2482 135.478 37.2379 132.998 37.2379C130.519 37.2379 128.508 39.2482 128.508 41.728C128.508 44.2079 130.519 46.2182 132.998 46.2182Z" fill="#C2EEFF"/>
<path d="M163.867 44.6209L180.014 29.6178L191.239 34.4317L207.753 19.1049V46.9955L164.147 45.398C163.759 45.398 163.586 44.9015 163.867 44.6425V44.6209Z" fill="#5DCA3D"/>
<path d="M164.233 14.7657L163.089 45.3332L214.855 47.2544" stroke="black" stroke-width="1.83086" stroke-miterlimit="10" stroke-linecap="round"/>
<path d="M79.9145 65.0422C77.6695 75.3609 72.3806 82.2904 61.9756 80.7361C61.7166 80.6929 61.4791 80.6498 61.2416 80.585C53.9884 77.4765 51.0741 67.5248 54.7007 58.0264C58.3921 48.3554 67.5019 42.8507 75.0143 45.7218C76.6117 46.3478 78.0149 47.276 79.2022 48.4849C81.2961 52.975 81.145 59.2137 79.8929 65.0422H79.9145Z" fill="black"/>
<path d="M112.62 65.258C110.979 75.6846 106.079 82.9379 95.6094 81.9881C94.7028 81.9017 93.8393 81.729 93.0406 81.4916C86.3701 78.0592 83.8013 68.4314 87.2768 59.3216C90.9682 49.6505 100.078 44.1458 107.59 46.9953C108.886 47.4918 110.051 48.2042 111.066 49.0893C113.289 53.4499 113.505 59.5159 112.62 65.2796V65.258Z" fill="black"/>
<path d="M240.187 94.5477L231.144 89.6683L226.264 98.7114L235.308 103.591L240.187 94.5477Z" fill="#FFD729"/>
<path d="M15.1542 149.318L0 151.153L5.97964 137.122L15.1542 149.318Z" fill="#FF6B20"/>
<path d="M109.553 12.8659C113.106 12.8659 115.986 9.9858 115.986 6.43297C115.986 2.88014 113.106 0 109.553 0C106 0 103.12 2.88014 103.12 6.43297C103.12 9.9858 106 12.8659 109.553 12.8659Z" fill="#4AFFA5"/>
<path d="M120.369 84.9025C120.369 84.9025 123.564 81.9019 126.931 84.4492C130.299 86.9965 132.371 83.9527 135.782 86.4352C139.193 88.9177 142.841 86.5431 145.453 90.1914" stroke="black" stroke-width="1.83086" stroke-miterlimit="10" stroke-linecap="round"/>
<path d="M131.249 139.993C131.249 139.993 133.429 136.949 136.624 138.655C139.819 140.36 141.049 137.424 144.266 139.108C147.482 140.792 150.138 138.18 152.858 140.964" stroke="black" stroke-width="1.83086" stroke-miterlimit="10" stroke-linecap="round"/>
<path d="M120.499 101.956C120.499 101.956 119.333 99.4306 117.973 98.9125" stroke="black" stroke-width="1.83086" stroke-miterlimit="10" stroke-linecap="round"/>
<path d="M121.255 108.756C121.255 108.756 119.42 105.022 117.456 103.856" stroke="black" stroke-width="1.83086" stroke-miterlimit="10" stroke-linecap="round"/>
<path d="M118.943 110.98C118.943 110.98 115.748 105.648 114.539 106.015" stroke="black" stroke-width="1.83086" stroke-miterlimit="10" stroke-linecap="round"/>
<path d="M115.426 112.21C115.426 112.21 112.036 107.742 110.936 107.051" stroke="black" stroke-width="1.83086" stroke-miterlimit="10" stroke-linecap="round"/>
<path d="M140.791 108.152L145.108 105.993" stroke="black" stroke-width="1.83086" stroke-miterlimit="10" stroke-linecap="round"/>
<path d="M139.043 111.563C139.043 111.563 142.713 110.311 143.706 109.857" stroke="black" stroke-width="1.83086" stroke-miterlimit="10" stroke-linecap="round"/>
<path d="M139.56 114.283C139.56 114.283 144.137 113.225 144.784 112.232" stroke="black" stroke-width="1.83086" stroke-miterlimit="10" stroke-linecap="round"/>
<path d="M141.375 116.592C141.375 116.592 144.461 116.139 145.757 114.995" stroke="black" stroke-width="1.83086" stroke-miterlimit="10" stroke-linecap="round"/>
</svg>
