<svg width="241" height="144" viewBox="0 0 241 144" fill="none" xmlns="http://www.w3.org/2000/svg">
<path d="M147.717 57.69L146.249 67.8883L135.185 70.7246C132.47 71.4286 129.593 70.9861 127.22 69.4774L115.472 62.0147L113.501 60.7475H113.481L118.852 49.6842L130.418 58.4946C132.369 60.0032 134.904 60.5463 137.297 60.0234L147.717 57.69Z" fill="#50DEFF"/>
<path d="M98.4358 142.314L86.1053 140.243C84.4558 139.961 83.1685 138.674 82.8868 137.024L76.1081 96.9347L75.4845 93.2738L85.2604 93.5956H86.0851L91.7978 131.211C92.0995 133.102 93.045 134.811 94.4932 136.059L99.4013 140.243C100.327 141.027 99.6427 142.516 98.4358 142.314Z" fill="#50DEFF"/>
<path d="M85.2604 93.5956L76.1081 96.9347L75.4845 93.2738L85.2604 93.5956Z" fill="black"/>
<path d="M61.9682 92.0466L61.2641 96.1903L54.5658 135.797C54.2842 137.446 52.9968 138.754 51.3273 139.035L39.0169 141.107C37.81 141.308 37.126 139.8 38.0312 139.015L42.9393 134.831C44.4077 133.584 45.3531 131.874 45.6548 129.984L51.3675 92.3886H51.4681L61.9682 92.0466Z" fill="#50DEFF"/>
<path d="M61.9691 92.0466L61.265 96.1903L51.469 92.3886L61.9691 92.0466Z" fill="black"/>
<path d="M39.339 0H95.0778L121.268 44.6756L97.371 93.9776L34.7326 91.9259L10.0715 42.6238L39.339 0Z" fill="#FF6B20"/>
<path d="M65.0062 40.7331C64.4028 45.9228 60.9027 50.6096 55.7935 53.5062C55.4516 53.7074 55.0694 53.9085 54.7073 54.0895C42.2561 60.4057 32.6008 52.7418 30.7503 46.2447C30.3077 44.8165 29.8451 43.3079 29.4629 41.7188C28.1152 36.0866 27.9744 29.9313 35.6181 25.0635C40.6268 21.8652 44.9515 20.3968 49.055 21.0405C52.9372 21.6238 56.6384 24.0175 60.6211 28.4227C64.2418 32.3854 65.489 36.7101 64.9861 40.7331H65.0062Z" fill="white"/>
<path d="M69.0075 58.8569C69.0075 58.8569 66.9557 63.6845 63.1942 62.2362C59.4327 60.788 60.6798 56.7851 60.6597 56.0609" stroke="black" stroke-width="1.83086" stroke-miterlimit="10" stroke-linecap="round"/>
<path d="M31.6741 92.9519L28.0132 95.3657C26.5046 96.3513 24.5534 95.0237 24.9356 93.2536L25.5592 90.357C25.9816 88.3657 24.6741 86.4145 22.6626 86.0926L6.42973 81.3254C0.877969 79.6961 -1.67665 73.3397 1.1797 68.3109L12.8062 47.9545L19.8063 61.512L17.2114 64.2879L11.7401 70.1816C10.6338 71.3885 11.0964 73.3196 12.6252 73.8828L26.5448 79.0121C28.3552 79.6759 29.8638 81.0035 30.769 82.7334L33.1425 87.3398C34.1483 89.3111 33.5247 91.7249 31.6741 92.9519Z" fill="#50DEFF"/>
<path d="M223.873 126.504L221.661 137.648C221.339 139.297 219.287 139.921 218.1 138.714L203.517 123.949L201.747 122.159C200.62 121.013 200.077 119.444 200.278 117.854L205.006 78.5697L205.79 79.2737L208.807 81.9289C221.379 93.0526 227.112 110.03 223.873 126.504Z" fill="#4D84FF"/>
<path d="M118.914 49.7848L115.474 62.0147L113.503 60.7475L118.853 49.6842L118.914 49.7848Z" fill="black"/>
<path d="M19.805 61.5121L17.2101 64.288L12.8049 47.9546L19.805 61.5121Z" fill="black"/>
<path d="M203.517 123.949L201.747 122.159C200.62 121.013 200.077 119.444 200.278 117.854L205.006 78.5697L205.79 79.2737C206.957 88.2451 209.129 110.734 203.517 123.949Z" fill="black"/>
<path d="M144.722 122.159L142.67 124.231L128.368 138.714C127.182 139.921 125.13 139.297 124.808 137.648L122.615 126.504C119.357 110.03 125.09 93.0526 137.682 81.9289L141.463 78.5697L146.21 117.854C146.391 119.444 145.848 121.013 144.722 122.159Z" fill="#4D84FF"/>
<path d="M144.721 122.159L141.282 125.619C133.779 100.012 141.463 78.5697 141.463 78.5697L146.21 117.854C146.391 119.444 145.848 121.013 144.721 122.159Z" fill="black"/>
<path d="M195.372 133.967L193.26 139.277H150.455V139.237C135.087 99.9521 138.708 55.9605 159.889 19.874C161.438 17.1987 163.107 14.5837 164.857 12.009L171.415 2.39401C173.587 -0.784174 178.334 -0.562908 180.185 2.79631L188.01 16.9774C188.794 18.4056 189.558 19.8539 190.283 21.3022C208.044 56.3024 209.955 97.3372 195.372 133.967Z" fill="#FF6B20"/>
<path d="M178.896 139.277H166.767C167.029 134.107 168.678 101.279 169.241 97.7593C169.845 94.038 172.842 93.9776 173.023 93.9776C173.023 93.9776 176.805 93.4144 177.307 100.797C177.79 107.535 178.736 134.61 178.896 139.277Z" fill="black"/>
<path d="M174.25 81.5666C186.637 81.5666 196.678 71.5251 196.678 59.1383C196.678 46.7515 186.637 36.71 174.25 36.71C161.863 36.71 151.822 46.7515 151.822 59.1383C151.822 71.5251 161.863 81.5666 174.25 81.5666Z" fill="#4D84FF"/>
<path d="M174.25 73.0781C181.949 73.0781 188.19 66.8371 188.19 59.1384C188.19 51.4396 181.949 45.1986 174.25 45.1986C166.551 45.1986 160.31 51.4396 160.31 59.1384C160.31 66.8371 166.551 73.0781 174.25 73.0781Z" fill="#C2EEFF"/>
<path d="M190.281 21.3022C186.781 24.3597 181.591 26.2907 175.798 26.2907C169.16 26.2907 163.307 23.7361 159.887 19.874C161.436 17.1987 163.106 14.5837 164.856 12.009L171.413 2.39401C173.586 -0.784174 178.333 -0.562908 180.183 2.79631L188.008 16.9774C188.793 18.4056 189.557 19.8539 190.281 21.3022Z" fill="#4D84FF"/>
<path d="M176.805 139.337L176.765 97.7592C176.765 95.6873 175.075 93.9977 173.004 93.9977C170.932 93.9977 169.242 95.6873 169.242 97.7592L169.282 139.337C169.282 141.409 170.952 143.078 173.024 143.099C175.116 143.099 176.825 141.429 176.825 139.337H176.805Z" fill="#4D84FF"/>
<path d="M65.006 40.733C64.4025 45.9227 60.9025 50.6095 55.7933 53.506C55.4513 53.7072 55.0692 53.9083 54.7071 54.0894C53.299 54.4716 51.8507 54.6727 50.3622 54.6727C41.0691 54.6727 33.546 47.1497 33.546 37.8565C33.546 28.5633 40.365 21.7443 49.0547 21.0604C52.937 21.6438 56.6381 24.0375 60.6209 28.4427C64.2416 32.4053 65.4888 36.7301 64.9859 40.7531L65.006 40.733Z" fill="black"/>
<path d="M105.838 40.7331C105.235 45.9228 101.735 50.6096 96.6255 53.5062C96.2836 53.7074 95.9014 53.9085 95.5393 54.0895C83.0881 60.4057 73.4329 52.7418 71.5823 46.2447C71.1398 44.8165 70.6771 43.3079 70.2949 41.7188C68.9472 36.0866 68.8064 29.9313 76.4501 25.0635C81.4588 21.8652 85.7835 20.3968 89.887 21.0405C93.7692 21.6238 97.4704 24.0175 101.453 28.4227C105.074 32.3854 106.321 36.7101 105.818 40.7331H105.838Z" fill="white"/>
<path d="M105.838 40.733C105.234 45.9227 101.734 50.6095 96.6252 53.506C96.2832 53.7072 95.9011 53.9083 95.539 54.0894C94.1309 54.4716 92.6826 54.6727 91.1941 54.6727C81.901 54.6727 74.3779 47.1497 74.3779 37.8565C74.3779 28.5633 81.1969 21.7443 89.8867 21.0604C93.7689 21.6438 97.47 24.0375 101.453 28.4427C105.074 32.4053 106.321 36.7301 105.818 40.7531L105.838 40.733Z" fill="black"/>
<path d="M141.015 7.97284L134.011 3.54321L129.581 10.5475L136.586 14.9771L141.015 7.97284Z" fill="#FFD729"/>
<path d="M15.864 124.251L4.61963 119.323L14.5364 112.041L15.864 124.251Z" fill="#FF6B20"/>
<path d="M235.017 67.6671C237.872 67.6671 240.187 65.3527 240.187 62.4976C240.187 59.6425 237.872 57.328 235.017 57.328C232.162 57.328 229.848 59.6425 229.848 62.4976C229.848 65.3527 232.162 67.6671 235.017 67.6671Z" fill="#4AFFA5"/>
<path d="M190.28 21.3022C190.28 21.3022 182.737 26.4919 175.093 26.2706C167.449 26.0494 159.906 19.874 159.906 19.874" stroke="black" stroke-width="1.83086" stroke-miterlimit="10" stroke-linecap="round"/>
<path d="M24.1517 86.7163C24.1517 86.7163 26.465 87.7623 25.6201 89.814C24.7753 91.8658 24.0109 94.3198 25.8012 95.3658" stroke="black" stroke-width="1.83086" stroke-miterlimit="10" stroke-linecap="round"/>
<path d="M27.1466 95.7075C27.1466 95.7075 28.8564 92.4288 28.1725 90.538" stroke="black" stroke-width="1.83086" stroke-miterlimit="10" stroke-linecap="round"/>
<path d="M29.9647 93.9777C29.9647 93.9777 30.9906 91.061 30.4475 90.0955" stroke="black" stroke-width="1.83086" stroke-miterlimit="10" stroke-linecap="round"/>
<path d="M32.1371 92.5897C32.1371 92.5897 33.2233 89.5925 32.7405 89.0293" stroke="black" stroke-width="1.83086" stroke-miterlimit="10" stroke-linecap="round"/>
</svg>
