<svg width="241" height="169" viewBox="0 0 241 169" fill="none" xmlns="http://www.w3.org/2000/svg">
<path d="M181.314 110.512L170.641 114.1L158.22 121.275C155.93 122.609 153.443 123.474 150.883 123.871C147.097 124.466 143.149 124.033 139.507 122.519L132.53 119.616L127.681 117.615L131.521 104.671L132.963 105.644L134.207 106.492L142.157 111.882C145.042 113.847 148.503 114.514 151.784 113.901C153.533 113.595 155.227 112.892 156.76 111.846L167 104.797C168.334 103.878 170.01 103.625 171.579 104.076L181.242 106.888C183.027 107.393 183.081 109.917 181.314 110.512Z" fill="#948FFF"/>
<path d="M229.305 57.9602V61.1511C229.305 61.1511 184.145 54.0841 161.123 74.8705C153.569 81.7031 144.483 86.0118 135.667 88.734C133.54 89.4011 131.431 89.9779 129.375 90.4647C113.871 94.0883 100.729 93.241 100.729 93.241V90.014C100.729 90.014 112.808 91.0056 127.464 87.6163C130.241 86.9673 133.107 86.174 136.01 85.1825C144.122 82.4062 152.451 78.1155 159.59 71.5172C181.531 51.2177 229.305 57.9602 229.305 57.9602Z" fill="#92EAFF"/>
<path d="M151.64 162.703L146.466 157.764C145.385 156.754 144.123 155.943 142.753 155.384L129.953 150.282C126.798 149.038 123.859 147.361 121.191 145.288C119.821 144.261 118.523 143.107 117.315 141.863L107.201 131.551H107.183L106.624 130.974L108.085 129.658H108.103L116.612 121.888L118.649 124.989L122.201 130.433L123.715 132.741C125.644 135.697 128.258 138.131 131.287 139.88C132.603 140.637 134.009 141.268 135.487 141.755L145.349 145.018C147.71 145.793 149.567 147.614 150.397 149.957L154.255 161.009C154.813 162.595 152.848 163.857 151.64 162.703Z" fill="#948FFF"/>
<path d="M136.009 85.1824L135.667 88.7339C133.54 89.401 131.43 89.9779 129.375 90.4646L127.464 87.6162C130.24 86.9672 133.107 86.1739 136.009 85.1824Z" fill="black"/>
<path d="M122.201 130.433L107.201 131.551H107.183L106.624 130.974L108.085 129.658L108.103 129.64L118.649 124.988L122.201 130.433Z" fill="black"/>
<path d="M134.207 106.492L132.53 119.616L127.681 117.615L132.963 105.644L134.207 106.492Z" fill="black"/>
<path d="M29.1949 135.697C28.8524 135.625 28.5099 135.499 28.1673 135.373L24.3814 133.876C23.3538 133.48 22.5786 132.596 22.3082 131.515L21.533 128.36C21.1003 126.665 22.0017 124.934 23.6243 124.321L26.6349 123.15L29.1949 135.697Z" fill="#948FFF"/>
<path d="M73.8501 115.794L73.2191 116.479L61.8254 128.901C59.4276 131.515 56.0564 132.993 52.5049 132.975L40.5703 132.903C39.092 132.903 37.6317 133.372 36.4419 134.273L35.6487 134.742C34.9636 135.156 34.2425 135.463 33.4853 135.679L30.7631 121.762C32.0971 121.599 33.4312 121.906 34.585 122.645L35.865 123.456C36.5501 123.907 37.3794 124.105 38.2086 124.015L49.8908 122.861C54.0913 122.447 57.751 119.778 59.4096 115.884L63.5741 106.185L67.8828 96.1437L73.8501 115.794Z" fill="#948FFF"/>
<path d="M73.8497 115.794L73.2187 116.479L63.5737 106.185L64.6194 103.751C66.1698 103.427 67.63 103.066 69.0182 102.67C69.2886 102.598 69.541 102.526 69.7934 102.435L73.8497 115.794Z" fill="black"/>
<path d="M69.794 102.435C69.5416 102.526 69.2892 102.598 69.0188 102.67C67.6306 103.066 66.1703 103.427 64.6199 103.751L67.883 96.1437L69.794 102.435Z" fill="black"/>
<path d="M84.1266 95.3503C82.3779 96.8286 80.3047 98.1627 77.8709 99.3525C75.5453 100.524 72.8591 101.534 69.7943 102.435L67.8833 96.1436L64.6203 103.751C64.0253 103.878 63.4124 104.004 62.7814 104.13C35.9377 109.34 22.5969 76.2045 28.5822 59.168C34.5675 42.1315 49.0981 38.4538 56.706 37.3721C74.0489 34.9383 90.5446 49.3788 92.9964 65.2435C93.1947 66.4333 93.3029 67.6232 93.3209 68.8311C93.5192 79.6659 92.0049 88.7881 84.1266 95.3503Z" fill="#92EAFF"/>
<path d="M84.1264 95.3503L77.8706 99.3525C75.3467 100.614 72.4081 101.714 69.0189 102.67C67.9192 97.8201 67.7028 94.3046 67.7028 94.3046L80.7371 74.0591L86.434 66.5595C87.6959 66.0547 89.9134 65.3877 92.9962 65.2434C93.1945 66.4333 93.3026 67.6231 93.3207 68.831C93.519 79.6659 92.0046 88.7881 84.1264 95.3503Z" fill="#FF6B20"/>
<path d="M63.3924 45.9716C82.6643 46.2781 94.9955 66.2171 84.2508 83.5601C73.5061 100.903 49.7271 102.273 37.1435 83.5601C24.56 64.847 43.886 45.6651 63.3743 45.9716H63.3924Z" fill="#FF6B20"/>
<path d="M43.3827 66.0005C49.8547 63.5126 57.8772 69.2996 53.9651 77.899C50.0531 86.4984 40.5343 84.0285 37.8481 78.1334C35.1619 72.2382 38.7675 67.7853 43.3647 66.0185L43.3827 66.0005Z" fill="white"/>
<path d="M63.1416 64.1797C69.6137 61.6918 77.6361 67.4788 73.7241 76.0782C69.812 84.6776 60.2932 82.2077 57.607 76.3126C54.9208 70.4174 58.5264 65.9645 63.1236 64.1977L63.1416 64.1797Z" fill="white"/>
<path d="M52.198 86.3904C52.198 86.3904 53.514 87.6344 55.8757 87.1837C58.2374 86.733 58.8143 84.2451 58.8143 84.2451" stroke="black" stroke-width="1.83086" stroke-miterlimit="10" stroke-linecap="round"/>
<path d="M134.442 69.8769C134.442 71.1208 134.172 72.3828 133.613 73.5727L132.477 75.9524C131.251 78.5844 129.556 80.9281 127.501 82.9112C125.266 80.1529 122.345 77.4126 118.613 74.6724H118.974C120.759 74.6724 122.345 73.4645 122.814 71.7338L123.12 70.6341C123.247 70.1473 122.832 69.6606 122.327 69.7327L113.097 70.8504L112.826 70.8865C112.826 70.8865 112.808 70.8865 112.79 70.8684L93.3381 65.424L94.3116 65.2076L104.047 63.0803L118.595 59.9074C123.319 58.8618 128.258 60.2499 131.756 63.6031C133.505 65.2798 134.442 67.5513 134.442 69.8769Z" fill="#948FFF"/>
<path d="M113.097 70.8503L112.826 70.8863L93.3381 65.4238L109.275 61.9264L113.097 70.8503Z" fill="black"/>
<path d="M127.501 82.9108C124.707 85.6331 121.263 87.6702 117.423 88.77L113.061 90.0319C110.969 90.6268 108.77 89.6173 107.85 87.6342L106.949 85.6872C106.156 83.9204 106.589 81.8472 108.049 80.5672L111.6 78.9988L110.428 77.4123L111.528 76.3667C112.79 75.267 115.729 74.672 117.405 74.672H118.613C122.345 77.4123 125.266 80.1526 127.501 82.9108Z" fill="#948FFF"/>
<path d="M131.522 112.261C127.231 125.295 113.115 134.958 91.3196 130.054C77.8706 127.026 72.0296 114.117 69.5417 104.689C67.9732 98.8297 67.7028 94.3046 67.7028 94.3046L80.7371 74.0591L85.19 67.1364C85.19 67.1364 85.6047 66.884 86.434 66.5595C87.8221 66.0006 90.3821 65.2434 93.9516 65.2074H94.3122C98.9094 65.2434 105.183 66.4874 112.791 70.8682C112.791 70.8682 112.803 70.8742 112.827 70.8862C113.927 71.5172 115.044 72.2203 116.18 72.9775C117.028 73.5363 117.839 74.1132 118.614 74.6721H117.406C115.73 74.6721 112.791 75.267 111.529 76.3667L110.429 77.4124L111.601 78.9988L108.05 80.5673C106.589 81.8473 106.157 83.9205 106.95 85.6872L107.851 87.6343C108.771 89.6173 110.97 90.6269 113.061 90.032L117.424 88.77C121.264 87.6703 124.707 85.6331 127.502 82.9109C135.38 92.6461 134.731 102.525 131.522 112.261Z" fill="#FF6B20"/>
<path d="M34.7833 142.241L33.4853 135.679L30.763 121.761L30.3303 119.616C33.2869 116.623 34.0622 108.799 31.9348 100.236C29.3749 89.996 23.6419 82.6226 19.1169 83.7583C14.5919 84.8941 12.9874 94.1064 15.5293 104.328C17.6747 112.946 22.0915 119.508 26.1298 120.698L26.6346 123.15L29.1946 135.697L30.6909 143.071C30.9072 144.062 31.7726 144.729 32.7281 144.729C32.9264 144.729 33.1427 144.711 33.341 144.639C34.3686 144.333 34.9816 143.287 34.7833 142.241Z" fill="#7E1BEF"/>
<path d="M27.1908 116.149C30.3014 115.373 31.2657 108.502 29.3447 100.803C27.4236 93.1037 23.3445 87.4913 20.2339 88.2675C17.1232 89.0436 16.1589 95.9144 18.08 103.614C20.001 111.313 24.0801 116.926 27.1908 116.149Z" fill="#92EAFF"/>
<path d="M199.919 51.2177C208.95 51.2177 216.27 43.8969 216.27 34.8663C216.27 25.8356 208.95 18.5148 199.919 18.5148C190.888 18.5148 183.568 25.8356 183.568 34.8663C183.568 43.8969 190.888 51.2177 199.919 51.2177Z" fill="#948FFF"/>
<path d="M75.598 168.67C84.6286 168.67 91.9494 161.349 91.9494 152.319C91.9494 143.288 84.6286 135.967 75.598 135.967C66.5673 135.967 59.2465 143.288 59.2465 152.319C59.2465 161.349 66.5673 168.67 75.598 168.67Z" fill="#948FFF"/>
<path d="M216.631 117.831C229.744 117.831 240.374 107.201 240.374 94.0884C240.374 80.9755 229.744 70.3454 216.631 70.3454C203.518 70.3454 192.888 80.9755 192.888 94.0884C192.888 107.201 203.518 117.831 216.631 117.831Z" fill="#7E1BEF"/>
<path d="M130.133 53.7596C144.978 53.7596 157.013 41.7251 157.013 26.8798C157.013 12.0345 144.978 -3.8147e-06 130.133 -3.8147e-06C115.288 -3.8147e-06 103.253 12.0345 103.253 26.8798C103.253 41.7251 115.288 53.7596 130.133 53.7596Z" fill="#7E1BEF"/>
<path d="M194.168 32.3784C194.655 32.4866 195.034 32.4685 195.304 32.3243C195.575 32.1981 195.755 31.9457 195.845 31.5852C195.917 31.3147 195.989 30.7739 196.097 29.9626C196.097 29.8725 196.133 29.6201 196.205 29.1874C196.26 28.7548 196.332 28.3581 196.422 28.0156C196.638 27.1863 197.053 26.5914 197.684 26.2489C198.315 25.9063 199.054 25.8522 199.919 26.0686L200.983 26.339L200.46 28.4122L199.883 28.268C199.577 28.1959 199.324 28.1959 199.144 28.3041C198.964 28.4122 198.856 28.5925 198.784 28.8809C198.729 29.0973 198.639 29.6021 198.531 30.3773C198.387 31.3508 198.261 31.9818 198.189 32.2882C198.044 32.8291 197.81 33.2437 197.449 33.5322C197.089 33.8206 196.638 33.9468 196.097 33.9108V33.9468C196.602 34.1812 196.927 34.5237 197.107 34.9384C197.287 35.353 197.305 35.8398 197.161 36.3806C197.089 36.6691 196.891 37.282 196.548 38.2195C196.278 38.9406 196.115 39.4274 196.061 39.6437C195.989 39.9321 196.007 40.1665 196.097 40.3468C196.205 40.5271 196.404 40.6533 196.728 40.7254L197.305 40.8696L196.782 42.9428L195.719 42.6724C194.871 42.4561 194.24 42.0414 193.844 41.4465C193.447 40.8516 193.357 40.1304 193.573 39.2831C193.664 38.9406 193.79 38.562 193.934 38.1474C194.078 37.7327 194.186 37.4803 194.222 37.4082C194.511 36.651 194.709 36.1282 194.763 35.8758C194.853 35.5333 194.799 35.2448 194.619 34.9925C194.439 34.7401 194.114 34.5418 193.646 34.3975L194.15 32.3964L194.168 32.3784Z" fill="white"/>
<path d="M204.553 37.4805C204.283 37.6247 204.103 37.8591 204.013 38.2016C203.94 38.472 203.868 39.0129 203.76 39.8241C203.76 39.9143 203.724 40.1666 203.652 40.5993C203.58 41.032 203.526 41.4286 203.436 41.7711C203.219 42.6185 202.805 43.2134 202.174 43.5379C201.543 43.8624 200.804 43.9345 199.938 43.7182L198.875 43.4478L199.397 41.3745L199.974 41.5188C200.281 41.5909 200.533 41.5909 200.713 41.4827C200.894 41.3745 201.002 41.1762 201.074 40.8878C201.128 40.6534 201.218 40.1666 201.326 39.3914C201.471 38.4179 201.597 37.7869 201.669 37.4805C201.813 36.9216 202.048 36.507 202.408 36.2365C202.751 35.9481 203.219 35.8219 203.76 35.8579V35.8219C203.255 35.5875 202.931 35.263 202.751 34.8484C202.57 34.4337 202.57 33.947 202.697 33.4061C202.769 33.1177 202.967 32.5047 203.309 31.5673C203.58 30.8281 203.742 30.3414 203.796 30.125C203.868 29.8366 203.85 29.6202 203.742 29.44C203.634 29.2597 203.436 29.1335 203.111 29.0614L202.534 28.9171L203.057 26.8439L204.121 27.1143C204.968 27.3307 205.599 27.7453 205.996 28.3403C206.392 28.9352 206.482 29.6563 206.266 30.4856C206.176 30.8281 206.05 31.2067 205.906 31.6214C205.743 32.036 205.653 32.2884 205.617 32.3605C205.329 33.1177 205.13 33.6405 205.076 33.8929C204.986 34.2535 205.022 34.5419 205.202 34.7943C205.383 35.0467 205.707 35.245 206.176 35.3712L205.671 37.3723C205.184 37.2641 204.806 37.3002 204.517 37.4444L204.553 37.4805Z" fill="white"/>
<path d="M208.195 93.4935C208.79 93.8901 209.205 94.5391 209.421 95.4225L210.395 99.3526L208.34 99.8574L207.42 96.1977C207.312 95.747 207.096 95.4225 206.807 95.2422C206.519 95.0439 206.158 95.0078 205.78 95.098C205.401 95.1881 205.095 95.4044 204.932 95.7109C204.77 96.0174 204.734 96.396 204.842 96.8467L205.762 100.506L203.706 101.029L201.471 92.1053L203.526 91.5825L204.301 94.6833C204.427 94.3408 204.662 94.0163 204.986 93.7639C205.311 93.4935 205.689 93.3132 206.14 93.187C206.915 92.9887 207.6 93.0968 208.195 93.4935Z" fill="white"/>
<path d="M215.154 96.3057L215.587 98.0544L214.541 98.3248C213.802 98.5051 213.171 98.469 212.648 98.2166C212.144 97.9462 211.783 97.4054 211.567 96.5761L210.9 93.8899L210.07 94.0882L209.638 92.3756L210.467 92.1773L210.052 90.5367L212.108 90.0139L212.522 91.6544L213.874 91.3119L214.307 93.0246L212.955 93.3671L213.622 96.0713C213.676 96.2696 213.748 96.4138 213.874 96.4679C214.001 96.54 214.163 96.54 214.397 96.4679L215.136 96.2876L215.154 96.3057Z" fill="white"/>
<path d="M220.057 95.0799L220.49 96.8286L219.445 97.099C218.705 97.2793 218.074 97.2432 217.552 96.9909C217.047 96.7204 216.686 96.1796 216.47 95.3503L215.803 92.6641L214.974 92.8624L214.541 91.1498L215.37 90.9515L214.956 89.3109L217.011 88.7881L217.425 90.4286L218.777 90.0861L219.21 91.7988L217.858 92.1413L218.525 94.8455C218.579 95.0438 218.651 95.188 218.777 95.2421C218.904 95.3142 219.066 95.3142 219.3 95.2421L220.039 95.0619L220.057 95.0799Z" fill="white"/>
<path d="M222.906 89.2929C223.213 89.0044 223.61 88.8061 224.078 88.6979C224.637 88.5537 225.178 88.5717 225.683 88.752C226.206 88.9143 226.656 89.2388 227.053 89.6895C227.45 90.1402 227.72 90.7171 227.9 91.4202C228.081 92.1233 228.099 92.7542 227.972 93.3492C227.846 93.9441 227.594 94.4308 227.215 94.8275C226.837 95.2241 226.368 95.4945 225.809 95.6387C225.34 95.7469 224.908 95.7649 224.493 95.6567C224.096 95.5486 223.754 95.3683 223.465 95.1159L224.493 99.2624L222.438 99.7852L219.95 89.8517L222.005 89.3289L222.239 90.2844C222.366 89.9238 222.582 89.5993 222.888 89.3109L222.906 89.2929ZM225.07 90.8252C224.709 90.6089 224.331 90.5368 223.898 90.645C223.465 90.7531 223.177 90.9875 222.961 91.348C222.744 91.7086 222.708 92.1593 222.834 92.6821C222.961 93.2049 223.213 93.5655 223.574 93.7999C223.934 94.0342 224.313 94.0883 224.727 93.9801C225.142 93.872 225.448 93.6376 225.665 93.259C225.881 92.8804 225.917 92.4478 225.791 91.9249C225.665 91.4021 225.412 91.0416 225.052 90.8252H225.07Z" fill="white"/>
<path d="M228.62 89.347C228.332 89.1847 228.152 88.9504 228.079 88.6439C228.007 88.3374 228.043 88.031 228.224 87.7425C228.404 87.4721 228.674 87.2918 229.035 87.2017C229.395 87.1115 229.702 87.1476 229.99 87.3098C230.279 87.4721 230.459 87.7064 230.531 88.031C230.603 88.3555 230.567 88.6439 230.387 88.9143C230.207 89.1848 229.954 89.365 229.594 89.4552C229.233 89.5453 228.909 89.5093 228.62 89.365V89.347ZM229.846 94.2506C229.558 94.0884 229.377 93.854 229.305 93.5475C229.233 93.2411 229.269 92.9346 229.45 92.6461C229.63 92.3757 229.9 92.1954 230.261 92.1053C230.621 92.0151 230.928 92.0512 231.216 92.2135C231.505 92.3757 231.685 92.6101 231.757 92.9346C231.829 93.2591 231.793 93.5475 231.613 93.818C231.433 94.0884 231.18 94.2687 230.82 94.3588C230.459 94.4489 230.135 94.4129 229.846 94.2687V94.2506Z" fill="white"/>
<path d="M116.161 31.9634C115.908 31.7831 115.764 31.5488 115.71 31.2243C115.656 30.8998 115.746 30.6293 115.944 30.3769C116.143 30.1246 116.413 29.9803 116.774 29.9262C117.134 29.8722 117.423 29.9443 117.675 30.1245C117.927 30.3048 118.072 30.5572 118.126 30.8817C118.18 31.2062 118.09 31.4586 117.891 31.711C117.693 31.9454 117.423 32.0896 117.08 32.1437C116.738 32.1978 116.413 32.1437 116.161 31.9454V31.9634Z" fill="white"/>
<path d="M118.757 26.6092C118.974 26.0503 119.298 25.5996 119.767 25.2571C120.236 24.9146 120.795 24.6982 121.444 24.6081C122.273 24.4999 122.994 24.6081 123.625 24.9687C124.238 25.3292 124.689 25.8881 124.977 26.6633L122.814 26.9698C122.561 26.483 122.183 26.2847 121.66 26.3568C121.281 26.4109 121.011 26.5912 120.831 26.9157C120.65 27.2402 120.596 27.6729 120.668 28.1957C120.741 28.7185 120.903 29.1331 121.173 29.3855C121.444 29.6379 121.75 29.7461 122.129 29.692C122.651 29.6199 122.976 29.3134 123.084 28.7906L125.248 28.4841C125.175 29.2774 124.905 29.9444 124.4 30.4672C123.895 30.99 123.246 31.3145 122.417 31.4227C121.768 31.5128 121.173 31.4588 120.632 31.2424C120.092 31.0441 119.641 30.7016 119.298 30.2148C118.956 29.7281 118.721 29.1512 118.631 28.4661C118.541 27.781 118.595 27.1501 118.794 26.6092H118.757Z" fill="white"/>
<path d="M127.861 30.2331C127.302 30.0348 126.834 29.6923 126.473 29.2235C126.112 28.7548 125.878 28.1779 125.77 27.4748C125.662 26.7717 125.752 26.1768 125.968 25.6179C126.185 25.0591 126.545 24.6084 127.032 24.2478C127.519 23.9053 128.077 23.6709 128.726 23.5808C129.376 23.4906 129.988 23.5447 130.547 23.7611C131.106 23.9594 131.575 24.3019 131.954 24.7887C132.332 25.2754 132.566 25.8523 132.657 26.5193C132.747 27.1864 132.675 27.8174 132.44 28.3762C132.206 28.9351 131.845 29.3858 131.359 29.7464C130.872 30.0889 130.295 30.3233 129.646 30.4134C128.997 30.5035 128.402 30.4495 127.843 30.2331H127.861ZM130.367 28.0878C130.601 27.7633 130.674 27.3306 130.601 26.8078C130.529 26.285 130.331 25.8884 130.043 25.636C129.736 25.3836 129.394 25.2934 128.997 25.3475C128.6 25.4016 128.294 25.5819 128.077 25.9064C127.861 26.2309 127.789 26.6455 127.861 27.1864C127.933 27.7272 128.114 28.1058 128.42 28.3582C128.708 28.6106 129.051 28.7007 129.448 28.6467C129.844 28.5926 130.151 28.4123 130.385 28.0878H130.367Z" fill="white"/>
<path d="M143.798 22.2826C144.357 22.7153 144.699 23.3643 144.807 24.2657L145.348 28.1417L143.329 28.4302L142.824 24.8246C142.77 24.3919 142.608 24.0854 142.355 23.8871C142.103 23.6888 141.778 23.6167 141.382 23.6708C140.985 23.7249 140.697 23.8871 140.498 24.1575C140.3 24.4279 140.246 24.7705 140.3 25.2032L140.805 28.8088L138.786 29.0972L138.281 25.4916C138.227 25.0589 138.065 24.7525 137.812 24.5541C137.56 24.3558 137.235 24.2837 136.839 24.3378C136.442 24.3919 136.154 24.5541 135.955 24.8246C135.757 25.095 135.703 25.4375 135.757 25.8702L136.262 29.4758L134.225 29.7642L133.305 23.1299L135.342 22.8415L135.451 23.6708C135.613 23.3643 135.865 23.1119 136.172 22.8956C136.478 22.6792 136.839 22.553 137.271 22.4989C137.776 22.4268 138.227 22.4809 138.66 22.6432C139.074 22.8054 139.435 23.0578 139.705 23.4364C139.886 23.0398 140.156 22.6973 140.517 22.4088C140.877 22.1204 141.292 21.9581 141.76 21.886C142.59 21.7778 143.275 21.922 143.834 22.3547L143.798 22.2826Z" fill="white"/>
<path d="M67.7016 150.949L68.4948 156.195L67.2148 156.393L66.8903 154.23L64.9072 154.536L65.2317 156.7L63.9517 156.898L63.1585 151.652L64.4385 151.454L64.745 153.509L66.7281 153.202L66.4216 151.147L67.7016 150.949Z" fill="white"/>
<path d="M72.3892 150.227L72.5514 151.255L71.1633 151.471L71.8123 155.69L70.5323 155.888L69.8833 151.67L68.4951 151.886L68.3329 150.858L72.3892 150.245V150.227Z" fill="white"/>
<path d="M78.968 149.236L79.7612 154.482L78.4812 154.681L77.9945 151.544L77.2914 154.861L76.2638 155.023L74.6052 152.049L75.092 155.203L73.812 155.402L73.0187 150.156L74.5331 149.921L76.5522 153.329L77.4536 149.471L78.95 149.236H78.968Z" fill="white"/>
<path d="M81.8174 153.148L83.494 152.895L83.6382 153.887L80.6816 154.338L79.8884 149.092L81.1684 148.893L81.8174 153.148Z" fill="white"/>
<path d="M87.3163 148.894L84.9907 149.254L85.153 150.282C85.2431 150.156 85.3693 150.047 85.5316 149.957C85.6938 149.867 85.8921 149.795 86.0904 149.759C86.469 149.705 86.7935 149.741 87.0639 149.867C87.3344 149.993 87.5507 150.192 87.7129 150.444C87.8752 150.696 87.9653 150.985 88.0194 151.291C88.1096 151.868 88.0194 152.355 87.731 152.752C87.4606 153.148 87.0099 153.383 86.4149 153.473C86.0183 153.527 85.6578 153.509 85.3513 153.419C85.0448 153.329 84.7744 153.166 84.5761 152.95C84.3778 152.734 84.2516 152.463 84.1795 152.139L85.4234 151.94C85.4775 152.085 85.5676 152.211 85.6938 152.301C85.82 152.391 85.9823 152.409 86.1806 152.391C86.4149 152.355 86.5772 152.247 86.6673 152.085C86.7575 151.922 86.7935 151.706 86.7394 151.454C86.6853 151.201 86.6132 151.039 86.469 150.913C86.3248 150.805 86.1445 150.769 85.9101 150.805C85.7479 150.823 85.6037 150.895 85.5135 150.985C85.4234 151.075 85.3693 151.201 85.3513 151.345L84.1254 151.526L83.6386 148.281L87.136 147.758L87.2983 148.876L87.3163 148.894Z" fill="white"/>
<path d="M64.1857 81.649C68.3177 81.649 71.6674 78.2993 71.6674 74.1673C71.6674 70.0354 68.3177 66.6857 64.1857 66.6857C60.0537 66.6857 56.7041 70.0354 56.7041 74.1673C56.7041 78.2993 60.0537 81.649 64.1857 81.649Z" fill="black"/>
<path d="M44.4095 82.5864C48.5415 82.5864 51.8911 79.2368 51.8911 75.1048C51.8911 70.9728 48.5415 67.6232 44.4095 67.6232C40.2775 67.6232 36.9279 70.9728 36.9279 75.1048C36.9279 79.2368 40.2775 82.5864 44.4095 82.5864Z" fill="black"/>
<path d="M181.314 110.512L170.642 114.1L158.22 121.275C155.931 122.609 153.443 123.474 150.883 123.871L151.784 113.901C153.533 113.595 155.228 112.892 156.76 111.846L167 104.797C168.334 103.878 170.011 103.625 171.579 104.076L181.242 106.888C183.027 107.393 183.081 109.917 181.314 110.512Z" fill="#FF6B20"/>
<path d="M151.641 162.703L146.467 157.764C145.385 156.754 144.123 155.943 142.753 155.384L129.953 150.282C126.798 149.038 123.86 147.361 121.192 145.288L131.287 139.88C132.603 140.637 134.01 141.268 135.488 141.755L145.349 145.018C147.711 145.793 149.568 147.614 150.397 149.957L154.255 161.009C154.814 162.595 152.849 163.857 151.641 162.703Z" fill="#FF6B20"/>
<path d="M80.5562 97.9102C80.5562 97.9102 81.2052 115.415 94.546 121.275C107.887 127.152 119.857 126.845 119.857 126.845L122.94 124.682C122.94 124.682 104.335 123.33 94.6542 117.831C81.4937 110.332 82.8458 96.3057 82.8458 96.3057L80.5382 97.9102H80.5562Z" fill="#92EAFF"/>
<path d="M33.6646 126.052C33.6646 126.052 30.8522 127.152 29.8607 125.421C28.8691 123.69 26.3452 126.305 25.3176 125.187C24.29 124.069 25.8945 123.582 27.9677 122.483C27.9677 122.483 32.4567 119.31 36.8015 123.889" fill="#948FFF"/>
<path d="M33.6646 126.052C33.6646 126.052 30.8522 127.152 29.8607 125.421C28.8691 123.69 26.3452 126.305 25.3176 125.187C24.29 124.069 25.8945 123.582 27.9677 122.483C27.9677 122.483 32.4567 119.31 36.8015 123.889" stroke="black" stroke-width="1.83086" stroke-miterlimit="10" stroke-linecap="round"/>
<path d="M22.777 127.224C22.777 127.224 28.8164 125.529 29.213 126.935C29.6096 128.341 22.9753 129.297 22.9753 129.297C22.9753 129.297 29.9882 127.711 30.2766 129.405C30.5651 131.1 23.5161 131.1 23.5161 131.1C23.5161 131.1 30.4209 130.234 30.7093 131.785C30.9978 133.335 24.3454 132.849 24.3454 132.849" fill="#948FFF"/>
<path d="M22.777 127.224C22.777 127.224 28.8164 125.529 29.213 126.935C29.6096 128.341 22.9753 129.297 22.9753 129.297C22.9753 129.297 29.9882 127.711 30.2766 129.405C30.5651 131.1 23.5161 131.1 23.5161 131.1C23.5161 131.1 30.4209 130.234 30.7093 131.785C30.9978 133.335 24.3454 132.849 24.3454 132.849" stroke="black" stroke-width="1.83086" stroke-miterlimit="10" stroke-linecap="round"/>
<path d="M127.502 82.9109C127.502 82.9109 125.374 85.5249 115.747 89.2567C107.382 92.5018 106.625 84.5694 106.625 84.5694C106.625 84.5694 106.066 80.2067 110.844 79.3233C115.621 78.4399 114.413 77.6467 114.413 77.6467C114.413 77.6467 110.772 79.2512 110.429 77.6467C110.087 76.0422 116.505 73.4101 119.443 74.5459" stroke="black" stroke-width="1.83086" stroke-miterlimit="10" stroke-linecap="round"/>
<path d="M93.3373 65.4239C93.3373 65.4239 94.8156 75.3393 90.3807 87.2738C85.9458 99.2084 69.0175 102.67 69.0175 102.67L67.8817 96.1436C77.5808 92.8445 82.1419 86.5888 82.1419 86.5888C89.0647 77.0339 88.001 66.7038 88.001 66.7038L93.3553 65.4419L93.3373 65.4239Z" stroke="black" stroke-width="1.83086" stroke-miterlimit="10" stroke-linecap="round"/>
<path d="M82.8643 86.12L88.417 91.0416" stroke="black" stroke-width="1.83086" stroke-miterlimit="10" stroke-linecap="round"/>
<path d="M87.1175 77.3762L92.6521 79.1249" stroke="black" stroke-width="1.83086" stroke-miterlimit="10" stroke-linecap="round"/>
<path d="M75.8505 92.4298L77.8696 99.3526" stroke="black" stroke-width="1.83086" stroke-miterlimit="10" stroke-linecap="round"/>
<path d="M69.5123 5.77515L62.5948 2.04267L58.8624 8.96017L65.7799 12.6926L69.5123 5.77515Z" fill="#FFD729"/>
<path d="M206.103 143.81L194.529 145.216L199.108 134.489L206.103 143.81Z" fill="#FF6B20"/>
<path d="M5.09076 145.108C7.79896 145.108 9.99439 142.912 9.99439 140.204C9.99439 137.496 7.79896 135.301 5.09076 135.301C2.38256 135.301 0.187134 137.496 0.187134 140.204C0.187134 142.912 2.38256 145.108 5.09076 145.108Z" fill="#4AFFA5"/>
</svg>
