<svg width="241" height="227" viewBox="0 0 241 227" fill="none" xmlns="http://www.w3.org/2000/svg">
<path d="M29.9208 80.8593L80.1482 226.611L202.803 168.122L162.672 31.1015L29.9208 80.8593Z" fill="black"/>
<path d="M39.1858 74.242L82.5398 196.94L208.951 136.402L173.432 30.0555L39.1858 74.242Z" fill="#FFF6C7"/>
<path d="M111.101 144.94L108.305 143.681C106.085 142.656 103.63 142.229 101.196 142.443L96.0947 142.869C94.5151 142.998 93.0422 142.016 92.5512 140.521L90.502 134.331L89.6055 131.599L88.4955 128.226L88.8797 128.055L96.7991 124.683L96.9699 128.845L97.226 135.249C97.2901 136.679 98.6776 137.704 100.065 137.341L106.127 135.74C107.045 135.484 108.006 135.932 108.454 136.786L112.062 143.937C112.382 144.556 111.741 145.239 111.101 144.94Z" fill="#4ABAFF"/>
<path d="M96.9704 128.845L90.5026 134.331L89.606 131.599L88.8802 128.055L96.7997 124.683L96.9704 128.845Z" fill="black"/>
<path d="M92.7022 153.607L84.9749 158.602C84.3346 159.007 83.5661 158.346 83.8649 157.662L85.5513 153.842C86.8321 150.981 86.8747 147.715 85.6794 144.812L79.4036 129.507L78.1655 126.497V126.454H87.6859L87.9207 127.372L89.6711 134.438L93.7695 150.874C94.047 151.92 93.5988 153.009 92.7022 153.607Z" fill="#4ABAFF"/>
<path d="M89.6711 134.438L79.4036 129.507L78.1655 126.497L87.9207 127.372L89.6711 134.438Z" fill="black"/>
<path d="M126.194 118.791C126.194 118.791 117.101 133.862 100.216 123.338C100.216 123.338 93.321 137 80.0437 127.074C80.0437 127.074 74.7712 139.497 71.3132 126.049C71.3132 126.049 68.0472 135.078 59.1459 132.303C50.2445 129.528 44.972 92.9839 44.972 92.9839C44.972 92.9839 51.8668 84.4454 57.6943 90.8066C57.6943 90.8066 50.9703 72.5343 70.0537 68.7774C89.1372 65.0204 85.5937 78.1056 85.5937 78.1056C85.5937 78.1056 91.1437 61.6904 97.3127 74.797C97.3127 74.797 99.8529 60.2816 120.751 67.1977C141.649 74.1139 129.097 95.0758 129.097 95.0758C129.097 95.0758 143.378 110.722 126.194 118.791Z" fill="#FF4DAB"/>
<path d="M122.03 180.289L132.917 124.426L93.405 110.018L128.007 92.2578L116.032 57.9332L144.913 69.7376V30.7382L174.883 21.1325L208.952 136.402L122.03 180.289Z" fill="#FFCB27"/>
<path d="M187.2 97.8508C186.795 102.504 185.535 107.542 183.187 112.708C180.946 117.639 177.915 121.822 174.499 125.238C161.692 138.046 143.547 140.116 142.032 130.959C140.132 119.368 152.812 112.43 160.155 101.522C165.513 93.6029 162.759 73.4522 172.429 71.2749C179.964 69.5885 188.737 81.4356 187.2 97.8508Z" fill="black"/>
<path d="M153.536 94.798C152.575 94.9902 151.7 95.0755 150.889 95.0755C143.738 95.0115 142.073 87.6471 143.631 82.1825C145.296 76.291 151.103 73.9642 155.564 75.0529C156.695 75.3304 157.741 75.8213 158.616 76.5471C162.886 80.0906 162.886 92.8982 153.536 94.798Z" fill="white"/>
<path d="M149.824 108.182C148.223 113.305 143.505 115.611 139.386 115.29H139.343C137.593 115.141 135.928 114.501 134.689 113.412C130.527 109.762 130.869 96.9541 140.261 95.2891C142.246 94.9475 143.89 95.0329 145.256 95.4598C150.358 97.1035 151.318 103.401 149.824 108.182Z" fill="white"/>
<path d="M89.8421 95.0758C93.8978 94.9477 95.0505 99.4304 93.8765 100.711C92.7024 101.992 91.5071 98.7046 88.5186 98.4484C85.5302 98.1923 85.2527 100.647 84.2494 99.0888C83.2461 97.5306 86.7255 95.1825 89.8421 95.0971V95.0758Z" fill="black"/>
<path d="M78.6992 94.4351C82.1999 93.4532 83.5234 98.7043 81.7944 99.6222C80.0653 100.54 80.0653 98.192 79.0621 98.0426C78.0588 97.8932 75.604 102.803 73.875 101.8C72.1459 100.796 74.7928 95.5238 78.6992 94.4351Z" fill="black"/>
<path d="M86.8742 103.081C86.8742 103.081 87.4932 109.057 84.0565 109.463C80.6197 109.869 81.3882 103.081 81.3882 103.081" stroke="black" stroke-width="1.83086" stroke-linecap="round" stroke-linejoin="round"/>
<path d="M187.201 97.8506C186.796 102.504 185.536 107.542 183.188 112.707C180.947 117.638 177.916 121.822 174.5 125.238C172.003 122.463 170.317 117.553 173.604 108.075C176.806 98.8325 183.765 97.7652 187.201 97.8506Z" fill="#FF6840"/>
<path d="M180.71 15.9027L29.9208 69.0546L81.3222 220.1L222.484 158.815L180.71 15.9027ZM45.909 76.9953L173.431 30.0765L202.803 135.121L82.9445 188.614L45.8877 76.9953H45.909Z" fill="#C2EEFF"/>
<path d="M147.177 103.23C147.177 109.698 143.719 114.97 139.386 115.29H139.343C137.593 115.141 135.928 114.501 134.689 113.412C130.527 109.762 130.869 96.9541 140.261 95.2891C142.246 94.9475 143.89 95.0329 145.256 95.4598C146.451 97.5731 147.177 100.284 147.177 103.23Z" fill="black"/>
<path d="M157.741 83.1858C157.741 89.1627 154.774 94.115 150.889 95.0755C143.738 95.0115 142.073 87.6471 143.631 82.1825C145.296 76.291 151.103 73.9642 155.564 75.0529C156.93 77.1875 157.741 80.0479 157.741 83.1858Z" fill="black"/>
<path d="M173.433 62.843C190.787 62.843 204.855 48.7751 204.855 31.4215C204.855 14.0679 190.787 3.57628e-06 173.433 3.57628e-06C156.08 3.57628e-06 142.012 14.0679 142.012 31.4215C142.012 48.7751 156.08 62.843 173.433 62.843Z" fill="#1877F2"/>
<path d="M178.704 18.3792C181.329 17.8882 185.791 16.2446 188.822 25.1459C191.853 34.0472 172.983 44.9124 172.983 44.9124C172.983 44.9124 157.23 34.2393 157.678 27.7288C158.126 21.2182 160.368 18.2297 165.875 18.5072C171.382 18.7847 173.132 22.7338 173.132 22.7338C173.132 22.7338 176.036 18.8701 178.682 18.3792H178.704Z" fill="#FF177A"/>
<path d="M6.24943 105.236L0.187134 93.688L13.2083 94.2216L6.24943 105.236Z" fill="#FF6B20"/>
<path d="M231.217 94.0295C234.247 94.0295 236.703 91.5734 236.703 88.5436C236.703 85.5138 234.247 83.0576 231.217 83.0576C228.187 83.0576 225.731 85.5138 225.731 88.5436C225.731 91.5734 228.187 94.0295 231.217 94.0295Z" fill="#4AFFA5"/>
<path d="M105.537 10.8523L98.1039 6.15161L93.4032 13.5845L100.836 18.2852L105.537 10.8523Z" fill="#FFD729"/>
<path d="M77.333 158.047C77.333 169.019 71.7189 178.667 63.2018 184.281C60.3415 186.181 57.1395 187.611 53.7242 188.486C51.2267 189.127 48.6011 189.468 45.9115 189.468C28.5571 189.468 14.49 175.401 14.49 158.047C14.49 140.692 28.5571 126.625 45.9115 126.625C63.2659 126.625 77.333 140.692 77.333 158.047Z" fill="#1877F2"/>
<path d="M63.201 184.281C60.3406 186.181 57.1387 187.611 53.7233 188.486L45.9106 170.47L38.226 174.014L33.9995 164.899L41.6841 161.548L37.7778 151.622C35.8993 146.883 38.162 141.504 42.8582 139.54L51.7808 135.804L55.1108 143.233L50.6495 145.282C48.3654 146.328 47.3408 149.017 48.3654 151.323L51.0978 157.471L59.3374 153.65L62.4112 162.914L54.8333 166.18L63.201 184.281Z" fill="white"/>
<path d="M240.374 155.208C240.374 166.18 234.76 175.828 226.243 181.442C223.382 183.342 220.18 184.772 216.765 185.647C214.268 186.288 211.642 186.629 208.952 186.629C191.598 186.629 177.531 172.562 177.531 155.208C177.531 137.853 191.598 123.786 208.952 123.786C226.307 123.786 240.374 137.853 240.374 155.208Z" fill="#1877F2"/>
<path d="M205.495 137.597L209.678 135.783C211.941 139.476 216.146 141.504 220.437 140.97L221.205 140.885L223.02 145.431L221.035 145.922C218.9 146.435 216.68 146.477 214.524 146.029L213.286 145.773L218.558 158.666C220.885 164.387 218.302 170.94 212.688 173.523C207.266 176.02 200.862 173.523 198.536 168.037L198.002 166.756C195.761 161.484 198.151 155.379 203.381 153.009L205.025 152.262L207.031 156.98L204.662 158.047C202.485 159.029 201.439 161.548 202.314 163.789L202.869 165.283C204.15 168.741 208.141 170.364 211.471 168.741C214.417 167.311 215.762 163.874 214.567 160.843L205.495 137.661V137.597Z" fill="white"/>
<path d="M204.191 134.758L208.717 132.794C211.171 136.786 215.718 138.985 220.371 138.408L221.204 138.301L223.168 143.211L221.033 143.723C218.728 144.278 216.316 144.321 213.989 143.83L212.644 143.553L218.344 157.513C220.862 163.703 218.066 170.79 212.004 173.587C206.134 176.276 199.196 173.587 196.677 167.652L196.101 166.265C193.667 160.544 196.272 153.927 201.928 151.365L203.722 150.554L205.877 155.656L203.316 156.809C200.947 157.876 199.837 160.608 200.776 163.02L201.373 164.621C202.761 168.378 207.094 170.107 210.68 168.357C213.861 166.82 215.312 163.084 214.032 159.797L204.212 134.694L204.191 134.758Z" fill="#00E4EA"/>
<path d="M206.262 136.935L210.638 135.036C213.007 138.899 217.404 141.013 221.887 140.458L222.698 140.351L224.598 145.09L222.527 145.602C220.286 146.136 217.981 146.178 215.718 145.709L214.437 145.431L219.603 158.388C222.037 164.365 219.347 171.217 213.477 173.907C207.82 176.511 201.117 173.907 198.684 168.186L198.129 166.863C195.781 161.334 198.278 154.973 203.743 152.497L205.472 151.728L207.564 156.659L205.088 157.769C202.804 158.794 201.736 161.441 202.633 163.768L203.209 165.326C204.554 168.955 208.717 170.62 212.196 168.933C215.27 167.439 216.679 163.853 215.419 160.672L206.283 136.957L206.262 136.935Z" fill="#F0124F"/>
<path d="M204.79 137.576L208.974 135.762C211.237 139.454 215.442 141.482 219.732 140.949L220.501 140.863L222.315 145.41L220.33 145.901C218.195 146.413 215.975 146.456 213.819 146.008L212.581 145.751L217.854 158.645C220.181 164.365 217.598 170.919 211.984 173.501C206.562 175.999 200.158 173.501 197.831 168.015L197.298 166.735C195.056 161.462 197.447 155.357 202.677 152.988L204.32 152.241L206.327 156.958L203.958 158.026C201.78 159.007 200.734 161.526 201.609 163.768L202.164 165.262C203.445 168.72 207.437 170.342 210.767 168.72C213.713 167.29 215.058 163.853 213.862 160.822L204.79 137.64V137.576Z" fill="white"/>
<path d="M101.305 118.599C101.305 118.599 101.048 127.991 91.8697 130.339C82.6908 132.688 78.6991 125.131 78.6991 125.131" stroke="black" stroke-width="1.83086" stroke-linecap="round" stroke-linejoin="round"/>
<path d="M59.7634 94.3282C59.7634 94.3282 56.22 86.3021 49.9442 89.1411" stroke="black" stroke-width="1.83086" stroke-linecap="round" stroke-linejoin="round"/>
<path d="M93.405 199.33C93.405 199.33 93.96 195.402 97.7596 195.274C101.581 195.146 101.303 191.816 105.103 191.645C108.902 191.475 110.14 187.696 114.047 188.806" stroke="black" stroke-width="1.83086" stroke-miterlimit="10" stroke-linecap="round"/>
<path d="M93.8741 205.478C93.8741 205.478 98.3141 200.333 103.032 199.33C109.393 197.964 108.368 194.058 114.815 194.549C121.283 195.04 120.856 189.468 129.479 188.999" stroke="black" stroke-width="1.83086" stroke-miterlimit="10" stroke-linecap="round"/>
</svg>
