<svg width="231" height="249" viewBox="0 0 231 249" fill="none" xmlns="http://www.w3.org/2000/svg">
<path d="M15.1836 200.792L5.9967 194.982L0.186764 204.169L9.37362 209.978L15.1836 200.792Z" fill="#FFD729"/>
<path d="M92.1773 71.5222C95.9221 71.5222 98.9578 68.4865 98.9578 64.7417C98.9578 60.997 95.9221 57.9613 92.1773 57.9613C88.4326 57.9613 85.3969 60.997 85.3969 64.7417C85.3969 68.4865 88.4326 71.5222 92.1773 71.5222Z" fill="#4AFFA5"/>
<path d="M230.188 184.336L215.782 177.133L229.238 168.269L230.188 184.336Z" fill="#FF6B20"/>
<path d="M106.979 210.218L105.686 216.761L101.491 238.21C100.858 241.403 98.431 243.909 95.265 244.621L79.4615 248.157C77.773 248.526 76.6913 246.442 77.9576 245.281L83.9466 239.846C86.6113 237.419 88.1943 234.015 88.3526 230.401L89.0649 214.07L89.276 209.426L89.4607 205.284L103.127 209.136L106.979 210.218Z" fill="#FFED71"/>
<path d="M159.217 245.334L143.44 241.799C140.274 241.113 137.82 238.58 137.187 235.414L133.414 216.102L131.699 207.422L132.359 207.237L149.218 202.488L149.429 207.237L149.587 211.036L150.326 227.578C150.484 231.193 152.067 234.596 154.758 237.05L160.721 242.458C161.987 243.619 160.906 245.704 159.217 245.334Z" fill="#FFED71"/>
<path d="M223.62 130.04L221.984 135.369C220.849 139.089 217.103 141.332 213.304 140.593L205.31 140.092C202.619 139.564 198.951 142.545 198.107 145.157L196.577 149.801C193.807 158.243 187.95 165.288 180.167 169.588C180.035 169.667 179.903 169.72 179.771 169.799L178.162 170.643L177.37 171.066L175.629 167.636L168.241 153.019L173.676 151.014C174.653 150.645 175.602 150.249 176.499 149.748C182.805 146.529 187.475 140.778 189.348 133.865L195.812 109.857C196.234 108.326 198.397 108.3 198.872 109.804L199.69 119.143L219.847 121.993C222.986 123.312 224.622 126.795 223.62 130.04Z" fill="#FFED71"/>
<path d="M149.587 211.036L133.414 216.101L131.699 207.421L132.359 207.237H149.429L149.587 211.036Z" fill="black"/>
<path d="M60.5156 159.721L58.2466 169.957L56.136 179.482L53.4977 178.849C53.2074 178.769 52.8908 178.69 52.6006 178.611C52.0994 178.479 51.6245 178.347 51.1496 178.163C43.3665 175.683 36.6652 170.538 32.2592 163.626L29.6473 159.51C28.1698 157.188 23.8694 155.209 21.3894 156.37L13.7646 158.85C10.2557 160.512 6.08715 159.246 4.05565 155.948L1.15351 151.173C-0.614166 148.271 0.124563 144.471 2.84203 142.44L19.6745 134.736L20.1494 125.449C20.2285 123.84 22.3392 123.365 23.1307 124.737L35.3197 146.397C38.9606 152.888 45.2925 157.399 52.5215 158.771C53.2602 158.929 53.9989 159.035 54.7377 159.114L60.5156 159.721Z" fill="#FFED71"/>
<path d="M180.167 169.588L176.499 149.747C175.602 150.249 174.653 150.644 173.676 151.014L168.241 153.019L175.629 167.635L178.162 170.643L180.167 169.588Z" fill="black"/>
<path d="M51.1499 178.163L52.5218 158.771C53.2606 158.929 53.9993 159.035 54.738 159.114L60.5159 159.721L58.247 169.958L52.601 178.611L51.1499 178.163Z" fill="black"/>
<path d="M106.978 210.217L105.685 216.76L89.0638 214.069L89.2749 209.426L89.3804 209.136H103.126L106.978 210.217Z" fill="black"/>
<path d="M121.147 90.4385L192.329 185.022C199.347 194.335 193.094 207.712 181.459 208.318L56.6139 214.861C45.3219 215.442 37.6708 203.49 42.9738 193.491L96.6371 92.3381C101.624 82.9193 114.736 81.8903 121.147 90.4121V90.4385Z" fill="#25FFF2"/>
<path d="M110.831 152.36C110.699 155.763 110.013 158.955 108.826 161.488C101.254 177.635 81.0441 178.321 68.9078 167.715C59.7001 159.668 58.0644 147.32 64.0269 137.506C65.9001 134.393 68.5385 131.543 71.9419 129.142C79.0126 124.182 94.5259 123.866 102.942 131.174C108.72 136.213 111.121 144.84 110.831 152.36Z" fill="white"/>
<path d="M163.465 153.205C162.225 168.507 146.474 177.293 131.937 174.364C116.134 171.198 108.06 155.052 115.395 139.406C115.949 138.219 116.714 137.058 117.664 135.897C123.02 129.407 134.021 123.919 143.308 125.766C154.204 127.93 162.753 140.251 163.465 149.142C163.57 150.54 163.57 151.886 163.465 153.205Z" fill="white"/>
<path d="M105.448 174.812C105.448 174.812 108.271 185.708 112.281 185.576C116.291 185.444 119.114 173.968 119.114 173.968" stroke="black" stroke-width="1.83086" stroke-linecap="round" stroke-linejoin="round"/>
<path d="M163.464 153.205C159.717 159.299 153.042 163.864 144.916 165.104C131.144 167.188 118.428 158.851 116.528 146.424C115.974 142.783 116.396 139.195 117.663 135.897C123.018 129.407 134.02 123.919 143.307 125.766C154.203 127.93 162.751 140.251 163.464 149.142C163.569 150.54 163.569 151.886 163.464 153.205Z" fill="black"/>
<path d="M110.83 152.36C107.216 158.876 100.33 163.81 91.8344 165.103C78.036 167.187 65.3193 158.85 63.4197 146.423C62.9712 143.363 63.1823 140.355 64.0265 137.506C65.8997 134.393 68.5381 131.543 71.9415 129.142C79.0122 124.182 94.5255 123.866 102.942 131.174C108.72 136.213 111.12 144.84 110.83 152.36Z" fill="black"/>
<path d="M145.019 18.1758C145.019 18.1758 145.046 18.1758 145.072 18.2022L145.046 18.1758H145.019Z" fill="#25FFF2"/>
<path d="M151.775 29.4417C151.775 29.4417 150.166 25.0621 149.321 23.6374C148.714 22.6085 146.709 20.1549 145.68 18.9149C147.158 22.0545 139.665 29.6 128.716 35.932C117.609 42.3431 107.161 45.0606 105.393 42.0001C105.393 42.0001 107.161 46.7227 107.926 48.0418C108.718 49.3874 111.541 52.6589 111.541 52.6589C113.308 55.7193 123.756 53.0019 134.863 46.5908C145.971 40.1797 153.569 32.5022 151.801 29.4417H151.775Z" fill="#FFCB27"/>
<path d="M122.278 24.8771C111.171 31.2882 103.572 38.9657 105.34 42.0262L144.994 18.1758C142.145 16.1971 132.488 18.9409 122.252 24.8507L122.278 24.8771Z" fill="#FFED71"/>
<path d="M145.628 18.7826C145.496 18.5452 145.311 18.3605 145.074 18.2022C145.1 18.255 145.338 18.5188 145.681 18.9146C145.681 18.8618 145.681 18.809 145.628 18.7826Z" fill="#FFED71"/>
<path d="M128.691 35.9585C139.64 29.6266 147.159 22.081 145.655 18.9414C145.312 18.5193 145.101 18.2554 145.048 18.2291C145.048 18.2291 145.022 18.2291 144.995 18.2291L105.342 42.0794C107.109 45.1399 117.557 42.4224 128.664 36.0113L128.691 35.9585Z" fill="#FFED71"/>
<path d="M145.073 18.2019C145.073 18.2019 150.086 23.2147 129.823 35.2718C109.561 47.3289 105.366 41.9995 105.366 41.9995" stroke="black" stroke-width="1.83086" stroke-linecap="round" stroke-linejoin="round"/>
<path d="M142.092 29.7841C142.092 29.7841 145.02 33.4514 145.838 35.7995" stroke="black" stroke-width="1.83086" stroke-linecap="round" stroke-linejoin="round"/>
<path d="M132.198 37.2765C132.198 37.2765 135.127 40.9438 135.944 43.2919" stroke="black" stroke-width="1.83086" stroke-linecap="round" stroke-linejoin="round"/>
<path d="M117.636 43.8197C117.636 43.8197 120.564 47.487 121.382 49.8351" stroke="black" stroke-width="1.83086" stroke-linecap="round" stroke-linejoin="round"/>
<path d="M127.134 33.4768C136.261 27.8463 142.73 21.7739 141.583 19.9137C140.435 18.0535 132.106 21.11 122.978 26.7405C113.851 32.371 107.382 38.4434 108.53 40.3036C109.677 42.1638 118.007 39.1073 127.134 33.4768Z" fill="#25FFF2"/>
<path d="M195.994 100.306C195.994 100.306 199.423 97.1397 200.4 95.7941C201.112 94.8443 202.589 92.0213 203.328 90.5967C201.006 93.1822 191.139 89.1984 181.061 81.5472C170.85 73.7906 164.281 65.2161 166.418 62.3931C166.418 62.3931 162.751 65.8493 161.827 67.0629C160.878 68.3029 158.978 72.1812 158.978 72.1812C156.841 75.0042 163.384 83.5788 173.621 91.3354C183.831 99.092 193.857 103.102 195.994 100.279V100.306Z" fill="#FFCB27"/>
<path d="M188.792 71.3633C178.582 63.6066 168.556 59.5964 166.419 62.4194L203.778 89.7523C204.517 86.3489 198.237 78.5395 188.819 71.3897L188.792 71.3633Z" fill="#FFED71"/>
<path d="M203.433 90.5175C203.591 90.3064 203.697 90.0426 203.75 89.7788C203.723 89.8315 203.565 90.1481 203.327 90.623C203.354 90.5966 203.407 90.5702 203.433 90.5175Z" fill="#FFED71"/>
<path d="M181.06 81.5739C191.139 89.225 201.006 93.2088 203.328 90.6233C203.565 90.1484 203.723 89.8318 203.75 89.779C203.75 89.779 203.75 89.7526 203.75 89.7263L166.391 62.3933C164.254 65.2163 170.797 73.7908 181.034 81.5475L181.06 81.5739Z" fill="#FFED71"/>
<path d="M203.751 89.7789C203.751 89.7789 201.06 96.3483 182.09 82.3389C163.121 68.3294 166.418 62.4196 166.418 62.4196" stroke="black" stroke-width="1.83086" stroke-linecap="round" stroke-linejoin="round"/>
<path d="M191.933 91.5467C191.933 91.5467 189.69 95.6625 187.844 97.3246" stroke="black" stroke-width="1.83086" stroke-linecap="round" stroke-linejoin="round"/>
<path d="M181.195 85.2936C181.195 85.2936 178.952 89.4093 177.105 91.0715" stroke="black" stroke-width="1.83086" stroke-linecap="round" stroke-linejoin="round"/>
<path d="M169.533 74.4242C169.533 74.4242 167.29 78.54 165.443 80.2021" stroke="black" stroke-width="1.83086" stroke-linecap="round" stroke-linejoin="round"/>
<path d="M200.853 87.2414C202.124 85.4629 196.08 78.9677 187.353 72.734C178.627 66.5003 170.523 62.8886 169.252 64.6671C167.982 66.4456 174.026 72.9408 182.753 79.1745C191.479 85.4082 199.583 89.0199 200.853 87.2414Z" fill="#25FFF2"/>
<path d="M67.7702 110.49C67.7702 110.49 71.2 107.324 72.1762 105.979C72.8885 105.029 74.366 102.206 75.1047 100.781C72.783 103.367 62.9157 99.3829 52.8373 91.7318C42.6271 83.9752 36.0577 75.4006 38.1947 72.5776C38.1947 72.5776 34.5274 76.0338 33.604 77.2475C32.6542 78.4875 30.7547 82.3658 30.7547 82.3658C28.6176 85.1888 35.1606 93.7633 45.3973 101.52C55.6076 109.277 65.6332 113.287 67.7702 110.464V110.49Z" fill="#FFCB27"/>
<path d="M60.5688 81.5477C50.3586 73.791 40.333 69.7808 38.1959 72.6038L75.5545 99.9367C76.2932 96.5333 70.014 88.7239 60.5952 81.574L60.5688 81.5477Z" fill="#FFED71"/>
<path d="M75.2094 100.702C75.3677 100.491 75.4732 100.228 75.526 99.9637C75.4996 100.016 75.3413 100.333 75.1039 100.808C75.1303 100.782 75.183 100.755 75.2094 100.702Z" fill="#FFED71"/>
<path d="M52.8368 91.7324C62.9151 99.3836 72.7824 103.367 75.1041 100.782C75.3416 100.307 75.4999 99.9904 75.5263 99.9376C75.5263 99.9376 75.5263 99.9112 75.5263 99.8848L38.1677 72.5519C36.0307 75.3749 42.5737 83.9494 52.8104 91.7061L52.8368 91.7324Z" fill="#FFED71"/>
<path d="M75.5269 99.963C75.5269 99.963 72.8358 106.532 53.8663 92.523C34.8968 78.5135 38.1947 72.6037 38.1947 72.6037" stroke="black" stroke-width="1.83086" stroke-linecap="round" stroke-linejoin="round"/>
<path d="M63.7101 101.731C63.7101 101.731 61.4675 105.847 59.6207 107.509" stroke="black" stroke-width="1.83086" stroke-linecap="round" stroke-linejoin="round"/>
<path d="M52.97 95.4782C52.97 95.4782 50.7274 99.594 48.8806 101.256" stroke="black" stroke-width="1.83086" stroke-linecap="round" stroke-linejoin="round"/>
<path d="M41.2832 84.6085C41.2832 84.6085 39.0407 88.7243 37.1938 90.3864" stroke="black" stroke-width="1.83086" stroke-linecap="round" stroke-linejoin="round"/>
<path d="M72.6327 97.426C73.9031 95.6475 67.8589 89.1523 59.1324 82.9186C50.406 76.6849 42.3019 73.0732 41.0314 74.8517C39.761 76.6302 45.8053 83.1254 54.5317 89.3591C63.2581 95.5928 71.3622 99.2044 72.6327 97.426Z" fill="#25FFF2"/>
<path d="M47.0103 58.5943C47.0103 58.5943 39.6494 61.3646 41.2323 66.6676" stroke="black" stroke-width="1.83086" stroke-linecap="round" stroke-linejoin="round"/>
<path d="M38.1965 56.9059C38.1965 56.9059 33.7114 59.9399 35.2416 63.8182" stroke="black" stroke-width="1.83086" stroke-linecap="round" stroke-linejoin="round"/>
<path d="M125.053 9.60091C125.053 9.60091 120.779 4.87832 123.628 1" stroke="black" stroke-width="1.83086" stroke-linecap="round" stroke-linejoin="round"/>
<path d="M117.638 11.606C117.638 11.606 113.364 10.7617 115.896 6.03911" stroke="black" stroke-width="1.83086" stroke-linecap="round" stroke-linejoin="round"/>
<path d="M203.83 98.1687C203.83 98.1687 208.526 100.86 206.838 104.052" stroke="black" stroke-width="1.83086" stroke-linecap="round" stroke-linejoin="round"/>
<path d="M207.207 93.103C207.207 93.103 212.906 94.475 212.906 101.203" stroke="black" stroke-width="1.83086" stroke-linecap="round" stroke-linejoin="round"/>
<path d="M11.9967 141.173C11.9967 141.173 14.081 150.592 17.3261 154.365" stroke="black" stroke-width="1.83086" stroke-linecap="round" stroke-linejoin="round"/>
<path d="M13.9248 147.769C13.9248 147.769 5.71968 149.299 5.19202 151.727" stroke="black" stroke-width="1.83086" stroke-linecap="round" stroke-linejoin="round"/>
<path d="M15.6127 151.726C15.6127 151.726 8.35733 153.468 7.90881 155.816" stroke="black" stroke-width="1.83086" stroke-linecap="round" stroke-linejoin="round"/>
<path d="M12.7117 143.997C12.7117 143.997 4.29543 143.997 2.84436 147.769" stroke="black" stroke-width="1.83086" stroke-linecap="round" stroke-linejoin="round"/>
<path d="M20.1239 126.003C20.1239 126.003 19.7281 133.918 19.86 135.264C17.3273 135.211 15.6124 141.147 21.0473 141.939" stroke="black" stroke-width="1.83086" stroke-linecap="round" stroke-linejoin="round"/>
<path d="M210.031 122.916C210.031 122.916 211.535 129.749 208.422 136.134" stroke="black" stroke-width="1.83086" stroke-linecap="round" stroke-linejoin="round"/>
<path d="M220.399 130.911C220.399 130.911 213.645 131.728 210.215 130.145" stroke="black" stroke-width="1.83086" stroke-linecap="round" stroke-linejoin="round"/>
<path d="M219.978 126.215C219.978 126.215 217.366 128.404 210.427 126.215" stroke="black" stroke-width="1.83086" stroke-linecap="round" stroke-linejoin="round"/>
<path d="M219.029 135.475C219.029 135.475 213.99 137.137 209.268 134.077" stroke="black" stroke-width="1.83086" stroke-linecap="round" stroke-linejoin="round"/>
<path d="M198.74 111.441L199.557 119.487C203.145 118.67 206.786 127.297 199.082 127.534" stroke="black" stroke-width="1.83086" stroke-linecap="round" stroke-linejoin="round"/>
</svg>
