<svg width="27" height="25" viewBox="0 0 27 25" fill="none" xmlns="http://www.w3.org/2000/svg">
    <path d="M6.15914 3.70538C6.03912 2.62557 5.73917 2.20564 5.5592 1.8457H24.9592C26.3059 1.8457 27.2829 3.1277 26.9258 4.42617L25.4757 9.52437C24.5759 12.9438 24.3359 13.8436 20.6766 13.8436H7.83889C7.65892 12.7038 7.179 9.9443 6.99903 8.92447L6.15914 3.70538Z" fill="#9AC8FF"/>
    <path d="M24.0961 22.1224C24.0961 23.3151 23.1292 24.282 21.9365 24.282C20.7438 24.282 19.7769 23.3151 19.7769 22.1224C19.7769 20.9297 20.7438 19.9628 21.9365 19.9628C23.1292 19.9628 24.0961 20.9297 24.0961 22.1224Z" fill="#019BF0"/>
    <path d="M10.4182 22.1224C10.4182 23.3151 9.45135 24.282 8.25862 24.282C7.0659 24.282 6.099 23.3151 6.099 22.1224C6.099 20.9297 7.0659 19.9628 8.25862 19.9628C9.45135 19.9628 10.4182 20.9297 10.4182 22.1224Z" fill="#019BF0"/>
    <path d="M23.2561 17.3231H10.0584C8.32849 17.216 7.62659 16.7173 6.99896 14.8035L5.19927 3.64546C4.86944 2.05782 4.35599 1.6066 2.91967 1.48584H1" stroke="#019BF0" stroke-width="2" stroke-linecap="round"/>
</svg>
