<svg xmlns="http://www.w3.org/2000/svg" width="1200" height="282"><path d="M624 69c4.31 2.847 6.439 5.126 8 10 .26 2.528.26 2.528.275 5.23l.029 3.085-.003 3.302.013 3.426c.006 2.389.006 4.778.002 7.166-.003 3.646.02 7.29.045 10.936.003 2.324.003 4.648.002 6.972l.028 3.29c-.041 6.8-.492 12.136-5.016 17.53-3.783 1.693-7.315 1.829-11.375 1.063-3.57-1.933-5.695-4.084-7-8a103.726 103.726 0 0 1-.161-5.294l-.03-3.278-.012-3.541-.017-3.644c-.01-2.546-.016-5.092-.02-7.638-.01-3.892-.041-7.782-.072-11.673a6831.47 6831.47 0 0 1-.016-7.42l-.038-3.524c.028-10.177.028-10.177 3.366-14.988 3.861-3.218 7.059-3.694 12-3zm-20 23c.572 16.457.572 16.457-3 22-4.205 4-4.205 4-7 4v2l-2.188 2.125c-8.301 8.067-11.082 18.019-11.25 29.313.051 7.15 1.125 13.134 4.438 19.562l1.215 2.387c5.185 8.852 14.087 14.89 23.77 17.988 11.127 2.306 21.858 1.207 31.48-4.953 9.356-6.912 16.03-15.353 18.215-26.953 1.626-12.539-.6-24.25-8.106-34.61-2.29-2.706-4.756-4.7-7.574-6.859-6.831-6.521-6.831-6.521-7.227-9.993.01-.738.02-1.477.032-2.237l.02-2.432.05-2.525.027-2.561c.024-2.084.06-4.168.098-6.252 12.431 1.552 21.642 9.713 29.125 19.188 4.257 5.582 7.46 11.188 9.875 17.812l.96 2.355c5.205 15.015 3.259 34.037-3.422 48.147C665.404 195.642 653.08 206.157 636 212c-13.213 3.824-29.805 1.967-42-4-15.158-8.423-25.82-20.7-31.258-37.324-4.605-16.603-3.78-34.161 4.258-49.676 2.165-3.472 4.522-6.746 7-10l2.25-3.125C583.067 100.748 593.74 92 604 92zm-500.25 21.839 2.842-.03 3.053-.012 3.16-.017c2.207-.01 4.414-.016 6.62-.02 3.364-.01 6.728-.041 10.093-.073 2.146-.006 4.293-.011 6.439-.015l3.034-.038c7.23.023 11.995 1.022 17.821 5.553 2.827 3.635 3.434 6.291 4.188 10.813-1 1-1 1-3.208 1.12l-2.954-.006H151.5l-3.63-.016-3.695-.005c-3.913-.005-7.826-.018-11.738-.03-2.646-.006-5.29-.01-7.936-.014-6.5-.011-13.001-.028-19.502-.049v10h56c-2.288 9.15-2.288 9.15-7 12-4.883 2.613-9.723 2.255-15.113 2.195l-2.938-.008c-3.088-.011-6.174-.037-9.262-.062-2.097-.01-4.194-.02-6.29-.027-5.133-.022-10.265-.057-15.397-.098v15h56c-1.036 6.218-2.336 9.659-7.063 13.813-3.377 2.07-6.179 2.322-10.048 2.364l-3.156.039-3.409.022-3.509.025c-2.452.014-4.904.024-7.356.032-3.746.017-7.492.061-11.238.105-2.382.01-4.765.019-7.147.026l-3.39.053c-6.225-.017-9.971-.272-14.684-4.479-3.723-4.126-5.107-7.1-5.193-12.62l-.049-2.833c-.044-4.28-.085-8.561-.108-12.842a701.81 701.81 0 0 0-.082-6.758 789.005 789.005 0 0 1-.091-9.771l-.07-3.028c.02-6.603 1.244-11.075 5.593-16.148 4.366-3.301 8.365-4.116 13.75-4.161zM166 114c1.762-.034 3.523-.058 5.285-.078l2.973-.044c4.734.21 7.56 2.1 11.054 5.122 2.583 3.06 2.82 5.704 2.893 9.563l.06 2.79.051 3.002.063 3.082c.066 3.25.125 6.5.184 9.75l.13 6.608c.108 5.402.207 10.803.307 16.205h40c0 8.243 0 8.243-4 13-4.633 3.762-9.206 3.452-14.902 3.434l-2.895.015c-2.017.007-4.033.006-6.05-.003-3.077-.008-6.152.02-9.23.052-1.962.002-3.925.001-5.888-.002l-2.775.034c-5.593-.06-8.824-.793-13.26-4.53-3.922-4.328-4.125-8.268-4.114-13.962v-3.64l.016-3.914.005-4.018c.003-3.518.013-7.036.024-10.554.01-3.593.015-7.186.02-10.78.01-7.043.028-14.088.049-21.132zm91.332-.3 3.004-.014c2.092-.005 4.184-.006 6.276-.002 3.18.003 6.359-.02 9.538-.045 2.04-.003 4.08-.003 6.12-.002l2.85-.028c6.442.044 13.207.591 18.506 4.63 3.985 4.2 3.597 6.542 4.374 12.761h-55v10h55c-1.165 8.154-1.165 8.154-6 12-4.826 2.66-9.758 2.254-15.113 2.195l-2.938-.008c-3.088-.011-6.174-.037-9.262-.062-2.097-.01-4.194-.02-6.29-.027-5.133-.022-10.265-.057-15.397-.098v15h55c-1.125 7.875-1.125 7.875-3 11h-2v2c-5.726 3.741-11.246 3.451-17.934 3.434l-3.488.015c-2.43.007-4.86.006-7.29-.003-3.71-.008-7.417.02-11.126.052-2.365.002-4.73.001-7.096-.002l-3.346.034c-6.463-.058-10.486-.637-15.72-4.53-5.168-6.392-5.163-12.281-5.203-20.14l-.017-2.672c-.01-1.863-.016-3.725-.02-5.588-.01-2.827-.041-5.652-.072-8.479-.007-1.816-.012-3.633-.016-5.45l-.038-2.528c.023-6.114.653-12.842 4.676-17.738 6.272-5.606 13.075-5.713 21.022-5.706zm80.328.804 3.705-.005c2.58.002 5.16.014 7.739.034 3.948.03 7.895.021 11.843.008 2.509.006 5.017.015 7.526.025l3.576-.008 3.338.038 2.926.016c5.002.722 8.635 3.654 11.738 7.58 1.833 3.492 1.577 7 .949 10.808-1.558 4.125-3.991 6.148-7.883 8.219-3.955 1.46-7.929 1.551-12.117 1.781l-1-12h-34l-1 40h36l1-6c2.816-4.657 5.856-6.371 11-8 2.725-.22 5.259-.144 8 0 2.555 5.11 1.79 13.185.281 18.563-2.286 4.867-5.43 8.012-10.281 10.437a95.6 95.6 0 0 1-5.165.177l-3.268.039-3.547.022-3.64.025a3248.2 3248.2 0 0 1-7.645.032c-3.89.017-7.778.061-11.667.105-2.474.01-4.949.019-7.423.026l-3.518.053c-6.577-.018-10.943-.256-16.127-4.479-4.558-5.787-4.589-10.966-4.531-18.156l-.012-3.216c-.003-2.235.005-4.471.022-6.707.02-3.41 0-6.819-.026-10.23.003-2.178.008-4.356.016-6.535l-.025-3.072c.101-7.688 1.383-11.979 7.015-17.49 5.35-2.408 10.4-2.145 16.201-2.09zm70.403.269h2.13c2.316 0 4.632.016 6.948.032l4.825.008c4.229.008 8.457.028 12.685.05 4.317.02 8.634.03 12.95.04 8.467.02 16.933.055 25.399.097.198 8.818.198 8.818-3 13-2.582 2.582-4.517 2.92-8.106 3.114l-2.222-.016-2.422-.01-2.5-.025-2.547-.014c-2.068-.012-4.135-.03-6.203-.049l-.018 1.827a3661.23 3661.23 0 0 1-.244 18.833c-.034 2.343-.062 4.685-.084 7.028-.034 3.368-.086 6.737-.142 10.105l-.02 3.17c-.185 9.167-.185 9.167-3.492 13.037-4.956 2.899-10.33 2.162-15.891 2.058L423 187c-.074-12.53.152-25.038.5-37.563l.145-5.404c.115-4.344.235-8.689.355-13.033h-30c0-10.464 0-10.464 3-14 3.587-2.397 6.828-2.242 11.063-2.227zM476 115l33.125-.25 10.434-.11c2.733-.012 5.466-.022 8.199-.03l2.136-.032c2.092-.03 4.182-.034 6.274-.032l3.567-.027c5.108.752 8.18 3.279 11.577 7.043 3.595 5.193 2.908 10.67 2.938 16.75l.063 3.131c.028 5.606-.088 9.743-3.313 14.557-3.153 3.153-6.74 3.935-11 5 3.41 6.314 7.54 11.819 11.93 17.479l1.586 2.072 1.446 1.864C556 184 556 184 556 186c-6.316.509-12.612.797-18.95.66l-3.158-.058c-3.683-.767-5.2-2.222-7.705-4.977A244.483 244.483 0 0 1 523 175c-1.934-3.06-4.007-6.021-6.063-9-4.42-6.6-8.671-13.297-12.937-20h29v-15h-36l.14 10.324c.032 3.303.056 6.606.08 9.91.02 2.293.047 4.587.082 6.881.048 3.299.071 6.597.089 9.897l.062 3.103c.002 4.339-.02 7.11-2.165 10.947C489.066 187.332 484.52 186 476 186v-71zm209 0c1.74-.048 3.479-.081 5.219-.11l2.935-.06c5.232.313 9.229 2.448 12.784 6.233 1.765 3.22 2.186 5.805 2.176 9.408v2.73l-.016 2.936-.005 3.014c-.005 3.179-.018 6.358-.03 9.536-.006 2.155-.01 4.31-.014 6.463-.011 5.284-.028 10.567-.049 15.85h15v-45c14.801 1.233 14.801 1.233 20.313 6 3.26 3.865 2.819 7.942 2.785 12.73l-.005 2.274c-.005 2.395-.018 4.79-.03 7.184-.006 1.624-.01 3.248-.014 4.873-.01 3.98-.03 7.96-.049 11.939h15l-.048-4.143c-.054-5.079-.088-10.157-.117-15.236-.015-2.197-.035-4.394-.061-6.59-.037-3.16-.054-6.32-.067-9.48l-.047-2.971c-.002-8.613-.002-8.613 3.34-12.58 5.018-3.764 8.467-5.136 14.688-5.063l3.011.028L784 115c.07 7.85.123 15.7.155 23.55.016 3.645.037 7.29.071 10.935.033 3.521.05 7.042.059 10.563.008 1.99.031 3.981.055 5.972v3.7l.02 3.243c-.426 3.593-1.487 5.954-3.36 9.037-7.44 5.627-16.51 4.562-25.414 4.496-1.7 0-3.401.002-5.102.005-3.552 0-7.104-.012-10.656-.034-4.544-.029-9.087-.026-13.631-.013-3.507.007-7.014-.001-10.521-.014-1.675-.004-3.35-.004-5.026 0-2.343.002-4.685-.014-7.027-.036l-2.079.014c-4.559-.07-7.665-1.041-11.544-3.418-4.034-4.47-5.126-6.873-5.114-12.827v-3.7l.016-4.012.005-4.094c.003-3.594.013-7.188.024-10.782.01-3.666.015-7.333.02-11 .01-7.194.028-14.39.049-21.585zm122.548-.177 3.52-.039 3.823-.022 3.916-.025c2.74-.015 5.481-.025 8.222-.032 3.501-.011 7.002-.046 10.504-.085 3.348-.033 6.697-.037 10.045-.046l3.798-.053c10.804.027 10.804.027 15.624 4.479 4.056 4.385 5.11 7.613 5.161 13.474l.03 2.66.012 2.854.017 2.96c.01 2.065.016 4.13.02 6.195.01 3.147.041 6.294.072 9.441.007 2.01.012 4.02.016 6.03l.038 2.835c-.021 6.218-.621 11.436-4.901 16.293-4.449 3.3-6.526 4.383-12.029 4.42l-3.53.028-3.832.013-3.924.017c-2.744.01-5.489.017-8.234.02-3.51.006-7.02.03-10.531.058-3.354.023-6.707.025-10.06.03l-3.814.038-3.56-.01-3.123.011c-4.523-.587-7.727-2.815-10.578-6.304-2.892-3.937-3.365-6.725-3.427-11.521l-.039-2.65-.022-2.845-.025-2.952c-.014-2.061-.024-4.122-.032-6.183-.012-2.101-.032-4.202-.062-6.302a852.199 852.199 0 0 1-.069-9.126l-.053-2.82c.02-6.042 1.011-10.633 4.479-15.664 4.283-3.977 6.786-5.122 12.548-5.177zM812 130v41l38-1v-40h-38zm68-15 32-.25 10.063-.11c2.645-.012 5.291-.022 7.937-.03l2.055-.032c8.063-.118 14.113-.094 20.945 4.422 4.688 4.591 4.569 9.549 4.645 15.783l-.02 3.655.098 3.642c.01 9.857.01 9.857-3.262 14.08-3.37 3.252-7.015 4.537-11.461 5.84l1.253 1.697a22135.501 22135.501 0 0 1 7.595 10.285l1.894 2.569 1.746 2.364C959 183.757 959 183.757 959 187c-6.061.51-12.096.794-18.18.648l-3.038-.065c-3.535-.74-4.997-2.129-7.407-4.77-.804-1.577-1.601-3.159-2.335-4.77-2.3-4.518-5.376-8.611-8.227-12.793a2575.497 2575.497 0 0 1-3.543-5.36 219.37 219.37 0 0 0-6.196-8.906C908 148 908 148 908 146h29v-15h-36l.105 10.105c.024 3.234.042 6.467.06 9.7.015 2.246.035 4.492.061 6.737.037 3.23.054 6.459.067 9.688.015 1.003.03 2.005.047 3.038.002 8.764.002 8.764-3.34 12.732-5.972 4.44-9.7 3-18 3v-71zm87 0a707.68 707.68 0 0 1 6.273-.105l3.53-.06c4.154.214 6.226 1.272 9.197 4.165 3.972 4.804 3.384 9.849 3.293 15.77l-.013 3.14c-.017 3.3-.054 6.601-.092 9.903a5436.23 5436.23 0 0 0-.042 6.724c-.03 5.488-.089 10.975-.146 16.463h41c0 6.224-.319 7.398-4 12-4.849 4.261-9.558 4.183-15.762 4.238l-2.62.025c-1.831.014-3.663.024-5.495.032-1.865.012-3.73.032-5.594.062-2.702.043-5.402.059-8.103.069l-2.498.053c-5.692-.021-10.372-.884-14.928-4.479-5.39-6.116-4.515-14.25-4.39-21.906a1244.305 1244.305 0 0 1 .116-14.457c.04-3.566.059-7.133.079-10.7.042-6.979.11-13.958.195-20.937zm48 0c11.336-.093 22.671-.164 34.007-.207 5.264-.021 10.528-.05 15.792-.095 5.083-.043 10.166-.067 15.25-.078 1.936-.007 3.872-.021 5.808-.043 2.72-.03 5.437-.033 8.157-.031l2.406-.044c5.618.041 9.878 1.379 14.58 4.498 3.87 4.068 5.112 7.2 5.177 12.743l.039 2.914.022 3.144.025 3.24c.014 2.263.024 4.527.032 6.79.017 3.458.061 6.914.105 10.37.01 2.2.019 4.4.026 6.6l.053 3.125c-.018 6.015-.456 9.498-4.479 14.074-2.035 1.426-2.035 1.426-4.063 2.313l-2.035.925c-3.98 1.594-7.026 1.884-11.301 1.876h-1.952c-2.127 0-4.253-.009-6.38-.016l-4.426-.005a6235.08 6235.08 0 0 1-11.644-.024c-4.658-.012-9.316-.017-13.974-.023-7.075-.01-14.15-.029-21.225-.046v-46h22v30h36v-40l-14.48.07c-3.031.01-6.062.02-9.092.028-4.809.012-9.617.026-14.425.053-3.878.022-7.755.034-11.632.039-1.478.003-2.956.01-4.434.021-2.073.015-4.146.017-6.219.016l-3.573.014c-4.528-.347-7.285-1.596-10.895-4.304-2.338-3.052-2.586-3.968-2.89-7.62l-.22-2.452L1015 115z" fill="#fff"/></svg>