<svg xmlns="http://www.w3.org/2000/svg" width="4168" height="868" viewBox="0 0 4168 868" version="1.1"><path d="M 506.500 140.884 C 502.650 142.407, 486.225 148.752, 470 154.984 C 453.775 161.217, 439.712 166.991, 438.748 167.815 C 437.086 169.237, 437.009 182.436, 437.248 424.907 L 437.500 680.500 462.077 680.767 C 491.486 681.087, 489.513 681.846, 500.337 666.038 C 510.122 651.747, 514.874 648.815, 522.152 652.579 C 523.831 653.447, 530.048 658.059, 535.967 662.829 C 560.132 682.299, 577.472 688.590, 610 689.689 C 628.630 690.318, 642.707 688.759, 657.757 684.398 C 740.940 660.292, 792.925 570.344, 779.354 474 C 775.200 444.507, 763.137 413.923, 746.224 390 C 738.020 378.395, 717.348 357.508, 706.500 349.860 C 657.366 315.223, 597.760 308.503, 537.855 330.847 C 532 333.031, 526.269 335.321, 525.119 335.936 L 523.029 337.055 522.765 239.439 L 522.500 141.823 520.139 139.911 C 517.046 137.407, 514.910 137.560, 506.500 140.884 M 227.750 317.045 C 198.498 318.847, 163.222 326.634, 134.481 337.635 C 124.502 341.455, 120.014 345.074, 119.985 349.327 C 119.977 350.522, 122.318 362.958, 125.188 376.962 C 132.267 411.501, 132.336 411.569, 153.835 405.124 C 177.129 398.142, 208.328 392.609, 233.228 391.043 C 274.228 388.465, 290.968 397.187, 298.106 424.846 C 299.951 431.993, 302.994 465.339, 301.902 466.432 C 301.640 466.693, 298.293 465.768, 294.463 464.377 C 276.394 457.813, 252.267 454.106, 222.500 453.321 C 199.103 452.704, 185.816 453.623, 169 457.022 C 125.363 465.842, 90.807 490.582, 74.468 524.701 C 54.015 567.410, 65.588 629.259, 99.793 660.055 C 122.187 680.216, 149.529 689.979, 183.644 689.994 C 224.438 690.012, 253.492 681.930, 286.048 661.507 C 304.603 649.867, 307.698 648.949, 312.210 653.750 C 313.632 655.263, 316.824 660.570, 319.304 665.545 C 321.784 670.519, 325.161 676.031, 326.808 677.795 L 329.802 681 354.382 681 L 378.962 681 379.534 678.720 C 379.849 677.465, 379.937 623.578, 379.729 558.970 C 379.393 454.379, 379.164 440.239, 377.636 430 C 371.983 392.114, 360.880 367.589, 340.685 348.373 C 326.452 334.830, 310.656 326.498, 289.805 321.535 C 271.551 317.190, 250.327 315.654, 227.750 317.045 M 3312 317.057 C 3244.789 321.984, 3185.728 362.291, 3156.528 423.161 C 3128.312 481.979, 3132.902 551.818, 3168.560 606.240 C 3198.446 651.854, 3244.736 681.519, 3298.500 689.514 C 3312.824 691.644, 3339.049 691.676, 3352.909 689.580 C 3426.880 678.391, 3486.993 625.246, 3506.431 553.854 C 3510.743 538.014, 3512.132 528.412, 3512.712 510.425 C 3513.669 480.780, 3509.381 456.933, 3498.415 430.919 C 3467.338 357.192, 3392.025 311.191, 3312 317.057 M 965 319.505 C 907.407 327.379, 860.046 361.663, 833.533 414.670 C 805.998 469.720, 806.174 538.825, 833.991 594.500 C 843.378 613.286, 851.821 624.911, 867.453 640.570 C 900.416 673.590, 941.331 689.915, 991.289 689.980 C 1040.822 690.046, 1086.462 675.072, 1120.725 647.515 C 1130.202 639.892, 1132.453 635.618, 1129.795 630.291 C 1127.443 625.577, 1098.112 586.233, 1095.300 584.021 C 1091.142 580.751, 1087.293 581.444, 1078.459 587.056 C 1058.541 599.709, 1040.987 607.467, 1022.500 611.787 C 1013.219 613.956, 1009.156 614.354, 996.500 614.330 C 983.674 614.307, 980.122 613.936, 971.989 611.770 C 953.056 606.727, 937.753 597.672, 923.928 583.331 C 908.106 566.918, 898.246 546.632, 895.697 525.250 L 895.190 521 1017.947 521 L 1140.704 521 1144.102 518.749 C 1149.777 514.988, 1151.829 509.348, 1152.793 494.858 C 1158.410 410.437, 1110.432 342.487, 1031.076 322.475 C 1013.894 318.142, 984.599 316.825, 965 319.505 M 1350.500 319.116 C 1327.432 322.467, 1309.536 330.755, 1288.211 347.962 C 1282.203 352.809, 1276.353 357.276, 1275.210 357.888 C 1269.144 361.134, 1263.850 357.327, 1254.572 343.048 C 1247.873 332.739, 1243.067 327.356, 1239.271 325.913 C 1237.950 325.411, 1228.449 325, 1218.157 325 C 1202.840 325, 1199.042 325.282, 1197.223 326.557 L 1195 328.113 1195 502.902 C 1195 670.964, 1195.070 677.754, 1196.829 679.345 C 1198.463 680.824, 1202.700 681, 1236.638 681 C 1267.856 681, 1274.963 680.747, 1276.559 679.581 C 1278.454 678.196, 1278.512 675.612, 1279.015 570.831 L 1279.530 463.500 1281.781 455.500 C 1290.891 423.123, 1312.202 403.742, 1345.628 397.437 C 1352.405 396.158, 1357.806 395.888, 1368.500 396.291 C 1385.487 396.931, 1394.721 399.120, 1408 405.655 C 1416.014 409.598, 1418.916 411.751, 1426.554 419.415 C 1434.151 427.038, 1436.359 430.029, 1440.278 438 C 1442.847 443.225, 1445.956 451.325, 1447.188 456 C 1449.422 464.481, 1449.429 464.739, 1449.964 571.097 C 1450.408 659.390, 1450.736 677.978, 1451.872 679.347 C 1453.106 680.832, 1457.173 681, 1491.967 681 C 1528.211 681, 1530.796 680.883, 1532.345 679.171 C 1533.863 677.494, 1534 668.634, 1534 572.222 C 1534 462.063, 1533.803 456.212, 1529.441 437 C 1514.266 370.162, 1464.420 326.827, 1393.789 319.067 C 1382.512 317.828, 1359.182 317.854, 1350.500 319.116 M 1670 319.591 C 1643.413 323.442, 1620.382 333.974, 1603.692 349.913 C 1584.155 368.573, 1574.724 390.317, 1574.814 416.500 C 1574.911 444.818, 1584.599 466.896, 1606.408 488.500 C 1623.097 505.032, 1640.385 515.822, 1678 533.182 C 1730.782 557.542, 1743.047 568.055, 1742.978 588.876 C 1742.931 603.213, 1734.870 611.934, 1717.477 616.464 C 1709.662 618.500, 1690.079 618.465, 1677.926 616.393 C 1659.166 613.196, 1634.880 604.497, 1617.990 594.926 C 1609.216 589.954, 1604.306 589.424, 1600.462 593.036 C 1597.696 595.634, 1575.256 637.400, 1574.961 640.500 C 1574.285 647.583, 1576.502 650.252, 1591.375 660.252 C 1621.829 680.729, 1661.872 691.085, 1705.374 689.734 C 1725.114 689.121, 1738.563 686.820, 1754.265 681.369 C 1791.748 668.355, 1817.571 643.352, 1827.669 610.297 C 1830.102 602.332, 1830.358 599.986, 1830.374 585.500 C 1830.393 568.016, 1829.393 562.140, 1824.032 548.238 C 1817.888 532.307, 1804.442 515.889, 1787.012 503.035 C 1770.373 490.765, 1750.839 480.314, 1714.238 464.100 C 1675.728 447.041, 1665.879 440.691, 1659.887 429.060 C 1656.866 423.195, 1656.218 414.301, 1658.406 408.716 C 1660.348 403.759, 1662.232 401.382, 1667 397.876 C 1684.360 385.109, 1725.730 389.687, 1767.898 409.042 C 1778.093 413.721, 1779.304 414.055, 1782.390 413.036 C 1784.243 412.425, 1786.430 411.154, 1787.250 410.212 C 1788.071 409.271, 1794.200 398.124, 1800.871 385.443 C 1816.650 355.448, 1816.650 355.458, 1801.853 345.967 C 1779.981 331.936, 1751.054 322.450, 1719.789 319.055 C 1706.704 317.634, 1681.650 317.903, 1670 319.591 M 2013.609 319.553 C 1981.080 323.982, 1947.419 338.666, 1922 359.514 C 1914.181 365.928, 1899.860 380.365, 1893.605 388.142 C 1860.259 429.595, 1846.602 486.449, 1857.026 540.411 C 1872 617.919, 1936.180 678.212, 2014.662 688.500 C 2104.732 700.307, 2189.397 646.846, 2216.821 560.848 C 2223.103 541.150, 2225.359 526.096, 2225.341 504 C 2225.325 484.062, 2223.993 473.330, 2219.338 455.609 C 2200.345 383.311, 2138.901 329.408, 2064.136 319.455 C 2051.015 317.708, 2026.812 317.755, 2013.609 319.553 M 2420.863 319.072 C 2412.166 320.349, 2400.189 323.623, 2392.276 326.886 C 2379.979 331.957, 2369.774 338.629, 2351.683 353.425 C 2340.452 362.610, 2336.992 361.331, 2325.468 343.731 C 2321.783 338.104, 2317.583 332.222, 2316.134 330.661 C 2311.158 325.297, 2309.709 325, 2288.550 325 C 2270.333 325, 2268.864 325.136, 2267 327 C 2265.015 328.985, 2265 330.333, 2265 502.777 C 2265 658.441, 2265.162 676.787, 2266.557 678.777 L 2268.113 681 2306.934 681 C 2341.819 681, 2345.894 680.832, 2347.128 679.347 C 2348.264 677.978, 2348.589 659.486, 2349.018 571.597 L 2349.536 465.500 2352.200 455.790 C 2358.554 432.633, 2372.140 415.092, 2391 405.696 C 2406.165 398.141, 2413.226 396.664, 2434.500 396.599 C 2449.825 396.551, 2453.690 396.860, 2460.508 398.677 C 2486.694 405.655, 2504.601 421.413, 2514.285 446 C 2520.024 460.572, 2520 460.046, 2520 571.545 C 2520 673.342, 2520.148 678.202, 2523.313 680.214 C 2523.966 680.630, 2541.680 680.976, 2562.679 680.985 C 2603.990 681.001, 2603.183 681.105, 2604.561 675.614 C 2604.871 674.379, 2604.947 625.923, 2604.730 567.934 C 2604.386 475.814, 2604.126 461.190, 2602.676 452.130 C 2596.777 415.283, 2584.035 387.800, 2562.226 364.883 C 2537.862 339.281, 2503.799 323.424, 2463.789 319.059 C 2452.655 317.845, 2429.171 317.852, 2420.863 319.072 M 2959 319.505 C 2922.965 324.432, 2887.765 340.630, 2860.237 364.952 C 2830.792 390.968, 2809.425 428.284, 2802.021 466.621 C 2789.634 530.759, 2809.192 594.483, 2854.623 638.004 C 2891.681 673.505, 2938.401 691.329, 2990 689.651 C 3018.319 688.729, 3039.052 683.389, 3064.940 670.346 C 3083.683 660.903, 3095.698 652.289, 3110.056 638 C 3122.864 625.253, 3126.661 619.285, 3125.454 613.793 C 3124.660 610.174, 3111.489 596.860, 3106.769 594.905 C 3102.016 592.935, 3099.078 594.686, 3087.570 606.344 C 3073.752 620.345, 3063.189 628.413, 3048.756 635.990 C 3027.020 647.402, 3010.122 651.432, 2984 651.432 C 2964.527 651.432, 2955.859 650.143, 2939.315 644.787 C 2896.617 630.966, 2861.811 596.048, 2847.169 552.346 C 2831.950 506.920, 2838.558 457.715, 2865.077 419 C 2892.817 378.502, 2939.763 355.325, 2990 357.326 C 3013.727 358.271, 3031.378 362.974, 3053 374.112 C 3065.239 380.417, 3073.813 386.388, 3084.387 395.971 C 3091.131 402.083, 3095.571 403.906, 3100.162 402.449 C 3103.129 401.507, 3115.715 389.427, 3117.687 385.629 C 3118.636 383.800, 3118.950 381.545, 3118.551 379.421 C 3117.251 372.492, 3102.475 358.107, 3085 346.758 C 3062.129 331.905, 3034.901 322.292, 3006.500 319.045 C 2994.476 317.671, 2970.735 317.900, 2959 319.505 M 3680 319.025 C 3657.083 322.188, 3635.069 330.509, 3619.609 341.851 C 3611.921 347.492, 3600.976 357.984, 3597.405 363.137 C 3595.904 365.303, 3594.358 366.721, 3593.970 366.288 C 3593.582 365.855, 3592.203 357.644, 3590.906 348.043 C 3587.794 325.010, 3588.183 325.500, 3573 325.500 C 3561.988 325.500, 3561.792 325.541, 3559.405 328.316 L 3556.983 331.131 3557.242 503.652 L 3557.500 676.173 3560.306 678.587 C 3562.980 680.887, 3563.760 681, 3577 681 C 3590.239 681, 3591.020 680.887, 3593.694 678.587 L 3596.500 676.174 3597.055 561.337 C 3597.607 446.949, 3597.618 446.461, 3599.852 436.617 C 3609.911 392.296, 3641.544 362.294, 3684.900 355.954 C 3697.617 354.095, 3719.165 355.204, 3731.206 358.337 C 3767.987 367.908, 3795.532 395.325, 3805.737 432.523 L 3808.474 442.500 3808.987 558.500 C 3809.269 622.300, 3809.892 675.304, 3810.371 676.287 C 3812.188 680.014, 3816.290 681, 3829.986 681 C 3843.587 681, 3846.686 680.202, 3848.666 676.190 C 3849.125 675.261, 3849.741 622.525, 3850.036 559 C 3850.571 443.629, 3850.574 443.491, 3852.795 435.147 C 3863.573 394.664, 3890.397 368.005, 3930.670 357.753 C 3938.267 355.818, 3942.083 355.506, 3958 355.515 C 3980.025 355.527, 3988.208 357.198, 4004.876 365.087 C 4032.579 378.199, 4051.329 400.988, 4059.828 431.881 L 4062.475 441.500 4062.987 558 C 4063.542 683.943, 4063.234 677.418, 4068.743 679.929 C 4070.038 680.519, 4077.070 681, 4084.401 681 C 4097.048 681, 4097.836 680.881, 4100.288 678.609 C 4101.707 677.293, 4103.146 674.706, 4103.484 672.859 C 4103.823 671.011, 4103.944 616.850, 4103.755 552.500 C 4103.417 437.882, 4103.367 435.315, 4101.312 426.392 C 4095.722 402.121, 4083.747 380.978, 4065.310 362.826 C 4041.032 338.923, 4011.913 324.151, 3979.723 319.407 C 3964.946 317.230, 3939.818 317.947, 3925.801 320.945 C 3890.121 328.579, 3853.674 352.116, 3834.985 379.595 L 3829.480 387.689 3824.001 379.595 C 3805.469 352.215, 3768.973 328.636, 3733.199 320.931 C 3722.186 318.560, 3691.372 317.455, 3680 319.025 M 3301 356.949 C 3243.987 367.362, 3197.993 410.796, 3183.486 467.924 C 3170.678 518.363, 3186.405 573.793, 3224.081 611.003 C 3270.140 656.491, 3340.862 666.169, 3396.108 634.543 C 3409.824 626.691, 3416.569 621.479, 3428.500 609.510 C 3449.691 588.252, 3462.769 563.615, 3469.648 532 C 3472.436 519.181, 3472.192 487.233, 3469.202 473.734 C 3456.300 415.484, 3413.712 371.641, 3357.111 358.339 C 3342.136 354.819, 3316.181 354.177, 3301 356.949 M 971 388.872 C 936.401 396.445, 909.848 421.680, 901.941 454.500 C 900.881 458.900, 900.011 463.063, 900.007 463.750 C 900.001 464.740, 917.663 465, 985 465 L 1070 465 1070 462.190 C 1070 457.725, 1066.018 443.072, 1062.963 436.294 C 1057.357 423.858, 1046.743 410.567, 1036.195 402.775 C 1029.609 397.909, 1016.454 391.576, 1008.500 389.442 C 999.080 386.914, 981.187 386.642, 971 388.872 M 574.500 397.521 C 558.928 400.033, 539.304 406.413, 527.500 412.802 L 522.500 415.508 522.243 486.699 C 521.946 569.194, 521.182 562.632, 532.755 577.038 C 542.396 589.041, 552.331 597.062, 565.500 603.476 C 579.185 610.141, 586.363 612.005, 601.058 612.707 C 626.041 613.900, 647.438 605.709, 665.621 587.991 C 686.640 567.510, 697.985 538.001, 697.996 503.785 C 698.006 471.029, 686.613 443.113, 664.786 422.413 C 652.477 410.739, 639.342 403.294, 623.500 399.009 C 612.935 396.152, 587.733 395.387, 574.500 397.521 M 2029.500 398.120 C 1983.397 402.128, 1944.813 437.343, 1934.853 484.500 C 1933.147 492.581, 1933.167 514.824, 1934.889 523.500 C 1945.552 577.224, 1994.328 614.314, 2048.510 609.899 C 2066.145 608.462, 2084.292 601.969, 2099.852 591.530 C 2108.103 585.994, 2122.048 571.897, 2127.957 563.119 C 2134.073 554.033, 2139.721 541.461, 2142.744 530.206 C 2145.055 521.600, 2145.350 518.630, 2145.350 504 C 2145.350 489.404, 2145.052 486.390, 2142.766 477.881 C 2137.876 459.681, 2128.962 443.890, 2116.113 430.664 C 2092.631 406.495, 2062.666 395.236, 2029.500 398.120 M 209 512.695 C 191.707 514.547, 175.293 519.908, 165.189 527.004 C 150.838 537.081, 144.778 549.606, 144.868 569 C 144.994 596.283, 158.980 614.661, 185 621.733 C 190.196 623.146, 195.211 623.481, 210 623.405 C 226.478 623.320, 229.545 623.031, 238.059 620.761 C 256.343 615.886, 273.752 605.285, 290.250 588.982 L 300 579.347 299.998 554.423 L 299.996 529.500 295.748 526.859 C 278.886 516.377, 258.704 511.901, 229.500 512.166 C 220.150 512.251, 210.925 512.489, 209 512.695 M 2700 569.560 C 2678.218 574.255, 2660.084 592.315, 2654.393 614.981 C 2652.145 623.935, 2652.924 641.082, 2655.971 649.723 C 2660.383 662.235, 2670.298 674.400, 2681.730 681.327 C 2699.513 692.104, 2723.020 692.859, 2742.187 683.270 C 2750.403 679.160, 2762.024 668.364, 2766.447 660.733 C 2784.079 630.312, 2772.596 590.237, 2741.914 575.112 C 2728.156 568.330, 2714.252 566.488, 2700 569.560" stroke="none" fill="#ffffff" fill-rule="evenodd"/><path d="" stroke="none" fill="#ffffff" fill-rule="evenodd"/></svg>