<svg width="17" height="16" viewBox="0 0 17 16" fill="none" xmlns="http://www.w3.org/2000/svg">
<g clip-path="url(#clip0_15_1972)">
<path d="M8.6496 14.3115L2.83838 8.50024V9.68742C2.83838 10.002 2.96303 10.3047 3.1886 10.5244L7.81264 15.1484C8.27564 15.6114 9.02949 15.6114 9.49249 15.1484L13.1787 11.4622C13.6417 10.9992 13.6417 10.2454 13.1787 9.78239L8.6496 14.3115Z" fill="#767676"/>
<path d="M7.81264 12.1805C8.04414 12.412 8.34687 12.5308 8.6496 12.5308C8.95233 12.5308 9.25506 12.412 9.48656 12.1805L13.1727 8.49437C13.6357 8.03137 13.6357 7.27751 13.1727 6.81452L8.54869 2.19047C8.32906 1.97084 8.02633 1.84619 7.71173 1.84619H4.02555C3.37261 1.84619 2.83838 2.38042 2.83838 3.03337V6.71954C2.83838 7.03414 2.96303 7.33687 3.1886 7.5565L7.81264 12.1805ZM4.02555 3.03337H7.71173L12.3358 7.65741L8.6496 11.3436L4.02555 6.71954V3.03337Z" fill="#767676"/>
<path d="M5.36112 5.11092C5.77091 5.11092 6.10311 4.77872 6.10311 4.36894C6.10311 3.95915 5.77091 3.62695 5.36112 3.62695C4.95134 3.62695 4.61914 3.95915 4.61914 4.36894C4.61914 4.77872 4.95134 5.11092 5.36112 5.11092Z" fill="#767676"/>
</g>
<defs>
<clipPath id="clip0_15_1972">
<rect width="16" height="16" fill="white" transform="translate(0.900024)"/>
</clipPath>
</defs>
</svg>
