<svg xmlns="http://www.w3.org/2000/svg" width="5547" height="794"><path d="m4836.125-.313 2.614.006C4851.372-.262 4863.647.12 4876 3l2.318.52C4917.897 12.588 4953.745 32.051 4984 59l2.213 1.952c6.491 5.772 12.706 11.784 18.85 17.923l2.814 2.777c6.149 6.136 11.736 12.538 17.123 19.348a1989.84 1989.84 0 0 0 3.082 3.793c.911 1.13 1.822 2.262 2.73 3.394.5.621.998 1.242 1.511 1.882 3.728 4.672 7.31 9.44 10.864 14.243 14.37 19.76 14.37 19.76 35.614 30.133 9.052.376 14.35-2.683 21.074-8.445 9.702-9.111 17.258-19.832 24.965-30.605A417.19 417.19 0 0 1 5138 98l1.24-1.556c6.763-8.404 14.223-16.112 21.823-23.757l2.756-2.784c6.086-6.059 12.438-11.59 19.181-16.903l2.043-1.633C5200.4 39.192 5217.233 29.24 5235 21l3.469-1.61C5291.416-4.167 5349.102-4.26 5403 16c25.647 9.913 48.42 25.369 68.64 43.863 2.042 1.849 4.124 3.62 6.235 5.387 39.792 34.928 65.548 90.298 69.125 142.75 2.677 68.48-22.973 118.533-60.312 173.661-10.521 15.546-20.87 31.201-31.145 46.91-5.156 7.868-10.32 15.68-15.926 23.236-2.254 3.057-4.35 6.204-6.43 9.38-4.85 7.339-9.82 14.59-14.818 21.828a2493.326 2493.326 0 0 0-3.947 5.743c-12.684 18.5-25.535 36.884-38.422 55.242l-1.561 2.225a2159.36 2159.36 0 0 1-18.584 26.045A1377.442 1377.442 0 0 0 5345 587.5c-10.214 14.514-20.687 28.836-31.234 43.109a9052.31 9052.31 0 0 0-7.018 9.518l-3.502 4.752c-2.897 3.93-5.79 7.862-8.676 11.8a1633.092 1633.092 0 0 1-20.525 27.392 999.231 999.231 0 0 0-10.041 13.316c-6.638 8.973-13.322 17.504-21.004 25.613a591.039 591.039 0 0 0-3.25 3.875c-33.63 38.4-85.398 62.236-135.75 67.125-3.018.16-6.033.21-9.055.238l-2.577.03c-60.103.552-116.344-17.508-160.895-58.983-2.072-1.914-4.182-3.73-6.348-5.535-10.112-8.83-18.592-19.33-26.73-29.948-2.443-3.156-4.955-6.256-7.458-9.365-4.99-6.218-9.88-12.507-14.72-18.844-2.476-3.24-4.965-6.469-7.454-9.699a1578.573 1578.573 0 0 1-6.474-8.46l-1.351-1.774a3288.85 3288.85 0 0 1-3.711-4.883A67.5 67.5 0 0 0 4851 640l-.795 2.632c-1.205 3.369-2.666 6.183-4.478 9.263l-1.982 3.37-2.12 3.548-1.084 1.821c-6.046 10.14-12.452 19.922-19.541 29.366l-1.302 1.753c-37.208 49.962-88.617 91.775-151.699 101.87-8.984 1.13-18.075 1.002-27.115.953-3.616-.013-7.23.02-10.845.059-49.772.165-94.887-21.975-133.039-52.635l-3.04-2.414c-8.413-6.862-16.084-14.498-23.773-22.149l-1.623-1.607c-6.994-6.94-13.451-14.086-19.564-21.83a1150.534 1150.534 0 0 0-3.082-3.758c-6.83-8.39-13.164-17.051-19.323-25.943-2.26-3.258-4.536-6.505-6.81-9.752-1.782-2.542-3.56-5.086-5.34-7.629A5700.297 5700.297 0 0 0 4399 625a6918.323 6918.323 0 0 1-20.789-29.558A3901.432 3901.432 0 0 0 4367 579.5a4360.738 4360.738 0 0 1-13-18.5 6382.177 6382.177 0 0 0-19-27 8072.067 8072.067 0 0 1-24.218-34.452A465736.816 465736.816 0 0 1 4298.5 482l-1.75-2.5-33.25-47.5-1.75-2.5-3.504-5.007c-3.464-4.948-6.929-9.895-10.395-14.84a7549.824 7549.824 0 0 1-5.21-7.454 1978.496 1978.496 0 0 0-7.657-10.867c-36.28-51.355-62.498-109.364-62.359-173.207l.002-2.858c.06-22.994 3.147-44.377 10.373-66.267l.678-2.096c12.458-37.84 38.719-72.825 70.322-96.904l1.933-1.477C4294.964 18.966 4340.945.793 4390.25.75l2.134-.002C4426.078.798 4457.773 9.434 4488 24l2.002.96c19.837 9.652 38.563 23.056 54.756 37.981 1.94 1.781 3.917 3.487 5.93 5.184 9.447 8.257 18.383 17.287 26.144 27.145 2.007 2.527 4.081 4.969 6.194 7.408 5.113 5.92 9.756 12.047 14.244 18.45 8.56 12.207 17.567 24.113 26.73 35.872l.76-1.474c20.998-40.65 47.05-79.814 83.24-108.526l2.39-1.988c24.064-19.88 53.246-34.3 83.672-41.2l2.071-.47c2.283-.489 4.57-.925 6.867-1.342l3.003-.546c10.056-1.639 19.955-1.811 30.122-1.766z" fill="#E30046"/><path d="m4390.25.75 2.134-.002C4426.078.798 4457.773 9.434 4488 24l2.002.96c19.837 9.652 38.563 23.056 54.756 37.981 1.94 1.781 3.917 3.487 5.93 5.184 9.447 8.257 18.383 17.287 26.144 27.145 2.007 2.527 4.081 4.969 6.194 7.408 5.113 5.92 9.756 12.047 14.244 18.45 3.175 4.529 6.45 8.982 9.73 13.434l1.797 2.455c2.697 3.67 5.419 7.293 8.32 10.803l1.422 1.744a356.531 356.531 0 0 0 3.766 4.479c3.35 5.843 1.653 12.036.32 18.332-5.097 26.016-5.331 53.38-1.625 79.625l.276 2.182c1.635 12.808 5.118 24.972 8.94 37.285a404.75 404.75 0 0 1 1.776 5.92c9.947 32.446 28.221 62.353 48.008 89.613a4552.378 4552.378 0 0 0 16.148 22.328c7.426 10.222 14.679 20.557 21.875 30.942 3.09 4.459 6.2 8.904 9.319 13.343 7.373 10.494 14.613 21.075 21.82 31.684 1.72 2.529 3.444 5.054 5.17 7.578 15.488 22.649 30.783 45.43 46.121 68.18 15.972 23.692 15.972 23.692 31.973 47.364l2.581 3.815 2.392 3.532c1.12 1.654 2.237 3.31 3.353 4.967a254.337 254.337 0 0 0 4.855 6.823l1.285 1.77a577.582 577.582 0 0 0 3.562 4.821c1.546 2.853 1.546 2.853 1.404 5.49-.785 2.163-1.605 4.112-2.721 6.12l-1.17 2.116-1.28 2.252-1.346 2.387c-13.092 22.964-28.27 44.509-46.114 64.039a264.497 264.497 0 0 0-4.266 4.804c-32.346 37.132-83.09 69.076-133.135 72.887-6.98.334-13.955.372-20.942.334-3.616-.013-7.23.02-10.845.059-49.772.165-94.887-21.975-133.039-52.635l-3.04-2.414c-8.413-6.862-16.084-14.498-23.773-22.149l-1.623-1.607c-6.994-6.94-13.451-14.086-19.564-21.83a1150.534 1150.534 0 0 0-3.082-3.758c-6.83-8.39-13.164-17.051-19.323-25.943-2.26-3.258-4.536-6.505-6.81-9.752-1.782-2.542-3.56-5.086-5.34-7.629A5700.297 5700.297 0 0 0 4399 625a6918.323 6918.323 0 0 1-20.789-29.558A3901.432 3901.432 0 0 0 4367 579.5a4360.738 4360.738 0 0 1-13-18.5 6382.177 6382.177 0 0 0-19-27 8072.067 8072.067 0 0 1-24.218-34.452A465736.816 465736.816 0 0 1 4298.5 482l-1.75-2.5-33.25-47.5-1.75-2.5-3.504-5.007c-3.464-4.948-6.929-9.895-10.395-14.84a7549.824 7549.824 0 0 1-5.21-7.454 1978.496 1978.496 0 0 0-7.657-10.867c-36.28-51.355-62.498-109.364-62.359-173.207l.002-2.858c.06-22.994 3.147-44.377 10.373-66.267l.678-2.096c12.458-37.84 38.719-72.825 70.322-96.904l1.933-1.477C4294.964 18.966 4340.945.793 4390.25.75z" fill="#0083C9"/><path d="M393.781 265.266c2.47 2.186 4.851 4.438 7.219 6.734l1.855 1.633C418.236 287.64 423.802 308.665 429 328l1.698 6.23c6.49 23.876 12.652 47.838 18.798 71.804l2.651 10.333.555 2.162c1.52 5.926 3.042 11.851 4.563 17.777l2.882 11.228c3.983 15.535 7.99 31.064 12.11 46.564l1.006 3.784c1.55 5.83 3.107 11.657 4.675 17.482l1.632 6.113.755 2.776.675 2.539.59 2.186C482 531 482 531 482 535c4.168-3.657 5.787-6.323 7.047-11.702l.479-1.977c.336-1.394.664-2.79.984-4.187.481-2.096.985-4.186 1.497-6.276 1.106-4.536 2.177-9.08 3.247-13.624l1.241-5.248c.89-3.768 1.78-7.535 2.668-11.303 1.18-5.001 2.361-10.002 3.544-15.003a22555.557 22555.557 0 0 0 16.188-68.93c1.074-4.608 2.15-9.215 3.226-13.822l.458-1.963 2.282-9.764c1.79-7.661 3.572-15.324 5.35-22.988 1.12-4.818 2.245-9.634 3.372-14.45.522-2.237 1.041-4.474 1.558-6.711 10.107-43.75 10.107-43.75 26.859-60.052l2.3-2.363c11.42-11.12 25.82-16.571 41.638-17.012 15.643.4 30.307 4.891 42.062 15.375l1.898 1.617c13.12 11.974 17.249 31.475 18.225 48.532.204 8.526-1.352 16.6-3.518 24.812l-.782 2.976c-3.745 13.874-8.331 27.495-12.819 41.141-2.078 6.33-4.138 12.665-6.202 19l-1.567 4.807c-4.86 14.905-9.604 29.844-14.298 44.803-6.762 21.533-13.673 43.016-20.642 64.484-6.302 19.415-12.545 38.847-18.671 58.319-2.862 9.096-5.735 18.19-8.606 27.283-1.014 3.212-2.024 6.425-3.035 9.638a3269.832 3269.832 0 0 1-4.785 15.061c-.577 1.811-1.15 3.624-1.719 5.438-7.855 25.056-20.392 43.186-43.792 55.902-25.236 13.171-54.743 14.956-81.824 6.521-20.85-7.014-36.086-20.49-46.425-39.709-2.544-5.332-4.507-10.597-6.165-16.262l-.768-2.597c-3.294-11.279-6.244-22.652-9.22-34.018-1.953-7.454-3.92-14.903-5.887-22.353l-.638-2.42c-6.8-25.764-13.745-51.49-20.68-77.219l-3.162-11.736-.778-2.886a6815.058 6815.058 0 0 1-9.41-35.269c-.543-2.06-1.088-4.12-1.633-6.181l-.522-1.975-.512-1.933c-1.255-4.745-2.5-9.494-3.738-14.244-.542-2.054-1.086-4.107-1.63-6.16l-.706-2.755c-1.099-4.109-1.995-7.437-4.989-10.617-3.955 5.085-5.162 9.818-6.488 16.059-2.733 12.04-5.872 23.942-9.117 35.851l-1.578 5.8a17052.9 17052.9 0 0 1-3.297 12.094 22356.996 22356.996 0 0 0-9.6 35.312 8033.167 8033.167 0 0 0-15.83 59.266l-1.767 6.709c-3.537 13.418-7.059 26.84-10.499 40.284l-2.031 7.884c-.569 2.223-1.125 4.447-1.68 6.673-5.753 22.646-16.84 41.718-37.304 53.994C219.349 690.84 207.786 694 196 696l-2.273.398C169.223 699.872 144.13 694.484 124 680c-18.546-14.015-26.406-30.59-32.816-52.492l-1.348-4.525c-.967-3.243-1.928-6.487-2.885-9.733a6000.545 6000.545 0 0 0-4.678-15.76 698668.478 698668.478 0 0 1-2.474-8.304l-2.549-8.567c-6.173-20.76-12.44-41.492-18.711-62.222-1.53-5.056-3.057-10.111-4.585-15.167-6.301-20.85-12.608-41.7-18.915-62.55-4.598-15.203-9.195-30.408-13.788-45.613a28105.51 28105.51 0 0 0-7.398-24.455c-1.634-5.39-3.263-10.781-4.89-16.174-.629-2.083-1.26-4.165-1.893-6.247-.84-2.766-1.674-5.533-2.508-8.3l-.712-2.33C-1.35 320.184-4.02 297.855 4 281l1.133-2.48c5.775-11.418 14.46-18.572 26.543-22.81 20.047-5.884 41.083-6.008 60.074 3.352 10.516 6.106 19.014 14.484 25.25 24.938l1.355 2.18c2.963 5.269 4.537 10.72 6.024 16.533l.657 2.535c2.007 7.804 3.884 15.637 5.715 23.484.595 2.552 1.194 5.104 1.794 7.655.88 3.743 1.759 7.487 2.637 11.23 9.431 40.196 19.1 80.333 28.88 120.445l1.848 7.583a57890.187 57890.187 0 0 0 6.046 24.774c1.22 4.998 2.443 9.996 3.673 14.991.926 3.764 1.837 7.532 2.739 11.302l1.31 5.403.578 2.461c1.097 4.486 2.487 8.35 4.744 12.424 2.774-4.99 4.182-9.882 5.533-15.377l.713-2.824c.78-3.096 1.55-6.196 2.32-9.295l1.657-6.592c1.175-4.68 2.347-9.36 3.515-14.042 1.83-7.332 3.669-14.663 5.51-21.993 2.152-8.568 4.301-17.137 6.448-25.707 7.07-28.23 14.213-56.442 21.405-84.642.873-3.428 1.745-6.856 2.616-10.285 1.274-5.011 2.557-10.02 3.85-15.027.44-1.712.879-3.425 1.313-5.139 3.501-13.783 7.65-27.41 14.495-39.952l1.147-2.136C258.755 288.13 262.58 283.022 267 278l2.313-3.063c31.545-34.48 88.11-39.29 124.468-9.671zM2495 262c3.56 2.792 6.795 5.81 10 9l2.309 2.203c4.687 4.777 8.182 9.897 11.378 15.735l1.044 1.855c8.699 16.743 12.078 36.602 16.727 54.781a9047.163 9047.163 0 0 0 7.245 28.09c6.378 24.628 12.963 49.2 19.547 73.774l.878 3.278c2.492 9.302 4.984 18.604 7.481 27.904a7328.61 7328.61 0 0 1 9.845 36.994 415.086 415.086 0 0 0 5.792 19.798C2588 538 2588 538 2588 540l3-1c1.148-2.925 2.065-5.75 2.926-8.766l.89-3.023c5.098-17.53 9.773-35.184 14.522-52.81 1.147-4.256 2.297-8.512 3.447-12.767a26764.161 26764.161 0 0 0 22.153-82.509l.623-2.337c4.024-15.084 8.037-30.171 11.939-45.288l.787-3.04c1.138-4.4 2.27-8.802 3.383-13.21 6.218-24.357 16.39-42.957 38.475-56.125 20.985-11.336 49.7-15.545 72.855-9.438 14.862 4.511 28.287 11.047 40 21.313l2.121 1.832c9.476 8.774 14.099 19.067 18.02 31.113l1.173 3.566c4.524 13.871 8.687 27.851 12.84 41.837 1.137 3.823 2.279 7.645 3.421 11.467l.704 2.356a154002.792 154002.792 0 0 0 3.55 11.883c4.421 14.806 8.89 29.596 13.376 44.383l1.83 6.03c2.986 9.845 5.975 19.69 8.965 29.533l.705 2.322a388280.267 388280.267 0 0 0 14.33 47.173 851868.349 851868.349 0 0 0 3.766 12.397c2.947 9.703 5.897 19.404 8.853 29.104 1.86 6.1 3.715 12.2 5.57 18.3 1.073 3.53 2.147 7.058 3.225 10.586 7.481 24.497 7.481 24.497 10.516 35.962l.586 2.21c4.908 19.048 4.838 37.698-4.801 55.259-7.525 12.126-18.289 19.275-31.75 23.687-20.676 4.72-41.136-.39-59-11-14.153-9.107-22.037-22.963-26.18-38.918l-.644-2.469c-3.028-11.748-5.742-23.574-8.504-35.387a12483.667 12483.667 0 0 0-6.185-26.303c-8.37-35.452-17.013-70.84-25.619-106.235-1.49-6.132-2.978-12.266-4.462-18.4-1.265-5.223-2.533-10.446-3.803-15.667-.473-1.946-.944-3.891-1.414-5.837-2.747-11.366-5.782-22.598-9.189-33.784-3.552 6.554-6.07 12.826-7.836 20.059l-.739 2.9c-.801 3.156-1.586 6.317-2.37 9.478-.568 2.252-1.137 4.503-1.707 6.754-1.21 4.783-2.412 9.567-3.608 14.354a9296.048 9296.048 0 0 1-5.653 22.472c-2.215 8.77-4.427 17.542-6.634 26.315a10801.222 10801.222 0 0 1-13.977 54.893c-.94 3.657-1.879 7.314-2.816 10.972a6557.182 6557.182 0 0 1-5.11 19.817c-1.1 4.233-2.185 8.47-3.265 12.707-.78 3.05-1.569 6.099-2.359 9.147-.371 1.438-.74 2.878-1.103 4.319-4.905 19.378-12.249 37.09-24.823 52.813l-1.418 1.922c-11.324 14.633-30.89 24.93-48.582 29.078l-2.766.676c-22.785 4.678-47.793.593-67.484-11.864-20.397-13.543-32.685-32.474-39.43-55.742l-1.038-3.547c-4.156-14.34-7.95-28.778-11.727-43.224a7233.16 7233.16 0 0 0-1.89-7.21 8338.036 8338.036 0 0 1-15.696-60.698l-.764-2.997c-2.47-9.692-4.935-19.386-7.384-29.083A2297.428 2297.428 0 0 0 2435 409c-2.713 4.452-4.581 8.232-5.754 13.358l-.881 3.772c-.31 1.374-.618 2.75-.927 4.124l-1.03 4.447c-.75 3.234-1.493 6.47-2.23 9.706a4316.952 4316.952 0 0 1-3.626 15.737l-.641 2.762-1.317 5.678c-.688 2.968-1.374 5.935-2.06 8.903-5.846 25.259-11.84 50.483-17.83 75.708-1.073 4.524-2.145 9.048-3.216 13.573-3.808 16.082-7.63 32.161-11.488 48.232l-.659 2.746c-1.13 4.709-2.27 9.416-3.426 14.119-.469 1.91-.93 3.822-1.392 5.735-3.313 13.327-8.345 25.03-17.523 35.4l-1.313 1.773C2351.481 685.57 2336.32 693.986 2323 696c-18.128 2.34-34.256-.98-49-12-14.13-11.703-21.182-28.06-23-46-1.24-15.168 2.501-30.144 7.07-44.46l1.205-3.828c1.232-3.907 2.477-7.81 3.725-11.712l1.132-3.545a6112.794 6112.794 0 0 1 6.636-20.593c2.072-6.4 4.138-12.8 6.2-19.202l.64-1.983c4.503-13.978 8.923-27.981 13.33-41.99A7715.274 7715.274 0 0 1 2310 431a7928.477 7928.477 0 0 0 18.241-57.029c1.122-3.557 2.246-7.115 3.37-10.672 3.154-9.986 6.297-19.975 9.378-29.985 1.246-4.04 2.502-8.076 3.76-12.112a927.152 927.152 0 0 0 1.696-5.533c7.755-25.586 19.84-44.393 43.867-57.419 32.136-16.795 73.942-16.412 104.688 3.75zM853 360l2.381.618c16.219 4.276 30.387 10.903 44.865 19.269a331.61 331.61 0 0 0 8.012 4.43l1.922 1.033c2.058.916 2.058.916 5.258-.1 2.93-1.584 5.196-3.674 7.625-5.938 12.454-11.5 26.63-16.194 43.367-15.66 16.263.954 30.243 7.86 41.57 19.348l1.777 1.746c13.26 14.07 12.67 34.426 12.627 52.427l.02 6.638c.019 5.973.018 11.946.012 17.92-.003 5.002.003 10.004.009 15.006.015 12.482.011 24.964 0 37.446-.01 10.803.002 21.607.026 32.41.024 11.134.034 22.267.027 33.4a5649.24 5649.24 0 0 0 .017 18.704c.015 5.865.011 11.73-.008 17.596-.003 2.141 0 4.283.01 6.424.094 20.626-2.347 39.548-17.306 55.103L1003 680l-1.71 1.742c-11.223 10.565-26.626 13.908-41.59 13.54-14.151-1.077-26.665-6.129-36.7-16.282l-2.5-2.938c-2.864-2.363-4.617-2.577-8.28-2.474-4.23.785-7.325 3.394-10.72 5.912-8.166 5.733-16.37 10.482-25.5 14.5l-1.927.85c-14.47 6.234-30.325 9.636-46.073 10.15l-2.91.121c-41.94.901-79.338-14.46-109.526-43.156-27.41-26.83-45.069-62.367-51.564-99.965l-.36-2.054c-7.866-47.308 4.445-98.36 32.11-137.384 26.091-34.922 59.98-58.06 103.536-65.093 17.12-2.164 37.051-1.993 53.714 2.531zm-50 116-2.121 2.016c-13.451 13.74-18.528 33.118-18.352 51.847.534 16.65 6.446 31.608 17.473 44.137l1.836 2.086C812.849 587.818 827.063 593.869 843 595c20.267 0 38.14-5.67 53-20 9.023-9.719 10.463-18.211 10.434-31.176l.015-4.124c.01-2.872.007-5.744-.003-8.616-.011-3.651.009-7.301.038-10.953.018-2.837.018-5.674.012-8.511 0-1.991.017-3.983.034-5.974-.09-11.925-2.606-20.671-10.987-29.298C887.596 469.01 879.037 463.983 869 460l-2.566-1.035c-22.89-7.702-46.932.616-63.434 17.035z" fill="#0084CA"/><path d="M3106.754 355.879c27.103-.64 53.434 6.403 77.246 19.121v2c2.652 1.075 5.284 2.095 8 3v2l2.25.875c2.75 1.125 2.75 1.125 4.625 2.313 3.187 1.218 5.842.443 9.125-.188v-2c1.426-1.184 1.426-1.184 3.313-2.438 1.966-1.315 3.644-2.518 5.292-4.222C3218 375 3218 375 3220 375v-2c16.527-9.055 33.559-11.842 52-7 7.723 2.587 14.501 6.107 21 11l2.04 1.504c3.93 3.098 5.873 5.424 6.96 10.496h2l2 7h2c2.296 9.41 2.296 9.41 2 14h2v238h-2l-.438 3.688c-.39 3.139-.886 6.22-1.562 9.312h-2l-.813 3.813c-.8 3.238-1.494 5.08-4.187 7.187l-1 2h-2l-.648 2.215c-3.418 7.043-14.012 13.235-21.352 15.785-15.519 4.588-34.27 5.479-48.938-2.375A137.87 137.87 0 0 1 3223 687l-1.89-1.188c-3.285-2.17-5.712-4.421-8.173-7.5-2.672-3.23-4.625-4.784-8.937-5.312-4.203 1.299-7.272 3.116-10.813 5.688C3190 681 3190 681 3188 681v2c-5.75 3-5.75 3-8 3v2c-7.66 4.434-15.638 7.432-24 10.25l-3.018 1.033c-31.183 10.272-73.288 8.19-103.01-6.27-6.378-3.222-12.63-6.665-18.831-10.216-2.356-1.348-4.697-2.624-7.141-3.797v-2l-1.723-.793c-19.99-10.595-35.09-32.855-45.295-52.341a274.097 274.097 0 0 0-2.775-5.104c-20.22-37.895-27.683-84.663-19.207-126.762l.472-2.354c4.322-20.512 13.016-40.178 24.528-57.646l1.218-1.848c8.336-12.465 18.122-23.633 28.657-34.277l1.874-1.902c2.735-2.717 5.39-5.181 8.634-7.278 2.697-1.433 2.697-1.433 3.617-3.695 1.63-.951 3.266-1.895 4.922-2.8 2.2-1.27 4.247-2.681 6.328-4.137 20.578-13.742 47.18-19.114 71.504-20.184zM3104 466v2l-4 1v2l-4 1v2l-4 2v2l-3 1c-.733 2.015-.733 2.015-1 4h-2c-2.37 2.954-2.37 2.954-2 7h-2c-1.765 3.088-2 4.233-2 8h-2c-1.868 5.487-2.236 10.222-2 16h-2c-.775 8.84-1.194 17.168 0 26h2l-.07 1.758c-.113 4.856.195 8.671 2.07 13.242h2l.438 2.875c.391 3.018.391 3.018 1.562 5.125h2l.438 2.375c.44 2.59.44 2.59 1.562 4.625h2l2 4h2l.191 1.754c2.192 6.088 11.264 10.121 16.747 13.058 16.182 7.593 34.63 7.662 51.5 2.375 8.715-3.203 16.758-7.8 23.562-14.187v-2l3-1 .5-2 .5-2 3-1 1-5h2c1.765-3.088 2-4.233 2-8h2c2.248-4.497 2.167-8.079 2-13h2c1.207-5.67 1.148-11.234 1.125-17l.012-2.945c-.007-4.797-.133-9.34-1.137-14.055h-2l.125-3.688c.013-3.53-.525-6.112-2.125-9.312h-2l-1-7-3-1-1-5-3-1-1-4-3-1c-1.188-2.063-1.188-2.063-2-4h-2v-2l-4-1v-2c-24-12.959-47.353-14.324-72-2z" fill="#0083C9"/><path d="m1753.875 354.75 2.212-.002c11.85.017 23.324.631 34.913 3.252l2.311.52c11.111 2.602 21.445 6.481 31.689 11.48l1.925.934c22.876 11.248 42.281 28.188 58.075 48.066l2.48 3.035c19.048 23.625 28.004 51.314 24.832 81.652-1.936 15.208-6.454 32.752-18.312 43.313-13.814 10.145-28.875 10.153-45.352 10.114h-4.94c-4.447 0-8.895-.006-13.343-.013-4.656-.006-9.313-.006-13.97-.008-8.807-.003-17.614-.01-26.422-.021a48849.51 48849.51 0 0 0-30.094-.022c-20.627-.01-41.253-.028-61.879-.05a8989771978.142 8989771978.142 0 0 0 2.911 8.875c4.733 13.587 14.002 24.713 26.76 31.559 26.645 12.134 56.267 6.777 83.02-1.708 3.38-1.063 6.778-2.056 10.184-3.038l3.18-.926c14.87-3.846 33.675-4.307 47.218 3.558 7.482 5.09 12.417 12.114 15.032 20.75 3.608 20.395.098 39.671-11.305 56.93-2.785 3.58-5.793 6.799-9 10l-1.668 1.883c-12.44 13.7-30.633 18.802-48.332 21.117l-2.313.316c-29.078 3.779-60.787 3.74-89.687-1.316l-2.978-.52c-27.913-5.085-54.807-15.47-77.022-33.48l-1.84-1.487c-36.755-30.051-59.217-72.314-64.95-119.398-.332-3.352-.391-6.702-.413-10.068l-.022-2.224c-.366-49.282 13.46-94.637 48.225-130.823l1.408-1.502c26.76-28.483 63.075-44.646 101.592-49.498l2.183-.286c7.875-.916 15.773-.957 23.692-.964zM1709 462c-5.723 6.827-9 14.067-9 23h98c-3.91-13.036-8.603-24.123-20.555-31.598-21.124-11.011-51.304-8.636-68.445 8.598z" fill="#0084CA"/><path d="M3828 278v2l2.063.688c6.244 2.79 12.678 7.038 15.187 13.562l.75 2.75h2c1.257 2.906 2 4.796 2 8h2c2.286 8.429 2.286 8.429 2 13h2l.076 2.535c.096 3.139.195 6.277.296 9.416.064 2.012.125 4.025.185 6.037.209 6.398.482 12.68 1.443 19.012h2l2 3c7.309 2.643 14.81 2.282 22.5 2.375 14.54.303 28.093 1.226 40.5 9.625l2.023 1.254c3.754 2.443 5.848 4.354 6.977 8.746h2l.875 1.938c.953 2.214.953 2.214 3.125 3.062.633 2.285.633 2.285 1.125 5.063l.508 2.785L3942 395h2c.73 10.11 1.287 19.9 0 30h-2l-2 9h-2l-.563 2.625c-1.647 3.867-3.444 5.441-6.683 7.98-1.798 1.365-1.798 1.365-3.352 3.07C3926 449 3926 449 3924 449v2c-2.496.99-4.996 1.967-7.5 2.938l-2.11.841-2.109.81-1.904.747c-6.396 1.787-12.96 1.805-19.549 1.84l-5.2.072c-2.7.035-5.401.065-8.103.078-2.629.015-5.256.056-7.884.1l-2.447-.006c-3.422.075-5.653.162-8.408 2.29-2.14 2.742-2.283 4.005-2.274 7.445l-.02 3.156.038 3.447-.007 3.642c-.002 3.294.014 6.587.038 9.88.022 3.45.021 6.898.023 10.347.007 5.793.028 11.586.06 17.379.04 7.429.057 14.858.067 22.288.008 6.393.025 12.786.045 19.18l.01 4.112c.012 4.509.032 9.018.057 13.527l.008 3.44.022 3.165.013 2.741c.137 2.6.56 5.006 1.134 7.541h2l1 2c15.921 7.96 40.332 2.252 56.938-1.188 13.237-2.532 26.298-1.347 38.062 5.188v2l1.75.25c2.997 1 4.264 2.3 6.25 4.75 1.25 3.25 1.25 3.25 2 6h2l2 9h2v22h-2l-.438 3.188A142.46 142.46 0 0 1 3968 654h-2l-.813 3.813c-.806 3.274-1.541 5.001-4.187 7.187l-1 3c-1.453 1.395-1.453 1.395-3.25 2.813-2.393 1.96-4.38 3.85-6.25 6.312-2.805 3.225-5.817 4.862-9.5 6.875-1.187.691-2.373 1.384-3.559 2.078-16.473 9.352-34.678 15.35-53.441 17.922l-2.492.39c-20.994 2.761-43.506.374-63.508-6.39l-3.504-1.121c-8.352-2.796-15.87-6.495-23.496-10.879l-2.367-1.336A469.522 469.522 0 0 1 3784 682v-2l-1.688-.188c-3.263-1.146-4.953-3.332-7.312-5.812l-3-2-2-4-2.125-2.125L3766 664v-2h-2l-.875-1.938c-.953-2.214-.953-2.214-3.125-3.062l-2-6-2-1c-.633-2.066-.633-2.066-1.125-4.563l-.508-2.503L3754 641h-2c-1.138-4.266-2-7.565-2-12h-2c-2.296-14.597-2.296-14.597-2-22h-2l-.004-2.256c-.037-18.102-.096-36.204-.18-54.306-.04-8.753-.072-17.507-.087-26.261-.013-7.628-.04-15.257-.084-22.885-.022-4.04-.038-8.08-.037-12.121 0-3.802-.017-7.602-.05-11.403-.008-1.397-.01-2.794-.004-4.19.007-1.905-.013-3.809-.035-5.712l-.011-3.232c-.273-2.747-.273-2.747-2.362-4.476-2.858-1.542-5.034-1.56-8.275-1.6l-3.639-.08-3.794-.04c-12.332-.176-23.332-.727-34.438-6.438l-1.902-.902c-4.277-2.181-6.935-4.898-9.836-8.61-1.212-1.627-1.212-1.627-3.262-2.488l-2-5-2-1c-.633-2.285-.633-2.285-1.125-5.063l-.508-2.785L3670 424h-2v-27h2l.438-2.688c.472-2.783.993-5.547 1.562-8.312h2l.813-2.813c1.162-3.12 1.748-4.11 4.187-6.187l2.063-2.313c13.011-11.904 28.811-13.871 45.703-14.029l3.023-.084 2.74-.044c3.413-.732 4.498-1.64 6.471-4.53.418-3.017.605-5.684.61-8.703.016-.838.032-1.676.05-2.539.048-2.67.07-5.338.09-8.008.028-1.813.058-3.625.09-5.438.074-4.437.123-8.874.16-13.312h2l.438-3.688c.39-3.139.886-6.22 1.562-9.312h2l.813-3.813c.8-3.238 1.494-5.08 4.187-7.187l1-2h2l.688-2.262c1.596-3.33 3.26-4.515 6.312-6.55l2.688-1.833C3766 280 3766 280 3768 280v-2c2.395-.816 4.79-1.628 7.188-2.438l2.04-.697c16.959-5.708 34.42-3.469 50.772 3.135z" fill="#0083C9"/><path d="M1423 283c11.023 9.152 19.079 22.691 21 37 .184 5.909.036 11.814-.116 17.722a606.647 606.647 0 0 0-.107 6.13l-.086 3.65c.372 4.214 1.355 6.756 3.309 10.498 6.898 4.86 15.942 3.186 24.008 2.938 16.921-.472 33.748 1.612 46.992 13.062l1.875 1.59c8.679 7.95 12.658 19.344 13.254 30.914.301 14.113-3.088 25.83-12.254 36.808-10.551 10.957-23.417 14.634-38.243 15.02-5.336.08-10.672.107-16.01.104-2.658.003-5.315.03-7.974.06l-2.455-.025c-3.597.048-5.743.194-8.671 2.373-2.29 3.244-2.647 5.833-2.649 9.695l-.009 2.82.007 3.088-.006 3.258c-.004 3.567-.001 7.134.002 10.701l-.003 7.442c-.001 5.876.002 11.752.007 17.629.005 5.989 0 11.977-.005 17.966-.004 5.129-.002 10.257 0 15.386 0 2.452 0 4.905-.002 7.358-.003 3.443.001 6.887.007 10.33l-.007 3.04c-.516 12.204-.516 12.204 3.136 23.443 17.078 8.868 40.442 3.184 58.438-.188 14.166-2.38 27.406-1.301 39.5 6.875 7.723 6.083 12.482 13.56 14.062 23.313 1.589 18.576-3.956 34.433-15.957 48.73-19.546 21.714-53.618 31.617-82.043 33.27-36.121 1.864-71.783-8.027-99.277-31.984-19.918-18.623-28.53-45.989-29.909-72.605-.068-3.63-.081-7.255-.07-10.886a3206.43 3206.43 0 0 0-.01-4.12c-.008-2.922-.01-5.844-.008-8.766.002-4.623-.012-9.246-.03-13.87a12858.25 12858.25 0 0 1-.077-39.401c-.004-7.281-.022-14.562-.055-21.843-.02-4.594-.023-9.188-.012-13.782.003-2.852-.011-5.704-.03-8.556-.008-1.949.004-3.898.017-5.847l-.033-3.525-.004-3.055c-.644-3.54-1.993-5.223-4.502-7.76-4.754-1.25-9.492-1.044-14.372-.934-16.992.373-31.945-2.018-44.85-14.105-9.773-10.782-12.715-24.428-12.16-38.586.859-12.436 6.26-24.255 15.41-32.781 13.18-10.65 27.525-11.74 43.874-12.024l3.02-.093 2.737-.06c2.359-.264 2.359-.264 4.13-1.579 1.72-2.612 1.613-4.615 1.652-7.729l.076-3.568.045-3.791c.551-21.969 2.613-40.138 18.126-56.938 20.643-19.575 54.683-20.264 77.312-3.812zM1192 227c12.233 10.44 19.757 22.517 21.373 38.743.149 4.056.179 8.094.16 12.152.007 1.556.016 3.113.026 4.67.024 4.237.024 8.475.02 12.713-.002 4.585.02 9.171.04 13.757.034 8.968.047 17.936.052 26.904.008 10.456.036 20.913.064 31.37.051 18.665.083 37.33.104 55.995a33261.419 33261.419 0 0 0 .114 57.637l.009 3.37c.057 20.626.1 41.252.137 61.877.013 7.279.03 14.557.05 21.835.022 8.878.037 17.756.042 26.634.003 4.524.009 9.048.024 13.573.013 4.15.017 8.301.014 12.452 0 1.492.004 2.985.012 4.477.094 19.746-1.868 38.231-15.647 53.509-11.597 11.273-25.15 16.757-41.25 16.698-14.996-.315-28.242-6.626-39.055-16.89-9.783-10.584-14.405-23.857-14.42-38.162l-.007-1.97c-.005-2.175-.004-4.35-.002-6.525l-.01-4.73c-.008-4.33-.01-8.66-.01-12.99-.002-4.67-.01-9.341-.016-14.012-.014-10.213-.02-20.426-.024-30.639-.003-6.379-.007-12.757-.012-19.136-.012-17.664-.022-35.33-.026-52.994v-3.425a873470432.303 873470432.303 0 0 1-.002-10.322v-3.45c-.005-18.451-.022-36.901-.046-55.351-.023-18.949-.036-37.897-.037-56.845 0-10.637-.007-21.273-.025-31.91-.015-9.057-.02-18.115-.012-27.173.004-4.62.003-9.238-.011-13.858a2162.19 2162.19 0 0 1 0-12.702c.002-1.526 0-3.053-.01-4.579-.093-17.401 3.578-32.555 15.893-45.45 19.708-17.85 50.48-21.262 72.488-5.253zM2061.875 364.313A186.203 186.203 0 0 1 2067 368l2.105 1.516c5.743 4.538 9.61 10.387 13.696 16.375 1.64 2.319 3.099 4.233 5.199 6.109l2.563-2.813c19.133-19.017 45.948-31.277 72.99-31.517l3.322.017 3.475.018c14.572.209 28.955 3.137 40.002 13.483 10.27 11.293 17.437 24.99 16.894 40.597-1.587 14.283-6.907 26.14-18.246 35.215-19.98 13.794-40.321 15.209-63.785 11.383-17.977-2.76-35.851-1.09-51.215 9.617-4.057 4.512-4.125 8.624-4.145 14.537l-.01 1.985c-.011 2.194-.015 4.387-.019 6.581a6749.286 6749.286 0 0 0-.056 14.894c-.015 5.372-.04 10.745-.065 16.117-.07 15.279-.13 30.557-.182 45.836-.028 8.437-.064 16.875-.106 25.312-.027 5.328-.045 10.657-.056 15.985a3218.6 3218.6 0 0 1-.047 10.006c-.007 1.532-.011 3.065-.012 4.597-.01 20.872-2.882 39.01-17.552 54.837-11.992 11.375-25.856 15.851-41.996 15.59-15.616-.629-29.15-8.129-39.754-19.277-10.134-11.675-13.155-25.673-13.14-40.745l-.01-2.92c-.008-3.222-.01-6.443-.011-9.663l-.015-6.94c-.013-6.28-.02-12.559-.024-18.838-.003-3.927-.007-7.853-.012-11.78-.012-10.889-.022-21.778-.026-32.666v-4.224l-.002-4.24v-2.125c-.005-11.349-.022-22.697-.046-34.046-.023-11.673-.036-23.346-.037-35.02-.001-6.545-.007-13.09-.025-19.635-.016-6.162-.018-12.324-.01-18.485.001-2.254-.003-4.507-.013-6.76-.084-20.36 1.376-38.211 15.99-53.747 18.014-18.153 47.285-22.216 69.256-8.853z" fill="#0084CA"/><path d="m3481 366 3 1c1.5 1.523 1.5 1.523 3 3.375 2.349 2.875 4.715 5.546 7.563 7.938 1.98 2.324 2.598 4.784 3.437 7.687h2l2 4c4.879-.418 6.713-2.54 10-6l3-1 1.563-1.563L3518 380h2v-2l3-1 1-2a128.972 128.972 0 0 1 7.063-3.75l2.171-1.071c23.423-11.334 50.222-17.28 75.766-9.179 9.753 3.979 18.924 9.164 25 18v2h2l.875 2.438c.858 2.695.858 2.695 3.125 3.562 1.268 4.296 2 7.51 2 12h2v22h-2l-.438 3.25c-.4 2.667-.838 5.164-1.562 7.75h-2l-.563 2.625c-1.62 3.805-3.292 5.307-6.488 7.785-2.091 1.632-2.091 1.632-4.207 4.016-3.207 3.01-6.383 4.782-10.305 6.699l-1.939 1.012c-9.748 4.85-19.7 6.381-30.498 6.238l-3.271-.015c-7.764-.12-15.181-1.032-22.82-2.347-15.296-2.529-30.36.46-43.909 7.987l-2.133.922c-2.22 1.025-2.22 1.025-3.117 4.203L3508 474h-2c-1.248 7.71-1.126 15.403-1.098 23.19l.005 4.605c.003 3.295.01 6.59.018 9.884.013 5.222.02 10.443.024 15.665.012 12.034.034 24.068.056 36.102.02 11.018.039 22.036.048 33.055.005 5.178.015 10.355.029 15.533.007 3.24.01 6.478.013 9.717.002 1.488.005 2.975.01 4.462.034 9.312-.306 18.508-1.105 27.787h-2l-2 10h-2l-.813 3.375C3496 671 3496 671 3493 673l-1 3c-5.465 5-5.465 5-8 5v2l-4 1v2c-15.039 8.387-33.576 9.747-50.125 5.125-3.447-1.138-6.67-2.422-9.875-4.125v-2l-2.063-.625c-3.928-1.839-6.767-4.454-9.937-7.375l-2.313-2.063c-1.9-2.182-2.67-4.25-3.687-6.937l-2-1c-.633-2.066-.633-2.066-1.125-4.563l-.508-2.503L3398 658h-2c-2.511-23.95-2.297-47.909-2.269-71.958.005-5.822 0-11.645-.002-17.467-.004-9.766 0-19.531.01-29.297.011-11.225.008-22.45-.003-33.675-.01-9.713-.01-19.426-.006-29.139.004-5.768.004-11.537-.003-17.305-.046-45.863-.046-45.863 2.273-65.159h2l.332-2.082.48-2.73.458-2.708c.8-2.718 1.685-3.607 3.73-5.48l1-3 3-2 1-3c2.332-2.643 3.617-3.872 7-5l1-2c2.36-1.247 4.7-2.394 7.125-3.5l1.977-.934c17.306-8 40.68-8.336 55.898 4.434z" fill="#0083C9"/></svg>