<svg width="43" height="12" viewBox="0 0 43 12" fill="none" xmlns="http://www.w3.org/2000/svg">
<path d="M19.1979 5.42676H21.0336C21.1254 5.42669 21.2164 5.44473 21.3012 5.47987C21.386 5.51501 21.4631 5.56655 21.528 5.63153C21.5928 5.69651 21.6442 5.77365 21.6792 5.85854C21.7142 5.94343 21.7321 6.03439 21.7319 6.12621C21.7362 6.75692 21.5554 7.37503 21.2119 7.904C20.8684 8.43297 20.3772 8.84954 19.7993 9.10214C19.2214 9.35473 18.582 9.43224 17.9605 9.32507C17.3389 9.21789 16.7625 8.93075 16.3025 8.49919C16.2797 8.47749 16.258 8.45522 16.2357 8.43239C15.6279 7.81777 15.2871 6.98828 15.2871 6.12392C15.2871 5.25956 15.6279 4.43008 16.2357 3.81546C16.5271 3.50646 16.8797 3.26146 17.2709 3.09603C17.6621 2.93059 18.0835 2.84835 18.5082 2.85451C19.3213 2.85451 20.0127 3.10669 20.5825 3.61105C20.6968 3.71201 20.7662 3.85418 20.7756 4.00633C20.7851 4.15848 20.7337 4.30814 20.6328 4.42241C20.6083 4.44981 20.5814 4.47485 20.5523 4.49721L20.3484 4.65252C20.2472 4.7315 20.1222 4.77382 19.9938 4.77258C19.8654 4.77133 19.7412 4.72659 19.6416 4.64566C19.3244 4.38038 18.9216 4.23954 18.5082 4.24941C18.267 4.24633 18.0279 4.29353 17.806 4.388C17.5841 4.48248 17.3844 4.62215 17.2195 4.79811C16.8763 5.15471 16.6845 5.63041 16.6845 6.12535C16.6845 6.62029 16.8763 7.09599 17.2195 7.45259C17.5179 7.76063 17.9168 7.95167 18.3439 7.99116C18.771 8.03064 19.1981 7.91595 19.5479 7.66785C19.8485 7.45778 20.0789 7.16214 20.2091 6.81938H19.2013C19.0164 6.81922 18.8391 6.74565 18.7083 6.61481C18.5776 6.48398 18.5042 6.30659 18.5042 6.12164C18.5048 5.93773 18.578 5.76151 18.708 5.63135C18.8379 5.5012 19.014 5.42766 19.1979 5.42676Z" fill="#DADCE0"/>
<path d="M27.5342 7.63131C27.6059 7.68703 27.666 7.75635 27.711 7.83531C27.7559 7.91426 27.7849 8.00129 27.7961 8.09144C27.8074 8.18158 27.8009 8.27307 27.7768 8.36067C27.7527 8.44827 27.7116 8.53026 27.6558 8.60197C27.6191 8.64926 27.5763 8.6915 27.5285 8.72758C27.3929 8.8326 27.2492 8.92654 27.0985 9.0085C26.6343 9.26218 26.1133 9.39381 25.5843 9.39106C25.159 9.39772 24.737 9.3156 24.3452 9.14994C23.9534 8.98428 23.6005 8.73872 23.309 8.42896C22.7038 7.81289 22.3647 6.98382 22.3647 6.12021C22.3647 5.25661 22.7038 4.42754 23.309 3.81147C23.6003 3.50243 23.9527 3.25739 24.3438 3.09195C24.735 2.92651 25.1562 2.84429 25.5809 2.85052C26.1104 2.84838 26.6317 2.98185 27.0951 3.23821C27.274 3.33537 27.4437 3.4485 27.6021 3.57623C27.6759 3.63692 27.735 3.71343 27.7751 3.8001C27.8153 3.88676 27.8353 3.98135 27.8339 4.07684C27.8325 4.17233 27.8096 4.26627 27.7669 4.3517C27.7242 4.43712 27.6628 4.51184 27.5873 4.5703L27.4988 4.64167C27.3877 4.73 27.2499 4.77809 27.108 4.77809C26.966 4.77809 26.8282 4.73 26.7171 4.64167C26.398 4.37999 25.9951 4.24232 25.5826 4.25398C25.3415 4.2509 25.1023 4.2981 24.8804 4.39258C24.6586 4.48705 24.4588 4.62672 24.2939 4.80269C23.9507 5.15929 23.7589 5.63498 23.7589 6.12992C23.7589 6.62486 23.9507 7.10056 24.2939 7.45716C24.4589 7.63286 24.6588 7.77228 24.8806 7.86655C25.1025 7.96082 25.3416 8.00788 25.5826 8.00473C25.9807 8.01511 26.37 7.88696 26.684 7.64215C26.805 7.54586 26.9549 7.49311 27.1096 7.49238C27.2642 7.49166 27.4146 7.54301 27.5365 7.63816L27.5342 7.63131Z" fill="#DADCE0"/>
<path d="M33.0281 9.32367H32.0449C32.0348 9.32367 32.0247 9.32166 32.0153 9.31775C32.0059 9.31384 31.9974 9.30811 31.9902 9.3009C31.983 9.29368 31.9774 9.28511 31.9735 9.27569C31.9697 9.26628 31.9678 9.25619 31.9678 9.24602C31.9677 9.23582 31.9655 9.22575 31.9615 9.21639C31.9575 9.20703 31.9516 9.19855 31.9443 9.19144C31.937 9.18434 31.9283 9.17875 31.9189 9.17498C31.9094 9.17122 31.8992 9.16936 31.889 9.16951C31.8767 9.1699 31.8646 9.17302 31.8536 9.17865C31.6074 9.30769 31.2813 9.37202 30.8756 9.37164C30.5476 9.37726 30.2219 9.31503 29.9191 9.18887C29.6163 9.06271 29.3428 8.87534 29.1158 8.6385C28.6497 8.16236 28.3886 7.52254 28.3886 6.8562C28.3886 6.18985 28.6497 5.55003 29.1158 5.07389C29.3427 4.83659 29.6162 4.6488 29.9191 4.52233C30.2221 4.39586 30.5479 4.33346 30.8761 4.33904C31.2735 4.33904 31.5942 4.4108 31.8382 4.5543C31.848 4.56003 31.8589 4.56377 31.8702 4.56529C31.8814 4.56682 31.8929 4.5661 31.9039 4.56318C31.9148 4.56026 31.9251 4.5552 31.9342 4.54829C31.9432 4.54138 31.9507 4.53275 31.9564 4.5229C31.9644 4.509 31.9685 4.49324 31.9684 4.47722C31.9686 4.45404 31.9778 4.43185 31.9941 4.41541C32.0105 4.39897 32.0326 4.38959 32.0558 4.38929H32.9905C33.0387 4.38899 33.0866 4.39825 33.1313 4.41656C33.1759 4.43486 33.2165 4.46183 33.2507 4.49591C33.2849 4.53 33.312 4.57052 33.3305 4.61513C33.3489 4.65975 33.3583 4.70758 33.3582 4.75586V9.00278C33.3582 9.04552 33.3498 9.08785 33.3334 9.12733C33.317 9.16682 33.2931 9.2027 33.2628 9.23292C33.2326 9.26314 33.1967 9.28711 33.1573 9.30347C33.1178 9.31982 33.0755 9.32824 33.0327 9.32824L33.0281 9.32367ZM30.8761 7.98359C31.0199 7.98591 31.1625 7.95821 31.295 7.90227C31.4274 7.84633 31.5467 7.76337 31.6452 7.6587C31.7493 7.55353 31.8314 7.42867 31.8867 7.29142C31.942 7.15418 31.9694 7.00729 31.9673 6.85934V6.85534C31.9692 6.7074 31.9418 6.56055 31.8865 6.42333C31.8312 6.2861 31.7492 6.16122 31.6452 6.05597C31.5469 5.9507 31.4278 5.86704 31.2953 5.81032C31.1629 5.7536 31.0202 5.72506 30.8761 5.72652C30.7319 5.72488 30.5888 5.75298 30.4559 5.80907C30.323 5.86517 30.2031 5.94805 30.1036 6.05255C29.8972 6.26897 29.7821 6.55656 29.7821 6.85562C29.7821 7.15469 29.8972 7.44228 30.1036 7.6587C30.203 7.76328 30.3229 7.84625 30.4559 7.90244C30.5888 7.95863 30.7318 7.98684 30.8761 7.9853V7.98359Z" fill="#DADCE0"/>
<path d="M36.8611 6.58813C36.6544 6.43244 36.3433 6.29616 35.9276 6.17931C35.6547 6.10394 35.5068 6.05483 35.4834 6.03085C35.472 6.01946 35.4631 6.0059 35.4571 5.99099C35.4511 5.97608 35.4482 5.96012 35.4485 5.94406C35.4459 5.9311 35.4448 5.91788 35.4451 5.90467C35.4443 5.86479 35.4516 5.82516 35.4665 5.78817C35.4814 5.75118 35.5037 5.71758 35.5319 5.68941C35.5594 5.66142 35.5922 5.63913 35.6283 5.62381C35.6644 5.60849 35.7032 5.60044 35.7424 5.60012C35.7817 5.5998 35.8206 5.60722 35.857 5.62195C35.8933 5.63669 35.9265 5.65844 35.9544 5.68598L35.9578 5.68941C35.986 5.71763 36.0083 5.75122 36.0233 5.78819C36.0383 5.82516 36.0458 5.86477 36.0452 5.90467V5.91095C36.0555 5.92041 36.064 5.93163 36.0703 5.94406H37.0855C37.1262 5.94444 37.1666 5.93679 37.2043 5.92155C37.242 5.90631 37.2764 5.88377 37.3054 5.85524C37.3344 5.82671 37.3575 5.79274 37.3734 5.75527C37.3892 5.7178 37.3975 5.67757 37.3978 5.63688C37.398 5.60854 37.3943 5.58032 37.387 5.55294C37.3108 5.2669 37.1533 5.00908 36.9336 4.81067C36.6109 4.50886 36.1856 4.34096 35.7437 4.34096C35.3019 4.34096 34.8765 4.50886 34.5538 4.81067C34.3949 4.95378 34.2683 5.12906 34.1824 5.32487C34.0964 5.52067 34.0531 5.73252 34.0553 5.94635C34.0553 6.44881 34.2398 6.83764 34.6086 7.11285C34.8153 7.2674 35.1299 7.40386 35.5524 7.52224C35.8341 7.59837 35.9864 7.65186 36.0092 7.68269C36.0199 7.69445 36.0281 7.70825 36.0333 7.72327C36.0385 7.73828 36.0406 7.7542 36.0395 7.77005C36.0424 7.78278 36.044 7.7958 36.0441 7.80887C36.0446 7.86824 36.0276 7.92643 35.9951 7.97614C35.9627 8.02584 35.9162 8.06484 35.8617 8.08822C35.8071 8.11159 35.7468 8.11831 35.6885 8.10751C35.6301 8.09672 35.5762 8.0689 35.5336 8.02756L35.5302 8.02413C35.5019 7.99596 35.4797 7.96236 35.4648 7.92537C35.4499 7.88838 35.4426 7.84875 35.4434 7.80887C35.4342 7.7975 35.4273 7.78453 35.4228 7.77062H34.4139C34.3292 7.77047 34.2479 7.80393 34.1879 7.86367C34.1278 7.9234 34.0939 8.00452 34.0936 8.08922C34.0936 8.11676 34.0971 8.14419 34.1039 8.17087C34.1795 8.45374 34.3346 8.70897 34.551 8.90629C34.8735 9.20835 35.2989 9.37643 35.7409 9.37643C36.1828 9.37643 36.6082 9.20835 36.9308 8.90629C37.0905 8.76374 37.2179 8.58862 37.3042 8.39272C37.3906 8.19683 37.434 7.9847 37.4315 7.77062C37.4315 7.26397 37.2414 6.86981 36.8611 6.58813Z" fill="#DADCE0"/>
<path d="M40.4771 4.35161C40.7842 4.34837 41.0885 4.41119 41.3693 4.53581C41.65 4.66043 41.9007 4.84393 42.1044 5.0739C42.5499 5.54587 42.7922 6.17391 42.7793 6.8228V8.64422C42.779 8.82443 42.7072 8.99716 42.5797 9.12454C42.4522 9.25191 42.2794 9.32353 42.0992 9.32368C41.9187 9.32368 41.7456 9.25198 41.618 9.12434C41.4903 8.9967 41.4186 8.82358 41.4186 8.64307V6.8228C41.4259 6.53595 41.3284 6.25628 41.1446 6.036C41.066 5.93559 40.9656 5.85439 40.851 5.79854C40.7364 5.74269 40.6106 5.71367 40.4831 5.71367C40.3556 5.71367 40.2298 5.74269 40.1152 5.79854C40.0006 5.85439 39.9002 5.93559 39.8216 6.036C39.6382 6.2552 39.5408 6.53364 39.5475 6.81938V8.73386C39.5469 8.8908 39.484 9.04107 39.3727 9.15167C39.2614 9.26227 39.1107 9.32414 38.9537 9.32368H38.775C38.6181 9.32368 38.4677 9.26136 38.3567 9.15042C38.2458 9.03949 38.1835 8.88903 38.1835 8.73215V3.59335C38.1833 3.41295 38.2548 3.23986 38.3822 3.11213C38.5096 2.9844 38.6825 2.91248 38.8629 2.91218C38.9523 2.9121 39.0408 2.92963 39.1234 2.96377C39.206 2.9979 39.2811 3.04797 39.3444 3.11112C39.4076 3.17427 39.4578 3.24925 39.4921 3.3318C39.5264 3.41435 39.544 3.50283 39.5441 3.59221V4.56287C39.8352 4.42313 40.1542 4.35091 40.4771 4.35161Z" fill="#DADCE0"/>
<path d="M11.1706 8.37471C11.7162 7.70541 12.0103 6.86618 12.0018 6.00269C11.9932 5.13919 11.6826 4.30594 11.1237 3.64759C11.0591 3.56961 10.9778 3.50704 10.8859 3.46443C10.794 3.42182 10.6937 3.40025 10.5924 3.40129C10.4911 3.40233 10.3913 3.42596 10.3003 3.47044C10.2093 3.51492 10.1294 3.57915 10.0663 3.65844C9.92647 3.82989 9.85111 4.0449 9.8533 4.26613C9.85549 4.48736 9.9351 4.70083 10.0783 4.86948C10.6384 5.49755 10.6493 6.52931 10.1011 7.16937C9.96134 7.34098 9.88606 7.55613 9.88835 7.77745C9.89065 7.99878 9.97037 8.21232 10.1137 8.38099C10.2301 8.51934 10.3966 8.60604 10.5767 8.62219C10.7568 8.63834 10.936 8.58263 11.0752 8.46721C11.1101 8.43804 11.142 8.40553 11.1706 8.37014V8.37471Z" fill="#F8F8F8"/>
<path d="M12.9503 9.90893C13.8513 8.85491 14.3395 7.46173 14.3247 5.98404C14.3098 4.50635 13.7942 3.12573 12.8715 2.08712C12.7552 1.9486 12.5889 1.86168 12.4088 1.84531C12.2286 1.82895 12.0494 1.88447 11.91 1.99976C11.8751 2.02946 11.8429 2.06234 11.8141 2.09797C11.6746 2.26972 11.5995 2.4848 11.6018 2.70604C11.6041 2.92728 11.6836 3.14076 11.8266 3.30958C13.1439 4.78213 13.165 7.2065 11.8809 8.7076C11.7409 8.87907 11.6654 9.09414 11.6675 9.31547C11.6696 9.5368 11.7491 9.75041 11.8923 9.91921C12.0083 10.0584 12.1747 10.146 12.3551 10.1628C12.5355 10.1796 12.7153 10.1242 12.855 10.0089C12.8898 9.97969 12.9218 9.94718 12.9503 9.91179V9.90893Z" fill="#F8F8F8"/>
<path d="M6.48914 5.119H8.38021C8.46389 5.119 8.54675 5.13549 8.62406 5.16751C8.70137 5.19953 8.77162 5.24647 8.83079 5.30564C8.88996 5.36481 8.9369 5.43506 8.96892 5.51237C9.00094 5.58968 9.01742 5.67253 9.01742 5.75621V5.81331C9.02414 6.24201 8.94346 6.66758 8.78031 7.06408C8.61716 7.46057 8.37495 7.81967 8.06846 8.11949C7.77863 8.41805 7.43283 8.65659 7.0508 8.8215C6.66877 8.98641 6.25801 9.07445 5.84195 9.0806C5.4259 9.08675 5.01271 9.01089 4.62597 8.85735C4.23924 8.7038 3.88653 8.47558 3.588 8.18572C3.56517 8.16403 3.5429 8.14176 3.5212 8.11949C2.91348 7.50497 2.57263 6.67558 2.57263 5.81131C2.57263 4.94705 2.91348 4.11765 3.5212 3.50314C3.81235 3.19383 4.16472 2.94855 4.55587 2.78291C4.94702 2.61727 5.36838 2.53489 5.79312 2.54104C6.54338 2.54104 7.18935 2.75611 7.73101 3.18625C7.813 3.25206 7.87888 3.33571 7.92365 3.43083C7.96841 3.52595 7.99088 3.63003 7.98934 3.73515C7.98779 3.84027 7.96228 3.94365 7.91475 4.03741C7.86721 4.13118 7.7989 4.21287 7.71503 4.27624L7.70589 4.28252C7.58254 4.37468 7.43237 4.42385 7.27841 4.42251C7.12444 4.42117 6.97515 4.36939 6.85342 4.2751C6.54725 4.04803 6.17421 3.92931 5.79312 3.93765C5.55199 3.93464 5.31288 3.98188 5.09101 4.07635C4.86914 4.17082 4.66937 4.31045 4.50442 4.48636C4.16146 4.8431 3.96991 5.31874 3.96991 5.8136C3.96991 6.30845 4.16146 6.7841 4.50442 7.14083C4.8023 7.44989 5.20118 7.64182 5.62857 7.68174C6.05595 7.72166 6.48347 7.60692 6.83344 7.35838C7.13308 7.14851 7.36282 6.85353 7.49292 6.51162H6.48686C6.3019 6.51147 6.12458 6.43789 5.99385 6.30705C5.86312 6.17622 5.78969 5.99883 5.78969 5.81388C5.78999 5.72233 5.80832 5.63173 5.84363 5.54726C5.87895 5.46279 5.93055 5.38611 5.9955 5.32158C6.06045 5.25706 6.13747 5.20596 6.22217 5.1712C6.30687 5.13644 6.39759 5.1187 6.48914 5.119Z" fill="#DADCE0"/>
<path d="M5.73028 1.5053C4.59404 1.5053 3.62052 1.91717 2.80973 2.7409C1.99895 3.56463 1.5947 4.55984 1.59698 5.72654C1.59698 6.89361 2.00123 7.88883 2.80973 8.71218C3.61824 9.53553 4.59175 9.94663 5.73028 9.94549C6.32211 9.94678 6.90707 9.81878 7.44428 9.57044C7.98148 9.32211 8.45796 8.95943 8.84039 8.50777C8.93469 8.39656 9.06666 8.32402 9.21108 8.304C9.3555 8.28399 9.50222 8.31791 9.6232 8.39928C9.75321 8.48628 9.84333 8.62136 9.87374 8.7748C9.90415 8.92824 9.87236 9.08749 9.78536 9.21749C9.77401 9.23446 9.76182 9.25085 9.74882 9.26659C9.32355 9.77105 8.80764 10.1915 8.22774 10.5062C7.46124 10.9247 6.60128 11.1423 5.728 11.1388C4.26059 11.1388 3.00634 10.6082 1.96526 9.54694C0.924178 8.48569 0.406682 7.21222 0.412773 5.72654C0.412773 4.23515 0.93103 2.9613 1.96754 1.90499C3.00406 0.848681 4.2583 0.318432 5.73028 0.314245C6.6034 0.310991 7.46321 0.528202 8.23002 0.945746C8.80965 1.26135 9.32547 1.68209 9.7511 2.18648C9.80066 2.24613 9.83797 2.31497 9.8609 2.38906C9.88382 2.46315 9.89191 2.54104 9.8847 2.61826C9.87748 2.69548 9.85511 2.77051 9.81886 2.83908C9.78262 2.90764 9.7332 2.96838 9.67345 3.01782C9.6579 3.03082 9.6417 3.04301 9.62492 3.05436C9.50389 3.13556 9.35717 3.16928 9.21285 3.14905C9.06852 3.12882 8.93672 3.05608 8.84268 2.94474C8.46007 2.49269 7.98324 2.12977 7.4456 1.88142C6.90796 1.63306 6.32251 1.50528 5.73028 1.50702V1.5053Z" fill="#E9ECF1"/>
</svg>
