<svg version="1.1" xmlns="http://www.w3.org/2000/svg" width="264" height="234">
<path d="M0 0 C17.72177935 16.97499448 23.45110504 41.41204904 24.59427452 65.12832451 C24.6597747 68.98473177 24.66998603 72.83839483 24.65307617 76.69506836 C24.65415305 78.15391627 24.65609772 79.61276375 24.65882874 81.0716095 C24.66360906 84.97560706 24.65611297 88.87948747 24.64587569 92.78347087 C24.63700274 96.8855579 24.63885427 100.98764226 24.63923645 105.08973694 C24.6383053 111.95754935 24.6296877 118.82531708 24.6159668 125.69311523 C24.60015297 133.63800923 24.5949722 141.58285472 24.59570235 149.52776331 C24.5963762 158.0052683 24.58945516 166.48275459 24.58025575 174.96025395 C24.57812264 177.40114046 24.57741439 179.84202395 24.57701683 182.2829113 C24.57601632 186.10221457 24.56994388 189.92147679 24.55985069 193.74076653 C24.55691922 195.14489491 24.55570162 196.54902801 24.55627823 197.95315933 C24.55676553 199.86122828 24.55052004 201.76929549 24.54386902 203.67735291 C24.54219317 204.74705291 24.54051733 205.81675291 24.5387907 206.91886806 C24.41015625 209.30859375 24.41015625 209.30859375 23.41015625 210.30859375 C19.36929522 210.59935613 15.32456041 210.62268794 11.27416992 210.65869141 C9.91527096 210.67518643 8.55645644 210.70239162 7.19799805 210.74072266 C-5.52322308 211.0977551 -5.52322308 211.0977551 -9.2734375 208.2109375 C-11.76236461 205.09243354 -13.66591828 202.05796618 -15.46484375 198.49609375 C-16.35816406 196.75392578 -16.35816406 196.75392578 -17.26953125 194.9765625 C-17.70523438 194.09613281 -18.1409375 193.21570313 -18.58984375 192.30859375 C-23.30300165 191.9945553 -25.82604114 192.62932486 -29.79296875 195.16015625 C-30.76411621 195.76174561 -31.73526367 196.36333496 -32.73583984 196.9831543 C-34.27232178 197.94862183 -34.27232178 197.94862183 -35.83984375 198.93359375 C-45.82660544 204.96471693 -55.23835161 209.60025019 -66.58984375 212.30859375 C-67.28110352 212.4792334 -67.97236328 212.64987305 -68.68457031 212.82568359 C-93.19900101 218.59814252 -119.73707392 217.42025565 -141.58984375 204.30859375 C-144.79461075 202.16885506 -147.71198834 199.86792924 -150.58984375 197.30859375 C-151.60111328 196.45394531 -151.60111328 196.45394531 -152.6328125 195.58203125 C-161.59092833 187.43828958 -167.22462101 175.80366151 -170.58984375 164.30859375 C-171.12351563 162.5915625 -171.12351563 162.5915625 -171.66796875 160.83984375 C-175.11573537 146.69371373 -174.54023742 127.67927 -168.58984375 114.30859375 C-168.11546875 113.22191406 -167.64109375 112.13523438 -167.15234375 111.015625 C-157.94658332 92.13939028 -140.91327954 79.64268622 -121.58984375 72.30859375 C-94.0882727 62.98966461 -52.99827702 61.71333846 -26.32446289 74.38476562 C-25.75203857 74.68962891 -25.17961426 74.99449219 -24.58984375 75.30859375 C-25.08764843 52.93788265 -25.08764843 52.93788265 -35.58984375 34.30859375 C-54.14506957 22.90138905 -82.45068801 29.31180846 -102.4375 33.97265625 C-105.96792091 34.82702793 -109.49081663 35.6998333 -112.99804688 36.64526367 C-115.18861556 37.23396727 -117.38316593 37.78374859 -119.58984375 38.30859375 C-120.30269531 38.48729004 -121.01554687 38.66598633 -121.75 38.85009766 C-123.83984375 39.265625 -123.83984375 39.265625 -127.58984375 39.30859375 C-131.90173552 35.87555634 -133.3449375 33.06369417 -134.42578125 27.72265625 C-134.68488281 26.46195313 -134.94398438 25.20125 -135.2109375 23.90234375 C-135.33452637 23.25007813 -135.45811523 22.5978125 -135.58544922 21.92578125 C-135.96340106 19.94116925 -136.37368892 17.96536116 -136.7890625 15.98828125 C-139.12610862 4.24312639 -139.12610862 4.24312639 -137.58984375 -1.69140625 C-135.68481445 -3.34350586 -135.68481445 -3.34350586 -133.203125 -4.40625 C-132.2951416 -4.80054199 -131.3871582 -5.19483398 -130.45166016 -5.60107422 C-125.93438849 -7.32212312 -121.41238008 -8.87964104 -116.77734375 -10.25390625 C-115.78903564 -10.55055176 -114.80072754 -10.84719727 -113.7824707 -11.15283203 C-77.34415121 -21.77257942 -31.05642713 -26.03621229 0 0 Z M-115.4375 117.19140625 C-117.0093606 119.16105958 -118.32725287 121.12927022 -119.58984375 123.30859375 C-119.92886719 123.88996094 -120.26789063 124.47132813 -120.6171875 125.0703125 C-124.64180354 133.62030325 -123.74239939 145.38791759 -120.62109375 154.1015625 C-116.75251895 162.38089872 -110.63040751 167.67868844 -102.29296875 171.30859375 C-97.46548193 173.0398304 -92.70151741 173.99035726 -87.58984375 174.30859375 C-86.92726562 174.34984375 -86.2646875 174.39109375 -85.58203125 174.43359375 C-64.6985355 175.05008071 -47.54717413 167.14168096 -32.56030273 153.12841797 C-31.22856531 151.86377571 -29.90865959 150.5867054 -28.58984375 149.30859375 C-28.0486792 148.91341553 -27.50751465 148.5182373 -26.94995117 148.11108398 C-24.84078429 145.31589836 -25.22093131 142.37278085 -25.296875 139.015625 C-25.30111984 138.30959641 -25.30536469 137.60356781 -25.30973816 136.87614441 C-25.32651341 134.62407072 -25.36416132 132.37289633 -25.40234375 130.12109375 C-25.41739218 128.5931119 -25.43108031 127.06511599 -25.44335938 125.53710938 C-25.47641286 121.79392503 -25.52818543 118.05141179 -25.58984375 114.30859375 C-27.78986612 113.17457329 -29.99328577 112.04820041 -32.19921875 110.92578125 C-32.81458496 110.60762451 -33.42995117 110.28946777 -34.06396484 109.96166992 C-55.8485053 98.92589152 -97.40996546 98.82085308 -115.4375 117.19140625 Z " fill="#0E059E" transform="translate(172.58984375,18.69140625)"/>
<path d="M0 0 C6.1929371 3.60408634 9.63097131 8.27692141 12.4375 14.875 C12.77503042 17.58930711 12.9626005 19.98276051 12.9375 22.6875 C12.93250488 23.39237549 12.92750977 24.09725098 12.92236328 24.82348633 C12.68829882 31.83815622 10.69954012 36.33514877 6.015625 41.41796875 C-0.79108124 47.65744947 -7.26238009 48.45660383 -16.19140625 48.2109375 C-24.38959958 47.39396806 -28.78194211 43.31760631 -33.9296875 37.08984375 C-38.3720875 31.06390882 -38.43106873 24.12526319 -37.5625 16.875 C-35.3179255 9.51488363 -30.93778276 4.1251885 -24.5625 -0.125 C-17.07012405 -3.85236291 -7.50587756 -3.50499688 0 0 Z " fill="#0E059F" transform="translate(251.5625,181.125)"/>
</svg>
